{
.appVersion = "1266";
copyright = "Copyright © 2015 by Micah Stupak-Hahn. All rights reserved.";
customParameters = (
{
name = vendorID;
value = Bits;
},
{
name = glyphOrder;
value = (
.notdef,
uni0000,
uni000D,
space
);
}
);
date = "2015-09-14 15:44:06 +0000";
designer = "Micah Stupak-Hahn";
designerURL = "http://benthic.cc";
disablesNiceNames = 1;
familyName = Russolo;
featurePrefixes = (
{
automatic = 1;
code = "languagesystem DFLT dflt;\012\012languagesystem latn dflt;\012languagesystem latn ROM;\012languagesystem latn MOL;\012languagesystem latn KAZ;\012languagesystem latn TAT;\012languagesystem latn TRK;\012languagesystem latn CRT;\012languagesystem latn AZE;\012";
name = Languagesystems;
}
);
features = (
{
automatic = 1;
code = "feature locl;\012feature sups;\012feature numr;\012feature dnom;\012feature frac;\012feature ordn;\012feature ss01;\012feature ss02;\012";
name = aalt;
},
{
automatic = 1;
code = "lookup ccmp_Other_1 {\012	@CombiningTopAccents = [acutecomb brevecomb caroncomb circumflexcomb commaturnedabovecomb dieresiscomb dotaccentcomb gravecomb hungarumlautcomb macroncomb ringcomb tildecomb];\012	@CombiningNonTopAccents = [cedillacomb ogonekcomb slashlongcomb slashshortcomb strokelongcomb strokeshortcomb];\012	sub [i j]' @CombiningTopAccents by [idotless jdotless];\012	sub [i j]' @CombiningNonTopAccents @CombiningTopAccents by [idotless jdotless];\012} ccmp_Other_1;\012";
name = ccmp;
},
{
automatic = 1;

glyphs = (
{
glyphname = .notdef;
lastChange = "2015-10-08 20:58:16 +0000";
layers = (
{
layerId = "EA94BB3F-1054-4F03-AAB6-69C3B81B3CC3";
paths = (
{
closed = 1;
nodes = (
"550 -177 LINE",
"550 705 LINE",
"50 705 LINE",
"50 -177 LINE"
);
},
{
closed = 1;
nodes = (
"106 649 LINE",
"494 649 LINE",
"494 -121 LINE",
"106 -121 LINE"
);
}
);
width = 600;
}
);
note = .notdef;
unicode = 007F;
},
{
glyphname = A;
lastChange = "2015-10-08 20:58:16 +0000";
layers = (
{
anchors = (
{
name = bottom;
position = "{313, 0}";
},
{
name = ogonek;
position = "{593, 10}";
},
{
name = top;
position = "{325, 715}";
}
);
background = {
paths = (
{
closed = 1;
nodes = (
"-3 18 LINE",
"-3 0 LINE",
"222 0 LINE",
"222 18 LINE",
"189 18 LINE SMOOTH",
"138 18 OFFCURVE",
"117 27 OFFCURVE",
"117 49 CURVE SMOOTH",
"117 56 OFFCURVE",
"122 75 OFFCURVE",
"130 98 CURVE SMOOTH",
"179 234 LINE",
"423 234 LINE",
"505 18 LINE",
"399 18 LINE",
"399 0 LINE",
"711 0 LINE",
"711 18 LINE",
"620 18 LINE",
"349 726 LINE",
"336 726 LINE",
"110 100 LINE SMOOTH",
"85 28 OFFCURVE",
"75 18 OFFCURVE",
"31 18 CURVE SMOOTH"
);
},
{
closed = 1;
nodes = (
"185 251 LINE",
"297 569 LINE",
"417 251 LINE"
);
}
);
};
layerId = "EA94BB3F-1054-4F03-AAB6-69C3B81B3CC3";
paths = (
{
closed = 1;
nodes = (
"41 0 LINE",
"135.243 233 LINE",
"414.96 233 LINE",
"508 0 LINE",
"627 0 LINE",
"325 743 LINE",
"24 0 LINE"
);
},
{
closed = 1;
nodes = (
"276 581 LINE",
"407.773 251 LINE",
"142.523 251 LINE"
);
}
);
width = 625;
}
);
leftKerningGroup = A;
note = A;
rightKerningGroup = A;
unicode = 0041;
},
{
glyphname = Adieresis;
lastChange = "2015-09-23 22:08:55 +0000";
layers = (
{
background = {
paths = (
{
closed = 1;
nodes = (
"-3 17 LINE",
"-3 0 LINE",
"207 0 LINE",
"207 17 LINE",
"176 17 LINE SMOOTH",
"129 17 OFFCURVE",
"109 25 OFFCURVE",
"109 46 CURVE SMOOTH",
"109 52 OFFCURVE",
"114 70 OFFCURVE",
"121 91 CURVE SMOOTH",
"167 218 LINE",
"395 218 LINE",
"471 17 LINE",
"372 17 LINE",
"372 0 LINE",
"663 0 LINE",
"663 17 LINE",
"578 17 LINE",
"326 677 LINE",
"313 677 LINE",
"103 93 LINE SMOOTH",
"79 26 OFFCURVE",
"70 17 OFFCURVE",
"29 17 CURVE SMOOTH"
);
},
{
closed = 1;
nodes = (
"173 234 LINE",
"277 531 LINE",
"389 234 LINE"
);
},
{
closed = 1;
nodes = (
"386 849 OFFCURVE",
"364 828 OFFCURVE",
"364 801 CURVE SMOOTH",
"364 775 OFFCURVE",
"386 753 OFFCURVE",
"412 753 CURVE SMOOTH",
"438 753 OFFCURVE",
"460 775 OFFCURVE",
"460 801 CURVE SMOOTH",
"460 827 OFFCURVE",
"438 849 OFFCURVE",
"413 849 CURVE SMOOTH"
);
},
{
closed = 1;
nodes = (
"198 849 OFFCURVE",
"176 828 OFFCURVE",
"176 801 CURVE SMOOTH",
"176 775 OFFCURVE",
"198 753 OFFCURVE",
"224 753 CURVE SMOOTH",
"250 753 OFFCURVE",
"272 775 OFFCURVE",
"272 801 CURVE SMOOTH",
"272 827 OFFCURVE",
"250 849 OFFCURVE",
"225 849 CURVE SMOOTH"
);
}
);
};
components = (
{
name = A;
},
{
name = dieresiscomb;
transform = "{1, 0, 0, 1, 75, 258}";
}
);
layerId = "EA94BB3F-1054-4F03-AAB6-69C3B81B3CC3";
width = 625;
}
);
leftKerningGroup = A;
note = Adieresis;
rightKerningGroup = A;
unicode = 00C4;
},
{
glyphname = Aring;
lastChange = "2015-09-23 22:08:55 +0000";
layers = (
{
background = {
paths = (
{
closed = 1;
nodes = (
"-3 17 LINE",
"-3 0 LINE",
"207 0 LINE",
"207 17 LINE",
"176 17 LINE SMOOTH",
"129 17 OFFCURVE",
"109 25 OFFCURVE",
"109 46 CURVE SMOOTH",
"109 52 OFFCURVE",
"114 70 OFFCURVE",
"121 91 CURVE SMOOTH",
"167 218 LINE",
"395 218 LINE",
"471 17 LINE",
"372 17 LINE",
"372 0 LINE",
"663 0 LINE",
"663 17 LINE",
"578 17 LINE",
"326 677 LINE",
"313 677 LINE",
"103 93 LINE SMOOTH",
"79 26 OFFCURVE",
"70 17 OFFCURVE",
"29 17 CURVE SMOOTH"
);
},
{
closed = 1;
nodes = (
"173 234 LINE",
"277 531 LINE",
"389 234 LINE"
);
},
{
closed = 1;
nodes = (
"269 906 OFFCURVE",
"227 865 OFFCURVE",
"227 814 CURVE SMOOTH",
"227 762 OFFCURVE",
"269 720 OFFCURVE",
"320 720 CURVE SMOOTH",
"371 720 OFFCURVE",
"413 762 OFFCURVE",
"413 813 CURVE SMOOTH",
"413 863 OFFCURVE",
"371 906 OFFCURVE",
"321 906 CURVE SMOOTH"
);
},
{
closed = 1;
nodes = (
"357 881 OFFCURVE",
"388 850 OFFCURVE",
"388 813 CURVE SMOOTH",
"388 776 OFFCURVE",
"357 745 OFFCURVE",
"320 745 CURVE SMOOTH",
"282 745 OFFCURVE",
"252 776 OFFCURVE",
"252 814 CURVE SMOOTH",
"252 851 OFFCURVE",
"283 881 OFFCURVE",
"321 881 CURVE SMOOTH"
);
}
);
};
components = (
{
name = A;
},
{
name = ringcomb;
transform = "{1, 0, 0, 1, 75, 258}";
}
);
layerId = "EA94BB3F-1054-4F03-AAB6-69C3B81B3CC3";
width = 625;
}
);
leftKerningGroup = A;
note = Aring;
rightKerningGroup = A;
unicode = 00C5;
},
{
glyphname = AE;
lastChange = "2015-10-08 20:58:16 +0000";
layers = (
{
anchors = (
{
name = bottom;
position = "{432, 0}";
},
{
name = top;
position = "{432, 715}";
}
);
background = {
paths = (
{
closed = 1;
nodes = (
"-27 0 LINE",
"25 1 OFFCURVE",
"64 2 OFFCURVE",
"91 2 CURVE SMOOTH",
"116 2 OFFCURVE",
"156 1 OFFCURVE",
"207 0 CURVE",
"207 17 LINE",
"176 17 LINE SMOOTH",
"133 17 OFFCURVE",
"114 24 OFFCURVE",
"114 40 CURVE SMOOTH",
"114 52 OFFCURVE",
"126 81 OFFCURVE",
"144 115 CURVE SMOOTH",
"199 218 LINE",
"423 218 LINE",
"423 17 LINE",
"314 17 LINE",
"314 0 LINE",
"856 0 LINE",
"856 197 LINE",
"839 197 LINE",
"839 187 LINE SMOOTH",
"839 137 OFFCURVE",
"827 92 OFFCURVE",
"807 71 CURVE SMOOTH",
"771 31 OFFCURVE",
"718 17 OFFCURVE",
"607 17 CURVE SMOOTH",
"520 17 LINE",
"520 330 LINE",
"553 330 LINE SMOOTH",
"620 330 OFFCURVE",
"648 322 OFFCURVE",
"661 299 CURVE",
"669 286 OFFCURVE",
"675 255 OFFCURVE",
"675 228 CURVE SMOOTH",
"675 216 LINE",
"691 216 LINE",
"691 468 LINE",
"675 468 LINE",
"675 456 LINE SMOOTH",
"675 440 OFFCURVE",
"670 407 OFFCURVE",
"666 396 CURVE SMOOTH",
"653 360 OFFCURVE",
"623 347 OFFCURVE",
"554 347 CURVE SMOOTH",
"520 347 LINE",
"520 650 LINE",
"610 650 LINE SMOOTH",
"688 650 OFFCURVE",
"737 638 OFFCURVE",
"763 611 CURVE",
"782 593 OFFCURVE",
"801 544 OFFCURVE",
"801 513 CURVE SMOOTH",
"801 504 LINE",
"818 504 LINE",
"802 667 LINE",
"306 667 LINE",
"306 650 LINE",
"411 650 LINE",
"120 105 LINE SMOOTH",
"110 86 OFFCURVE",
"92 59 OFFCURVE",
"80 45 CURVE SMOOTH",
"64 26 OFFCURVE",
"40 17 OFFCURVE",
"6 17 CURVE SMOOTH",
"-27 17 LINE"
);
},
{
closed = 1;
nodes = (
"423 638 LINE",
"423 235 LINE",
"207 235 LINE"
);
}
);
};
layerId = "EA94BB3F-1054-4F03-AAB6-69C3B81B3CC3";
paths = (
{
closed = 1;
nodes = (
"5 0 LINE",
"435 715 LINE",
"417 715 LINE",
"-13 0 LINE"
);
},
{
closed = 1;
nodes = (
"479 233 LINE",
"479 251 LINE",
"142 251 LINE",
"142 233 LINE"
);
},
{
closed = 1;
nodes = (
"842 0 LINE",
"842 18 LINE",
"520 18 LINE",
"520 355 LINE",
"842 355 LINE",
"842 373 LINE",
"520 373 LINE",
"520 697 LINE",
"842 697 LINE",
"842 715 LINE",
"417 715 LINE",
"417 0 LINE"
);
}
);
width = 863;
}
);
leftKerningGroup = A;
note = AE;
rightKerningGroup = E;
unicode = 00C6;
},
{
glyphname = B;
lastChange = "2015-10-08 20:58:16 +0000";
layers = (
{
background = {
paths = (
{
closed = 1;
nodes = (
"18 715 LINE",
"18 697 LINE",
"122 697 LINE",
"122 18 LINE",
"18 18 LINE",
"18 0 LINE",
"332 0 LINE SMOOTH",
"455 0 OFFCURVE",
"479 5 OFFCURVE",
"532 41 CURVE SMOOTH",
"584 77 OFFCURVE",
"614 133 OFFCURVE",
"614 194 CURVE SMOOTH",
"614 267 OFFCURVE",
"575 325 OFFCURVE",
"503 354 CURVE SMOOTH",
"475 366 OFFCURVE",
"452 371 OFFCURVE",
"397 379 CURVE",
"452 383 OFFCURVE",
"477 388 OFFCURVE",
"506 402 CURVE SMOOTH",
"563 429 OFFCURVE",
"597 481 OFFCURVE",
"597 542 CURVE SMOOTH",
"597 625 OFFCURVE",
"541 683 OFFCURVE",
"443 704 CURVE SMOOTH",
"398 714 OFFCURVE",
"376 715 OFFCURVE",
"275 715 CURVE SMOOTH"
);
},
{
closed = 1;
nodes = (
"226 697 LINE",
"248 697 LINE SMOOTH",
"343 697 OFFCURVE",
"381 689 OFFCURVE",
"423 660 CURVE SMOOTH",
"467 631 OFFCURVE",
"491 586 OFFCURVE",
"491 531 CURVE SMOOTH",
"491 482 OFFCURVE",
"474 443 OFFCURVE",
"443 419 CURVE SMOOTH",
"411 394 OFFCURVE",
"371 388 OFFCURVE",
"245 388 CURVE SMOOTH",
"226 388 LINE"
);
},
{
closed = 1;
nodes = (
"226 373 LINE",
"244 373 LINE SMOOTH",
"307 373 OFFCURVE",
"364 366 OFFCURVE",
"392 355 CURVE SMOOTH",
"464 326 OFFCURVE",
"498 275 OFFCURVE",
"498 198 CURVE SMOOTH",
"498 136 OFFCURVE",
"472 78 OFFCURVE",
"430 49 CURVE SMOOTH",
"397 26 OFFCURVE",
"354 18 OFFCURVE",
"256 18 CURVE SMOOTH",
"226 18 LINE"
);
}
);
};
layerId = "EA94BB3F-1054-4F03-AAB6-69C3B81B3CC3";
paths = (
{
closed = 1;
nodes = (
"258 0 LINE SMOOTH",
"430 0 OFFCURVE",
"541 40 OFFCURVE",
"541 203 CURVE SMOOTH",
"541 335 OFFCURVE",
"468 366 OFFCURVE",
"384 379 CURVE",
"453 399 OFFCURVE",
"510 428 OFFCURVE",
"510 527 CURVE SMOOTH",
"510 656 OFFCURVE",
"413 715 OFFCURVE",
"258 715 CURVE SMOOTH",
"62 715 LINE",
"62 0 LINE"
);
},
{
closed = 1;
nodes = (
"165 370 LINE",
"283 370 LINE SMOOTH",
"390 370 OFFCURVE",
"432 285 OFFCURVE",
"432 203 CURVE SMOOTH",
"432 104 OFFCURVE",
"370 18 OFFCURVE",
"258 18 CURVE SMOOTH",
"165 18 LINE"
);
},
{
closed = 1;
nodes = (
"165 697 LINE",
"258 697 LINE SMOOTH",
"386 697 OFFCURVE",
"401 577 OFFCURVE",
"401 517 CURVE SMOOTH",
"401 444 OFFCURVE",
"379 388 OFFCURVE",
"258 388 CURVE SMOOTH",
"165 388 LINE"
);
}
);
width = 603;
}
);
leftKerningGroup = H;
note = B;
rightKerningGroup = B;
unicode = 0042;
},
{
glyphname = C;
lastChange = "2019-09-30 18:04:36 +0000";
layers = (
{
anchors = (
{
name = bottom;
position = "{433, 0}";
},
{
name = top;
position = "{435, 715}";
}
);
background = {
paths = (
{
closed = 1;
nodes = (
"570 0 LINE",
"586 0 LINE",
"586 238 LINE",
"570 238 LINE",
"568 187 OFFCURVE",
"561 154 OFFCURVE",
"543 122 CURVE SMOOTH",
"502 50 OFFCURVE",
"426 4 OFFCURVE",
"346 4 CURVE SMOOTH",
"217 4 OFFCURVE",
"149 113 OFFCURVE",
"149 321 CURVE SMOOTH",
"149 422 OFFCURVE",
"167 517 OFFCURVE",
"198 574 CURVE SMOOTH",
"229 633 OFFCURVE",
"280 663 OFFCURVE",
"348 663 CURVE SMOOTH",
"418 663 OFFCURVE",
"478 632 OFFCURVE",
"524 573 CURVE SMOOTH",
"555 533 OFFCURVE",
"566 503 OFFCURVE",
"570 448 CURVE",
"586 448 LINE",
"586 650 LINE",
"570 650 LINE",
"566 622 OFFCURVE",
"556 610 OFFCURVE",
"539 610 CURVE SMOOTH",
"528 610 OFFCURVE",
"520 614 OFFCURVE",
"491 633 CURVE SMOOTH",
"444 664 OFFCURVE",
"401 677 OFFCURVE",
"347 677 CURVE SMOOTH",
"263 677 OFFCURVE",
"181 636 OFFCURVE",
"120 562 CURVE SMOOTH",
"69 501 OFFCURVE",
"38 410 OFFCURVE",
"38 321 CURVE SMOOTH",
"38 245 OFFCURVE",
"62 170 OFFCURVE",
"104 115 CURVE SMOOTH",
"165 35 OFFCURVE",
"253 -11 OFFCURVE",
"344 -11 CURVE SMOOTH",
"403 -11 OFFCURVE",
"445 3 OFFCURVE",
"490 37 CURVE SMOOTH",
"515 56 OFFCURVE",
"522 59 OFFCURVE",
"535 59 CURVE SMOOTH",
"554 59 OFFCURVE",
"570 35 OFFCURVE",
"570 6 CURVE SMOOTH"
);
}
);
};
layerId = "EA94BB3F-1054-4F03-AAB6-69C3B81B3CC3";
paths = (
{
closed = 1;
nodes = (
"536 -13 OFFCURVE",
"633 21 OFFCURVE",
"706 91 CURVE SMOOTH",
"727 112 OFFCURVE",
"746 134 OFFCURVE",
"761 159 CURVE",
"661 159 LINE",
"617 61 OFFCURVE",
"537 2 OFFCURVE",
"435 2 CURVE SMOOTH",
"277 2 OFFCURVE",
"171 144 OFFCURVE",
"171 356 CURVE SMOOTH",
"171 571 OFFCURVE",
"277 715 OFFCURVE",
"435 715 CURVE SMOOTH",
"535 715 OFFCURVE",
"615 657 OFFCURVE",
"659 559 CURVE",
"758 559 LINE",
"743 583 OFFCURVE",
"726 604 OFFCURVE",
"706 622 CURVE SMOOTH",
"637 687 OFFCURVE",
"531 730 OFFCURVE",
"435 730 CURVE SMOOTH",
"339 730 OFFCURVE",
"233 685 OFFCURVE",
"165 622 CURVE SMOOTH",
"98 559 OFFCURVE",
"53 465 OFFCURVE",
"53 356 CURVE SMOOTH",
"53 254 OFFCURVE",
"92 160 OFFCURVE",
"165 91 CURVE SMOOTH",
"238 22 OFFCURVE",
"334 -13 OFFCURVE",
"435 -13 CURVE SMOOTH"
);
}
);
width = 785;
}
);
leftKerningGroup = O;
note = C;
rightKerningGroup = C;
unicode = 0043;
},
{
glyphname = Ccedilla;
lastChange = "2015-10-08 20:58:16 +0000";
layers = (
{
background = {
paths = (
{
closed = 1;
nodes = (
"585 11 LINE",
"583 55 OFFCURVE",
"582 94 OFFCURVE",
"582 112 CURVE SMOOTH",
"582 147 OFFCURVE",
"583 182 OFFCURVE",
"585 238 CURVE",
"569 238 LINE",
"568 186 OFFCURVE",
"560 154 OFFCURVE",
"542 121 CURVE SMOOTH",
"501 48 OFFCURVE",
"426 3 OFFCURVE",
"345 3 CURVE SMOOTH",
"216 3 OFFCURVE",
"148 112 OFFCURVE",
"148 320 CURVE SMOOTH",
"148 422 OFFCURVE",
"166 517 OFFCURVE",
"197 574 CURVE SMOOTH",
"229 633 OFFCURVE",
"279 663 OFFCURVE",
"347 663 CURVE SMOOTH",
"417 663 OFFCURVE",
"477 632 OFFCURVE",
"524 573 CURVE SMOOTH",
"554 533 OFFCURVE",
"565 503 OFFCURVE",
"569 448 CURVE",
"585 448 LINE",
"585 463 LINE",
"582 576 LINE",
"582 594 OFFCURVE",
"583 612 OFFCURVE",
"585 650 CURVE",
"569 650 LINE",
"565 622 OFFCURVE",
"556 610 OFFCURVE",
"538 610 CURVE SMOOTH",
"527 610 OFFCURVE",
"520 614 OFFCURVE",
"490 633 CURVE SMOOTH",
"443 664 OFFCURVE",
"400 677 OFFCURVE",
"346 677 CURVE SMOOTH",
"262 677 OFFCURVE",
"180 636 OFFCURVE",
"119 562 CURVE SMOOTH",
"68 501 OFFCURVE",
"37 410 OFFCURVE",
"37 321 CURVE SMOOTH",
"37 140 OFFCURVE",
"166 -4 OFFCURVE",
"335 -11 CURVE",
"280 -108 LINE",
"288 -115 LINE",
"306 -104 OFFCURVE",
"311 -102 OFFCURVE",
"324 -102 CURVE SMOOTH",
"353 -102 OFFCURVE",
"373 -120 OFFCURVE",
"373 -145 CURVE SMOOTH",
"373 -174 OFFCURVE",
"349 -196 OFFCURVE",
"316 -196 CURVE SMOOTH",
"292 -196 OFFCURVE",
"263 -190 OFFCURVE",
"244 -180 CURVE",
"238 -194 LINE",
"268 -208 OFFCURVE",
"300 -216 OFFCURVE",
"331 -216 CURVE SMOOTH",
"392 -216 OFFCURVE",
"438 -186 OFFCURVE",
"438 -145 CURVE SMOOTH",
"438 -109 OFFCURVE",
"406 -84 OFFCURVE",
"360 -84 CURVE SMOOTH",
"341 -84 OFFCURVE",
"327 -87 OFFCURVE",
"305 -96 CURVE",
"354 -11 LINE",
"413 -8 OFFCURVE",
"446 4 OFFCURVE",
"489 36 CURVE SMOOTH",
"514 54 OFFCURVE",
"521 58 OFFCURVE",
"534 58 CURVE SMOOTH",
"552 58 OFFCURVE",
"567 39 OFFCURVE",
"569 11 CURVE"
);
}
);
};
layerId = "EA94BB3F-1054-4F03-AAB6-69C3B81B3CC3";
paths = (
{
closed = 1;
nodes = (
"505 -203 OFFCURVE",
"541 -167 OFFCURVE",
"541 -131 CURVE SMOOTH",
"541 -87 OFFCURVE",
"487 -68 OFFCURVE",
"452 -68 CURVE SMOOTH",
"431 -68 OFFCURVE",
"417 -75 OFFCURVE",
"407 -82 CURVE",
"443.978 -12.91 LINE",
"541.734 -10.951 OFFCURVE",
"635.166 23.077 OFFCURVE",
"706 91 CURVE SMOOTH",
"727 112 OFFCURVE",
"746 134 OFFCURVE",
"761 159 CURVE",
"661 159 LINE",
"617 61 OFFCURVE",
"537 2 OFFCURVE",
"435 2 CURVE SMOOTH",
"277 2 OFFCURVE",
"171 144 OFFCURVE",
"171 356 CURVE SMOOTH",
"171 571 OFFCURVE",
"277 715 OFFCURVE",
"435 715 CURVE SMOOTH",
"535 715 OFFCURVE",
"615 657 OFFCURVE",
"659 559 CURVE",
"758 559 LINE",
"743 583 OFFCURVE",
"726 604 OFFCURVE",
"706 622 CURVE SMOOTH",
"637 687 OFFCURVE",
"531 730 OFFCURVE",
"435 730 CURVE SMOOTH",
"339 730 OFFCURVE",
"233 685 OFFCURVE",
"165 622 CURVE SMOOTH",
"98 559 OFFCURVE",
"53 465 OFFCURVE",
"53 356 CURVE SMOOTH",
"53 254 OFFCURVE",
"92 160 OFFCURVE",
"165 91 CURVE SMOOTH",
"236.067 23.827 OFFCURVE",
"328.932 -11.123 OFFCURVE",
"426.988 -12.926 CURVE",
"376 -110 LINE",
"389 -101 OFFCURVE",
"404 -94 OFFCURVE",
"427 -94 CURVE SMOOTH",
"452 -94 OFFCURVE",
"476 -102 OFFCURVE",
"476 -131 CURVE SMOOTH",
"476 -147 OFFCURVE",
"469 -181 OFFCURVE",
"433 -181 CURVE SMOOTH",
"417 -181 OFFCURVE",
"374 -174 OFFCURVE",
"323 -157 CURVE",
"323 -176 LINE",
"373 -195 OFFCURVE",
"408 -203 OFFCURVE",
"439 -203 CURVE SMOOTH"
);
}
);
width = 725;
}
);
leftKerningGroup = O;
note = Ccedilla;
rightKerningGroup = C;
unicode = 00C7;
},
{
glyphname = D;
lastChange = "2015-10-08 20:58:20 +0000";
layers = (
{
anchors = (
{
name = bottom;
position = "{363, 0}";
},
{
name = center;
position = "{363, 358}";
},
{
name = top;
position = "{363, 715}";
}
);
background = {
paths = (
{
closed = 1;
nodes = (
"18 715 LINE",
"18 697 LINE",
"122 697 LINE",
"122 18 LINE",
"18 18 LINE",
"18 0 LINE",
"299 0 LINE SMOOTH",
"435 0 OFFCURVE",
"493 10 OFFCURVE",
"557 45 CURVE SMOOTH",
"666 105 OFFCURVE",
"730 221 OFFCURVE",
"730 356 CURVE SMOOTH",
"730 525 OFFCURVE",
"630 659 OFFCURVE",
"472 701 CURVE SMOOTH",
"421 714 OFFCURVE",
"404 715 OFFCURVE",
"282 715 CURVE SMOOTH"
);
},
{
closed = 1;
nodes = (
"228 697 LINE",
"236 697 LINE SMOOTH",
"310 697 OFFCURVE",
"310 697 OFFCURVE",
"326 696 CURVE SMOOTH",
"389 691 OFFCURVE",
"440 677 OFFCURVE",
"480 653 CURVE SMOOTH",
"569 599 OFFCURVE",
"613 504 OFFCURVE",
"613 363 CURVE SMOOTH",
"613 258 OFFCURVE",
"594 176 OFFCURVE",
"556 122 CURVE SMOOTH",
"519 66 OFFCURVE",
"444 29 OFFCURVE",
"354 21 CURVE SMOOTH",
"319 18 OFFCURVE",
"301 18 OFFCURVE",
"228 18 CURVE"
);
}
);
};
layerId = "EA94BB3F-1054-4F03-AAB6-69C3B81B3CC3";
paths = (
{
closed = 1;
nodes = (
"254 0 LINE SMOOTH",
"423 0 OFFCURVE",
"494 27 OFFCURVE",
"547 67 CURVE SMOOTH",
"630 130 OFFCURVE",
"672 229 OFFCURVE",
"672 357 CURVE SMOOTH",
"672 421 OFFCURVE",
"661 478 OFFCURVE",
"640 527 CURVE SMOOTH",
"598 625 OFFCURVE",
"521 679 OFFCURVE",
"438 700 CURVE SMOOTH",
"396 710 OFFCURVE",
"338 715 OFFCURVE",
"223 715 CURVE SMOOTH",
"62 715 LINE",
"62 0 LINE"
);
},
{
closed = 1;
nodes = (
"169 697 LINE",
"226 697 LINE SMOOTH",
"488 697 OFFCURVE",
"554 562 OFFCURVE",
"554 358 CURVE SMOOTH",
"554 126 OFFCURVE",
"465 18 OFFCURVE",
"226 18 CURVE SMOOTH",
"169 18 LINE"
);
}
);
width = 725;
}
);
leftKerningGroup = H;
note = D;
rightKerningGroup = O;
unicode = 0044;
},
{
glyphname = Eth;
lastChange = "2015-10-08 20:58:20 +0000";
layers = (
{
background = {
paths = (
{
closed = 1;
nodes = (
"17 667 LINE",
"17 650 LINE",
"114 650 LINE",
"114 355 LINE",
"25 355 LINE",
"25 338 LINE",
"114 338 LINE",
"114 17 LINE",
"17 17 LINE",
"17 0 LINE",
"278 0 LINE SMOOTH",
"406 0 OFFCURVE",
"460 9 OFFCURVE",
"519 42 CURVE SMOOTH",
"621 98 OFFCURVE",
"681 205 OFFCURVE",
"681 331 CURVE SMOOTH",
"681 490 OFFCURVE",
"588 614 OFFCURVE",
"439 653 CURVE SMOOTH",
"393 666 OFFCURVE",
"376 667 OFFCURVE",
"263 667 CURVE SMOOTH"
);
},
{
closed = 1;
nodes = (
"213 338 LINE",
"359 338 LINE",
"359 355 LINE",
"213 355 LINE",
"213 650 LINE",
"316 650 OFFCURVE",
"345 647 OFFCURVE",
"389 635 CURVE SMOOTH",
"509 599 OFFCURVE",
"572 498 OFFCURVE",
"572 338 CURVE SMOOTH",
"572 241 OFFCURVE",
"554 164 OFFCURVE",
"519 113 CURVE SMOOTH",
"484 62 OFFCURVE",
"415 28 OFFCURVE",
"330 20 CURVE SMOOTH",
"300 18 OFFCURVE",
"282 17 OFFCURVE",
"213 17 CURVE"
);
}
);
};
layerId = "EA94BB3F-1054-4F03-AAB6-69C3B81B3CC3";
paths = (
{
closed = 1;
nodes = (
"254 0 LINE SMOOTH",
"423 0 OFFCURVE",
"494 27 OFFCURVE",
"547 67 CURVE SMOOTH",
"630 130 OFFCURVE",
"672 229 OFFCURVE",
"672 357 CURVE SMOOTH",
"672 421 OFFCURVE",
"661 478 OFFCURVE",
"640 527 CURVE SMOOTH",
"598 625 OFFCURVE",
"521 679 OFFCURVE",
"438 700 CURVE SMOOTH",
"396 710 OFFCURVE",
"338 715 OFFCURVE",
"223 715 CURVE SMOOTH",
"62 715 LINE",
"62 0 LINE"
);
},
{
closed = 1;
nodes = (
"300 349 LINE",
"300 367 LINE",
"0 367 LINE",
"0 349 LINE"
);
},
{
closed = 1;
nodes = (
"169 697 LINE",
"226 697 LINE SMOOTH",
"488 697 OFFCURVE",
"554 562 OFFCURVE",
"554 358 CURVE SMOOTH",
"554 126 OFFCURVE",
"465 18 OFFCURVE",
"226 18 CURVE SMOOTH",
"169 18 LINE"
);
}
);
width = 725;
}
);
leftKerningGroup = H;
note = Eth;
rightKerningGroup = O;
unicode = 00D0;
},
{
glyphname = E;
lastChange = "2015-10-08 20:58:16 +0000";
layers = (
{
anchors = (
{
name = bottom;
position = "{275, 0}";
},
{
name = ogonek;
position = "{483, 10}";
},
{
name = top;
position = "{275, 715}";
}
);
background = {
paths = (
{
closed = 1;
nodes = (
"241 18 LINE",
"241 356 LINE",
"282 356 LINE SMOOTH",
"337 356 OFFCURVE",
"373 353 OFFCURVE",
"393 347 CURVE",
"429 337 OFFCURVE",
"448 309 OFFCURVE",
"448 269 CURVE SMOOTH",
"448 232 LINE",
"466 232 LINE",
"466 501 LINE",
"448 501 LINE",
"448 467 LINE SMOOTH",
"448 435 OFFCURVE",
"428 401 OFFCURVE",
"401 388 CURVE",
"378 378 OFFCURVE",
"333 372 OFFCURVE",
"283 372 CURVE SMOOTH",
"241 372 LINE",
"241 697 LINE",
"363 697 LINE SMOOTH",
"462 697 OFFCURVE",
"520 688 OFFCURVE",
"555 668 CURVE SMOOTH",
"595 645 OFFCURVE",
"607 623 OFFCURVE",
"621 540 CURVE",
"637 540 LINE",
"621 715 LINE",
"32 715 LINE",
"32 697 LINE",
"136 697 LINE",
"136 18 LINE",
"32 18 LINE",
"32 0 LINE",
"675 0 LINE",
"675 210 LINE",
"657 210 LINE",
"657 169 LINE SMOOTH",
"657 110 OFFCURVE",
"630 71 OFFCURVE",
"571 44 CURVE",
"533 25 OFFCURVE",
"478 18 OFFCURVE",
"375 18 CURVE SMOOTH"
);
}
);
};
layerId = "EA94BB3F-1054-4F03-AAB6-69C3B81B3CC3";
paths = (
{
closed = 1;
nodes = (
"487 0 LINE",
"487 18 LINE",
"165 18 LINE",
"165 355 LINE",
"487 355 LINE",
"487 373 LINE",
"165 373 LINE",
"165 697 LINE",
"487 697 LINE",
"487 715 LINE",
"62 715 LINE",
"62 0 LINE"
);
}
);
width = 535;
}
);
leftKerningGroup = H;
note = E;
rightKerningGroup = E;
unicode = 0045;
},
{
glyphname = Eacute;
lastChange = "2015-09-30 05:09:58 +0000";
layers = (
{
background = {
paths = (
{
closed = 1;
nodes = (
"212 17 LINE",
"212 332 LINE",
"250 332 LINE SMOOTH",
"301 332 OFFCURVE",
"335 329 OFFCURVE",
"354 324 CURVE",
"387 314 OFFCURVE",
"405 288 OFFCURVE",
"405 251 CURVE SMOOTH",
"405 216 LINE",
"422 216 LINE",
"422 467 LINE",
"405 467 LINE",
"405 436 LINE SMOOTH",
"405 406 OFFCURVE",
"386 374 OFFCURVE",
"361 362 CURVE",
"340 353 OFFCURVE",
"298 347 OFFCURVE",
"251 347 CURVE SMOOTH",
"212 347 LINE",
"212 650 LINE",
"326 650 LINE SMOOTH",
"418 650 OFFCURVE",
"472 642 OFFCURVE",
"505 623 CURVE SMOOTH",
"542 602 OFFCURVE",
"553 581 OFFCURVE",
"566 504 CURVE",
"581 504 LINE",
"566 667 LINE",
"17 667 LINE",
"17 650 LINE",
"114 650 LINE",
"114 17 LINE",
"17 17 LINE",
"17 0 LINE",
"617 0 LINE",
"617 196 LINE",
"600 196 LINE",
"600 158 LINE SMOOTH",
"600 103 OFFCURVE",
"575 66 OFFCURVE",
"520 41 CURVE",
"484 23 OFFCURVE",
"433 17 OFFCURVE",
"337 17 CURVE SMOOTH"
);
},
{
closed = 1;
nodes = (
"203 723 LINE",
"318 798 LINE SMOOTH",
"346 816 OFFCURVE",
"359 832 OFFCURVE",
"359 847 CURVE SMOOTH",
"359 866 OFFCURVE",
"343 879 OFFCURVE",
"321 879 CURVE SMOOTH",
"297 879 OFFCURVE",
"286 870 OFFCURVE",
"258 829 CURVE SMOOTH",
"184 723 LINE"
);
}
);
};
components = (
{
name = E;
},
{
name = acutecomb;
transform = "{1, 0, 0, 1, 40, 258}";
}
);
layerId = "EA94BB3F-1054-4F03-AAB6-69C3B81B3CC3";
width = 535;
}
);
leftKerningGroup = H;
note = Eacute;
rightKerningGroup = E;
unicode = 00C9;
},
{
glyphname = F;
lastChange = "2015-10-08 20:58:16 +0000";
layers = (
{
background = {
paths = (
{
closed = 1;
nodes = (
"614 527 LINE",
"595 715 LINE",
"12 715 LINE",
"12 697 LINE",
"116 697 LINE",
"116 18 LINE",
"12 18 LINE",
"12 0 LINE",
"332 0 LINE",
"332 18 LINE",
"220 18 LINE",
"220 356 LINE",
"264 356 LINE SMOOTH",
"366 356 OFFCURVE",
"409 346 OFFCURVE",
"428 316 CURVE SMOOTH",
"437 303 OFFCURVE",
"444 268 OFFCURVE",
"444 236 CURVE SMOOTH",
"444 228 LINE",
"462 228 LINE",
"462 508 LINE",
"444 508 LINE",
"444 502 LINE SMOOTH",
"444 474 OFFCURVE",
"438 438 OFFCURVE",
"430 423 CURVE SMOOTH",
"411 387 OFFCURVE",
"368 374 OFFCURVE",
"265 374 CURVE SMOOTH",
"220 374 LINE",
"220 697 LINE",
"343 697 LINE SMOOTH",
"439 697 OFFCURVE",
"439 697 OFFCURVE",
"462 692 CURVE SMOOTH",
"522 683 OFFCURVE",
"554 664 OFFCURVE",
"572 625 CURVE SMOOTH",
"587 594 OFFCURVE",
"594 566 OFFCURVE",
"594 545 CURVE SMOOTH",
"594 527 LINE"
);
}
);
};
layerId = "EA94BB3F-1054-4F03-AAB6-69C3B81B3CC3";
paths = (
{
closed = 1;
nodes = (
"165 0 LINE",
"165 356 LINE",
"457 356 LINE",
"457 373 LINE",
"165 373 LINE",
"165 697 LINE",
"457 697 LINE",
"457 715 LINE",
"62 715 LINE",
"62 0 LINE"
);
}
);
width = 501;
}
);
leftKerningGroup = H;
note = F;
rightKerningGroup = F;
unicode = 0046;
},
{
glyphname = G;
lastChange = "2015-10-08 20:58:16 +0000";
layers = (
{
anchors = (
{
name = bottom;
position = "{431, 0}";
},
{
name = top;
position = "{435, 715}";
}
);
background = {
paths = (
{
closed = 1;
nodes = (
"647 487 LINE",
"647 703 LINE",
"629 703 LINE",
"625 679 LINE SMOOTH",
"622 662 OFFCURVE",
"612 654 OFFCURVE",
"598 654 CURVE SMOOTH",
"586 654 OFFCURVE",
"582 656 OFFCURVE",
"546 676 CURVE SMOOTH",
"523 688 LINE SMOOTH",
"480 712 OFFCURVE",
"437 723 OFFCURVE",
"388 723 CURVE SMOOTH",
"297 723 OFFCURVE",
"207 683 OFFCURVE",
"141 614 CURVE SMOOTH",
"74 543 OFFCURVE",
"40 452 OFFCURVE",
"40 345 CURVE SMOOTH",
"40 134 OFFCURVE",
"181 -10 OFFCURVE",
"391 -10 CURVE SMOOTH",
"449 -10 OFFCURVE",
"508 3 OFFCURVE",
"563 27 CURVE SMOOTH",
"599 44 OFFCURVE",
"623 59 OFFCURVE",
"673 98 CURVE",
"673 212 LINE",
"762 212 LINE",
"762 230 LINE",
"461 230 LINE",
"461 212 LINE",
"564 212 LINE",
"564 125 LINE SMOOTH",
"564 54 OFFCURVE",
"498 8 OFFCURVE",
"398 8 CURVE SMOOTH",
"233 8 OFFCURVE",
"160 115 OFFCURVE",
"160 356 CURVE SMOOTH",
"160 584 OFFCURVE",
"237 705 OFFCURVE",
"383 705 CURVE SMOOTH",
"458 705 OFFCURVE",
"528 672 OFFCURVE",
"577 613 CURVE SMOOTH",
"608 577 OFFCURVE",
"619 550 OFFCURVE",
"629 487 CURVE"
);
}
);
};
layerId = "EA94BB3F-1054-4F03-AAB6-69C3B81B3CC3";
paths = (
{
closed = 1;
nodes = (
"536 -13 OFFCURVE",
"633 21 OFFCURVE",
"706 91 CURVE SMOOTH",
"768 151 OFFCURVE",
"806 229 OFFCURVE",
"815 315 CURVE",
"698 315 LINE",
"685 126 OFFCURVE",
"583 2 OFFCURVE",
"435 2 CURVE SMOOTH",
"277 2 OFFCURVE",
"171 144 OFFCURVE",
"171 356 CURVE SMOOTH",
"171 571 OFFCURVE",
"277 715 OFFCURVE",
"435 715 CURVE SMOOTH",
"535 715 OFFCURVE",
"615 657 OFFCURVE",
"659 559 CURVE",
"758 559 LINE",
"743 582 OFFCURVE",
"726 604 OFFCURVE",
"706 622 CURVE SMOOTH",
"637 687 OFFCURVE",
"531 730 OFFCURVE",
"435 730 CURVE SMOOTH",
"339 730 OFFCURVE",
"233 685 OFFCURVE",
"165 622 CURVE SMOOTH",
"98 559 OFFCURVE",
"53 465 OFFCURVE",
"53 356 CURVE SMOOTH",
"53 254 OFFCURVE",
"92 160 OFFCURVE",
"165 91 CURVE SMOOTH",
"238 22 OFFCURVE",
"334 -13 OFFCURVE",
"435 -13 CURVE SMOOTH"
);
},
{
closed = 1;
nodes = (
"723 297 LINE",
"723 315 LINE",
"465 315 LINE",
"465 297 LINE"
);
}
);
width = 814;
}
);
leftKerningGroup = O;
note = G;
rightKerningGroup = G;
unicode = 0047;
},
{
glyphname = H;
lastChange = "2015-10-08 20:58:16 +0000";
layers = (
{
anchors = (
{
name = bottom;
position = "{355, 0}";
},
{
name = center;
position = "{355, 358}";
},
{
name = top;
position = "{355, 715}";
}
);
background = {
paths = (
{
closed = 1;
nodes = (
"220 357 LINE",
"614 357 LINE",
"614 18 LINE",
"509 18 LINE",
"509 0 LINE",
"822 0 LINE",
"822 18 LINE",
"718 18 LINE",
"718 697 LINE",
"822 697 LINE",
"822 715 LINE",
"509 715 LINE",
"509 697 LINE",
"614 697 LINE",
"614 375 LINE",
"220 375 LINE",
"220 697 LINE",
"324 697 LINE",
"324 715 LINE",
"12 715 LINE",
"12 697 LINE",
"116 697 LINE",
"116 18 LINE",
"12 18 LINE",
"12 0 LINE",
"324 0 LINE",
"324 18 LINE",
"220 18 LINE"
);
}
);
};
layerId = "EA94BB3F-1054-4F03-AAB6-69C3B81B3CC3";
paths = (
{
closed = 1;
nodes = (
"165 0 LINE",
"165 357 LINE",
"545 357 LINE",
"545 0 LINE",
"648 0 LINE",
"648 715 LINE",
"545 715 LINE",
"545 375 LINE",
"165 375 LINE",
"165 715 LINE",
"62 715 LINE",
"62 0 LINE"
);
}
);
width = 710;
}
);
leftKerningGroup = H;
note = H;
rightKerningGroup = H;
unicode = 0048;
},
{
glyphname = Hbar;
lastChange = "2015-10-08 20:58:16 +0000";
layers = (
{
anchors = (
{
name = bottom;
position = "{371, 0}";
},
{
name = center;
position = "{371, 358}";
},
{
name = top;
position = "{371, 715}";
}
);
layerId = "EA94BB3F-1054-4F03-AAB6-69C3B81B3CC3";
paths = (
{
closed = 1;
nodes = (
"181 0 LINE",
"181 357 LINE",
"561 357 LINE",
"561 0 LINE",
"664 0 LINE",
"664 715 LINE",
"561 715 LINE",
"561 375 LINE",
"181 375 LINE",
"181 715 LINE",
"78 715 LINE",
"78 0 LINE"
);
},
{
closed = 1;
nodes = (
"711 569 LINE",
"711 587 LINE",
"31 587 LINE",
"31 569 LINE"
);
}
);
width = 742;
}
);
leftKerningGroup = H;
rightKerningGroup = H;
unicode = 0126;
},
{
glyphname = I;
lastChange = "2015-10-08 20:58:16 +0000";
layers = (
{
anchors = (
{
name = bottom;
position = "{114, 0}";
},
{
name = ogonek;
position = "{207, 10}";
},
{
name = top;
position = "{114, 715}";
}
);
background = {
paths = (
{
closed = 1;
nodes = (
"4 667 LINE",
"4 650 LINE",
"101 650 LINE",
"101 17 LINE",
"4 17 LINE",
"4 0 LINE",
"298 0 LINE",
"298 17 LINE",
"201 17 LINE",
"201 650 LINE",
"298 650 LINE",
"298 667 LINE"
);
}
);
};
layerId = "EA94BB3F-1054-4F03-AAB6-69C3B81B3CC3";
paths = (
{
closed = 1;
nodes = (
"165 0 LINE",
"165 715 LINE",
"62 715 LINE",
"62 0 LINE"
);
}
);
width = 227;
}
);
leftKerningGroup = H;
note = I;
rightKerningGroup = H;
unicode = 0049;
},
{
glyphname = J;
lastChange = "2015-10-08 20:58:16 +0000";
layers = (
{
anchors = (
{
name = bottom;
position = "{187, 0}";
},
{
name = top;
position = "{187, 715}";
}
);
background = {
paths = (
{
closed = 1;
nodes = (
"368 697 LINE",
"368 715 LINE",
"55 715 LINE",
"55 697 LINE",
"159 697 LINE",
"159 132 LINE SMOOTH",
"159 99 OFFCURVE",
"160 93 OFFCURVE",
"175 58 CURVE",
"184 38 LINE",
"188 29 OFFCURVE",
"190 20 OFFCURVE",
"190 11 CURVE SMOOTH",
"190 -28 OFFCURVE",
"161 -59 OFFCURVE",
"125 -59 CURVE SMOOTH",
"102 -59 OFFCURVE",
"77 -44 OFFCURVE",
"77 -30 CURVE SMOOTH",
"77 -27 OFFCURVE",
"79 -24 OFFCURVE",
"83 -23 CURVE SMOOTH",
"103 -16 OFFCURVE",
"103 -16 OFFCURVE",
"108 -12 CURVE",
"117 -3 OFFCURVE",
"123 11 OFFCURVE",
"123 24 CURVE SMOOTH",
"123 51 OFFCURVE",
"102 73 OFFCURVE",
"75 73 CURVE SMOOTH",
"43 73 OFFCURVE",
"20 47 OFFCURVE",
"20 12 CURVE SMOOTH",
"20 -40 OFFCURVE",
"65 -76 OFFCURVE",
"130 -76 CURVE SMOOTH",
"173 -76 OFFCURVE",
"208 -60 OFFCURVE",
"231 -30 CURVE SMOOTH",
"255 3 OFFCURVE",
"264 43 OFFCURVE",
"264 117 CURVE SMOOTH",
"264 697 LINE"
);
}
);
};
layerId = "EA94BB3F-1054-4F03-AAB6-69C3B81B3CC3";
paths = (
{
closed = 1;
nodes = (
"231 -76 OFFCURVE",
"307 6 OFFCURVE",
"307 87 CURVE SMOOTH",
"307 715 LINE",
"204 715 LINE",
"204 68 LINE SMOOTH",
"204 -23 OFFCURVE",
"199 -58 OFFCURVE",
"151 -58 CURVE SMOOTH",
"123 -58 OFFCURVE",
"98 -46 OFFCURVE",
"98 -17 CURVE SMOOTH",
"98 -3 OFFCURVE",
"140 9 OFFCURVE",
"140 37 CURVE SMOOTH",
"140 60 OFFCURVE",
"111 73 OFFCURVE",
"88 73 CURVE SMOOTH",
"47 73 OFFCURVE",
"40 31 OFFCURVE",
"40 -13 CURVE",
"66 -47 OFFCURVE",
"94 -76 OFFCURVE",
"145 -76 CURVE SMOOTH"
);
}
);
width = 369;
},
{
associatedMasterId = "EA94BB3F-1054-4F03-AAB6-69C3B81B3CC3";
background = {
paths = (
{
closed = 1;
nodes = (
"369 697 LINE",
"369 715 LINE",
"56 715 LINE",
"56 697 LINE",
"160 697 LINE",
"160 132 LINE SMOOTH",
"160 99 OFFCURVE",
"161 93 OFFCURVE",
"176 58 CURVE",
"185 38 LINE",
"189 29 OFFCURVE",
"191 20 OFFCURVE",
"191 11 CURVE SMOOTH",
"191 -28 OFFCURVE",
"162 -59 OFFCURVE",
"126 -59 CURVE SMOOTH",
"103 -59 OFFCURVE",
"78 -44 OFFCURVE",
"78 -30 CURVE SMOOTH",
"78 -27 OFFCURVE",
"80 -24 OFFCURVE",
"84 -23 CURVE SMOOTH",
"104 -16 OFFCURVE",
"104 -16 OFFCURVE",
"109 -12 CURVE",
"118 -3 OFFCURVE",
"124 11 OFFCURVE",
"124 24 CURVE SMOOTH",
"124 51 OFFCURVE",
"103 73 OFFCURVE",
"76 73 CURVE SMOOTH",
"44 73 OFFCURVE",
"21 47 OFFCURVE",
"21 12 CURVE SMOOTH",
"21 -40 OFFCURVE",
"66 -76 OFFCURVE",
"131 -76 CURVE SMOOTH",
"174 -76 OFFCURVE",
"209 -60 OFFCURVE",
"232 -30 CURVE SMOOTH",
"256 3 OFFCURVE",
"265 43 OFFCURVE",
"265 117 CURVE SMOOTH",
"265 697 LINE"
);
}
);
};
layerId = "5F3C60D3-57DE-4E92-8BCD-2FCE42A3C567";
name = guide;
paths = (
{
closed = 1;
nodes = (
"237 -76 OFFCURVE",
"308 -3 OFFCURVE",
"308 86 CURVE SMOOTH",
"308 173 OFFCURVE",
"237 246 OFFCURVE",
"148 246 CURVE SMOOTH",
"59 246 OFFCURVE",
"-12 173 OFFCURVE",
"-12 86 CURVE SMOOTH",
"-12 -3 OFFCURVE",
"59 -76 OFFCURVE",
"148 -76 CURVE SMOOTH"
);
}
);
width = 387;
}
);
leftKerningGroup = J;
note = J;
rightKerningGroup = J;
unicode = 004A;
},
{
glyphname = K;
lastChange = "2015-10-08 20:58:16 +0000";
layers = (
{
anchors = (
{
name = bottom;
position = "{272, 0}";
},
{
name = top;
position = "{272, 715}";
}
);
background = {
paths = (
{
closed = 1;
nodes = (
"293 426 LINE",
"449 566 LINE SMOOTH",
"501 614 OFFCURVE",
"561 660 OFFCURVE",
"600 682 CURVE SMOOTH",
"619 692 OFFCURVE",
"637 697 OFFCURVE",
"666 697 CURVE SMOOTH",
"723 697 LINE",
"723 715 LINE",
"418 715 LINE",
"418 697 LINE",
"472 697 LINE SMOOTH",
"511 697 OFFCURVE",
"523 692 OFFCURVE",
"523 677 CURVE SMOOTH",
"523 664 OFFCURVE",
"503 639 OFFCURVE",
"469 608 CURVE SMOOTH",
"202 368 LINE",
"202 697 LINE",
"309 697 LINE",
"309 715 LINE",
"-6 715 LINE",
"-6 697 LINE",
"98 697 LINE",
"98 18 LINE",
"-6 18 LINE",
"-6 0 LINE",
"315 0 LINE",
"315 18 LINE",
"202 18 LINE",
"202 344 LINE",
"215 356 LINE",
"494 18 LINE",
"393 18 LINE",
"393 0 LINE",
"741 0 LINE",
"741 18 LINE",
"638 18 LINE"
);
}
);
};
layerId = "EA94BB3F-1054-4F03-AAB6-69C3B81B3CC3";
paths = (
{
closed = 1;
nodes = (
"165 0 LINE",
"165 276 LINE",
"223 346 LINE",
"513 0 LINE",
"649 0 LINE",
"291 426 LINE",
"533 715 LINE",
"509 715 LINE",
"165 305 LINE",
"165 715 LINE",
"62 715 LINE",
"62 0 LINE"
);
}
);
width = 639;
}
);
leftKerningGroup = H;
note = K;
rightKerningGroup = K;
unicode = 004B;
},
{
glyphname = L;
lastChange = "2015-10-08 20:58:16 +0000";
layers = (
{
anchors = (
{
name = bottom;
position = "{254, 0}";
},
{
name = center;
position = "{254, 358}";
},
{
name = top;
position = "{164, 715}";
},
{
name = topright;
position = "{198, 715}";
}
);
background = {
paths = (
{
closed = 1;
nodes = (
"634 220 LINE",
"617 220 LINE",
"617 177 LINE SMOOTH",
"617 105 OFFCURVE",
"596 63 OFFCURVE",
"549 41 CURVE SMOOTH",
"513 24 OFFCURVE",
"451 17 OFFCURVE",
"337 17 CURVE SMOOTH",
"237 17 LINE",
"237 650 LINE",
"348 650 LINE",
"348 667 LINE",
"43 667 LINE",
"43 650 LINE",
"140 650 LINE",
"140 17 LINE",
"43 17 LINE",
"43 0 LINE",
"634 0 LINE"
);
}
);
};
layerId = "EA94BB3F-1054-4F03-AAB6-69C3B81B3CC3";
paths = (
{
closed = 1;
nodes = (
"457 0 LINE",
"457 18 LINE",
"165 18 LINE",
"165 715 LINE",
"62 715 LINE",
"62 0 LINE"
);
}
);
width = 482;
}
);
leftKerningGroup = H;
note = L;
rightKerningGroup = L;
unicode = 004C;
},
{
glyphname = Lslash;
lastChange = "2015-10-08 20:58:16 +0000";
layers = (
{
background = {
paths = (
{
closed = 1;
nodes = (
"138 313 LINE",
"45 241 LINE",
"45 215 LINE",
"138 286 LINE",
"138 17 LINE",
"41 17 LINE",
"41 0 LINE",
"632 0 LINE",
"632 220 LINE",
"615 220 LINE",
"615 177 LINE SMOOTH",
"615 105 OFFCURVE",
"594 63 OFFCURVE",
"547 41 CURVE SMOOTH",
"511 24 OFFCURVE",
"450 17 OFFCURVE",
"335 17 CURVE SMOOTH",
"235 17 LINE",
"235 351 LINE",
"387 468 LINE",
"387 496 LINE",
"235 379 LINE",
"235 650 LINE",
"346 650 LINE",
"346 667 LINE",
"41 667 LINE",
"41 650 LINE",
"138 650 LINE"
);
}
);
};
layerId = "EA94BB3F-1054-4F03-AAB6-69C3B81B3CC3";
paths = (
{
closed = 1;
nodes = (
"455 0 LINE",
"455 18 LINE",
"163 18 LINE",
"163 715 LINE",
"60 715 LINE",
"60 0 LINE"
);
},
{
closed = 1;
nodes = (
"327 443 LINE",
"318 458 LINE",
"1 267 LINE",
"10 252 LINE"
);
}
);
width = 480;
}
);
leftKerningGroup = H;
note = Lslash;
rightKerningGroup = L;
unicode = 0141;
},
{
glyphname = M;
lastChange = "2015-10-08 20:58:16 +0000";
layers = (
{
background = {
paths = (
{
closed = 1;
nodes = (
"-41 18 LINE",
"-41 0 LINE",
"193 0 LINE",
"193 18 LINE",
"162 18 LINE SMOOTH",
"116 18 OFFCURVE",
"96 25 OFFCURVE",
"88 42 CURVE",
"83 53 OFFCURVE",
"83 53 OFFCURVE",
"80 133 CURVE",
"80 638 LINE",
"350 15 LINE",
"615 660 LINE",
"615 18 LINE",
"512 18 LINE",
"512 0 LINE",
"823 0 LINE",
"823 18 LINE",
"719 18 LINE",
"719 697 LINE",
"823 697 LINE",
"823 715 LINE",
"615 715 LINE",
"396 178 LINE",
"162 715 LINE",
"-37 715 LINE",
"-37 697 LINE",
"54 697 LINE",
"63 677 LINE",
"63 132 LINE SMOOTH",
"63 64 OFFCURVE",
"63 62 OFFCURVE",
"58 48 CURVE SMOOTH",
"52 27 OFFCURVE",
"34 18 OFFCURVE",
"-5 18 CURVE SMOOTH"
);
}
);
};
layerId = "EA94BB3F-1054-4F03-AAB6-69C3B81B3CC3";
paths = (
{
closed = 1;
nodes = (
"80 0 LINE",
"80 652 LINE",
"345 29 LINE",
"616 670 LINE",
"616 0 LINE",
"719 0 LINE",
"719 715 LINE",
"616 715 LINE",
"390 184 LINE",
"165 715 LINE",
"62 715 LINE",
"62 0 LINE"
);
}
);
width = 781;
}
);
leftKerningGroup = M;
note = M;
rightKerningGroup = M;
unicode = 004D;
},
{
glyphname = N;
lastChange = "2015-10-08 20:58:16 +0000";
layers = (
{
anchors = (
{
name = bottom;
position = "{382, 0}";
},
{
name = top;
position = "{382, 715}";
}
);
background = {
paths = (
{
closed = 1;
nodes = (
"5 18 LINE",
"5 0 LINE",
"237 0 LINE",
"237 18 LINE",
"207 18 LINE SMOOTH",
"130 18 OFFCURVE",
"126 25 OFFCURVE",
"126 132 CURVE SMOOTH",
"126 665 LINE",
"653 -5 LINE",
"660 -5 LINE",
"660 608 LINE SMOOTH",
"660 697 OFFCURVE",
"660 697 OFFCURVE",
"734 697 CURVE SMOOTH",
"764 697 LINE",
"764 715 LINE",
"534 715 LINE",
"534 697 LINE",
"564 697 LINE SMOOTH",
"641 697 OFFCURVE",
"643 696 OFFCURVE",
"643 608 CURVE SMOOTH",
"643 188 LINE",
"226 715 LINE",
"5 715 LINE",
"5 697 LINE",
"90 697 LINE",
"109 684 LINE",
"109 132 LINE SMOOTH",
"109 54 OFFCURVE",
"109 51 OFFCURVE",
"99 35 CURVE",
"90 23 OFFCURVE",
"78 18 OFFCURVE",
"40 18 CURVE SMOOTH"
);
}
);
};
layerId = "EA94BB3F-1054-4F03-AAB6-69C3B81B3CC3";
paths = (
{
closed = 1;
nodes = (
"80 0 LINE",
"80 581 LINE",
"595 0 LINE",
"648 0 LINE",
"648 715 LINE",
"630 715 LINE",
"630 136 LINE",
"117 715 LINE",
"62 715 LINE",
"62 0 LINE"
);
}
);
width = 710;
}
);
leftKerningGroup = H;
note = N;
rightKerningGroup = H;
unicode = 004E;
},
{
glyphname = Eng;
lastChange = "2015-10-08 20:58:16 +0000";
layers = (
{
anchors = (
{
name = top;
position = "{382, 715}";
}
);
background = {
components = (
{
name = N;
}
);
};
layerId = "EA94BB3F-1054-4F03-AAB6-69C3B81B3CC3";
paths = (
{
closed = 1;
nodes = (
"616 -198 OFFCURVE",
"648 -127 OFFCURVE",
"648 -56 CURVE SMOOTH",
"648 715 LINE",
"630 715 LINE",
"630 136 LINE",
"117 715 LINE",
"62 715 LINE",
"62 0 LINE",
"80 0 LINE",
"80 581 LINE",
"554 46 LINE SMOOTH",
"590 5 OFFCURVE",
"607 -14 OFFCURVE",
"607 -71 CURVE SMOOTH",
"607 -122 OFFCURVE",
"594 -183 OFFCURVE",
"542 -183 CURVE SMOOTH",
"514 -183 OFFCURVE",
"479 -166 OFFCURVE",
"479 -150 CURVE SMOOTH",
"479 -142 OFFCURVE",
"486 -134 OFFCURVE",
"494 -126 CURVE SMOOTH",
"504 -116 OFFCURVE",
"515 -105 OFFCURVE",
"515 -89 CURVE SMOOTH",
"515 -64 OFFCURVE",
"489 -49 OFFCURVE",
"470 -49 CURVE SMOOTH",
"433 -49 OFFCURVE",
"428 -105 OFFCURVE",
"428 -143 CURVE",
"451 -173 OFFCURVE",
"490 -198 OFFCURVE",
"537 -198 CURVE SMOOTH"
);
}
);
width = 710;
}
);
leftKerningGroup = Eng;
rightKerningGroup = Eng;
unicode = 014A;
},
{
glyphname = Ntilde;
lastChange = "2015-09-30 05:09:58 +0000";
layers = (
{
background = {
paths = (
{
closed = 1;
nodes = (
"10 17 LINE",
"10 0 LINE",
"227 0 LINE",
"227 17 LINE",
"199 17 LINE SMOOTH",
"127 17 OFFCURVE",
"123 23 OFFCURVE",
"123 123 CURVE SMOOTH",
"123 620 LINE",
"615 -5 LINE",
"621 -5 LINE",
"621 567 LINE SMOOTH",
"621 650 OFFCURVE",
"621 650 OFFCURVE",
"690 650 CURVE SMOOTH",
"718 650 LINE",
"718 667 LINE",
"504 667 LINE",
"504 650 LINE",
"532 650 LINE SMOOTH",
"604 650 OFFCURVE",
"605 649 OFFCURVE",
"605 567 CURVE SMOOTH",
"605 175 LINE",
"216 667 LINE",
"10 667 LINE",
"10 650 LINE",
"90 650 LINE",
"107 638 LINE",
"107 123 LINE SMOOTH",
"107 50 OFFCURVE",
"107 48 OFFCURVE",
"98 33 CURVE",
"90 21 OFFCURVE",
"78 17 OFFCURVE",
"43 17 CURVE SMOOTH"
);
},
{
closed = 1;
nodes = (
"504 858 LINE",
"486 819 OFFCURVE",
"475 808 OFFCURVE",
"453 808 CURVE SMOOTH",
"436 808 OFFCURVE",
"419 813 OFFCURVE",
"378 832 CURVE",
"339 848 OFFCURVE",
"320 854 OFFCURVE",
"300 854 CURVE SMOOTH",
"254 854 OFFCURVE",
"220 815 OFFCURVE",
"205 747 CURVE",
"222 747 LINE",
"232 782 OFFCURVE",
"247 796 OFFCURVE",
"271 796 CURVE SMOOTH",
"282 796 OFFCURVE",
"300 791 OFFCURVE",
"318 783 CURVE SMOOTH",
"385 754 OFFCURVE",
"399 749 OFFCURVE",
"419 749 CURVE SMOOTH",
"466 749 OFFCURVE",
"501 786 OFFCURVE",
"521 858 CURVE"
);
}
);
};
components = (
{
name = N;
},
{
name = tildecomb;
transform = "{1, 0, 0, 1, 77, 258}";
}
);
layerId = "EA94BB3F-1054-4F03-AAB6-69C3B81B3CC3";
width = 710;
}
);
leftKerningGroup = H;
note = Ntilde;
rightKerningGroup = H;
unicode = 00D1;
},
{
glyphname = O;
lastChange = "2015-10-08 20:58:16 +0000";
layers = (
{
anchors = (
{
name = bottom;
position = "{405, 0}";
},
{
name = center;
position = "{405, 358}";
},
{
name = ogonek;
position = "{753, 10}";
},
{
name = top;
position = "{405, 715}";
},
{
name = topright;
position = "{820, 715}";
}
);
background = {
paths = (
{
closed = 1;
nodes = (
"269 730 OFFCURVE",
"188 692 OFFCURVE",
"120 626 CURVE SMOOTH",
"49 558 OFFCURVE",
"10 463 OFFCURVE",
"10 366 CURVE SMOOTH",
"10 280 OFFCURVE",
"33 203 OFFCURVE",
"78 137 CURVE SMOOTH",
"142 47 OFFCURVE",
"248 -13 OFFCURVE",
"345 -13 CURVE SMOOTH",
"423 -13 OFFCURVE",
"509 27 OFFCURVE",
"572 92 CURVE SMOOTH",
"641 163 OFFCURVE",
"677 255 OFFCURVE",
"677 356 CURVE SMOOTH",
"677 442 OFFCURVE",
"650 527 OFFCURVE",
"600 592 CURVE SMOOTH",
"536 674 OFFCURVE",
"434 730 OFFCURVE",
"344 730 CURVE SMOOTH"
);
},
{
closed = 1;
nodes = (
"482 714 OFFCURVE",
"559 586 OFFCURVE",
"559 360 CURVE SMOOTH",
"559 121 OFFCURVE",
"488 3 OFFCURVE",
"343 3 CURVE SMOOTH",
"200 3 OFFCURVE",
"129 122 OFFCURVE",
"129 359 CURVE SMOOTH",
"129 592 OFFCURVE",
"204 714 OFFCURVE",
"347 714 CURVE SMOOTH"
);
}
);
};
layerId = "EA94BB3F-1054-4F03-AAB6-69C3B81B3CC3";
paths = (
{
closed = 1;
nodes = (
"506 -13 OFFCURVE",
"603 21 OFFCURVE",
"676 91 CURVE SMOOTH",
"748 160 OFFCURVE",
"787 254 OFFCURVE",
"787 356 CURVE SMOOTH",
"787 463 OFFCURVE",
"744 558 OFFCURVE",
"676 622 CURVE SMOOTH",
"607 687 OFFCURVE",
"501 730 OFFCURVE",
"405 730 CURVE SMOOTH",
"309 730 OFFCURVE",
"203 685 OFFCURVE",
"135 622 CURVE SMOOTH",
"68 559 OFFCURVE",
"23 465 OFFCURVE",
"23 356 CURVE SMOOTH",
"23 254 OFFCURVE",
"62 160 OFFCURVE",
"135 91 CURVE SMOOTH",
"208 22 OFFCURVE",
"304 -13 OFFCURVE",
"405 -13 CURVE SMOOTH"
);
},
{
closed = 1;
nodes = (
"247 2 OFFCURVE",
"141 144 OFFCURVE",
"141 356 CURVE SMOOTH",
"141 571 OFFCURVE",
"247 715 OFFCURVE",
"405 715 CURVE SMOOTH",
"563 715 OFFCURVE",
"669 571 OFFCURVE",
"669 356 CURVE SMOOTH",
"669 144 OFFCURVE",
"563 2 OFFCURVE",
"405 2 CURVE SMOOTH"
);
}
);
width = 810;
}
);
leftKerningGroup = O;
note = O;
rightKerningGroup = O;
unicode = 004F;
},
{
glyphname = Odieresis;
lastChange = "2015-09-23 22:08:55 +0000";
layers = (
{
background = {
paths = (
{
closed = 1;
nodes = (
"279 681 OFFCURVE",
"203 646 OFFCURVE",
"140 584 CURVE SMOOTH",
"74 521 OFFCURVE",
"37 432 OFFCURVE",
"37 341 CURVE SMOOTH",
"37 261 OFFCURVE",
"59 189 OFFCURVE",
"101 128 CURVE SMOOTH",
"160 44 OFFCURVE",
"259 -12 OFFCURVE",
"350 -12 CURVE SMOOTH",
"423 -12 OFFCURVE",
"503 25 OFFCURVE",
"562 86 CURVE SMOOTH",
"626 152 OFFCURVE",
"660 238 OFFCURVE",
"660 332 CURVE SMOOTH",
"660 412 OFFCURVE",
"634 492 OFFCURVE",
"588 552 CURVE SMOOTH",
"528 629 OFFCURVE",
"433 681 OFFCURVE",
"349 681 CURVE SMOOTH"
);
},
{
closed = 1;
nodes = (
"478 666 OFFCURVE",
"549 547 OFFCURVE",
"549 336 CURVE SMOOTH",
"549 113 OFFCURVE",
"483 3 OFFCURVE",
"348 3 CURVE SMOOTH",
"215 3 OFFCURVE",
"148 114 OFFCURVE",
"148 335 CURVE SMOOTH",
"148 552 OFFCURVE",
"218 666 OFFCURVE",
"352 666 CURVE SMOOTH"
);
},
{
closed = 1;
nodes = (
"417 849 OFFCURVE",
"395 828 OFFCURVE",
"395 801 CURVE SMOOTH",
"395 775 OFFCURVE",
"417 753 OFFCURVE",
"443 753 CURVE SMOOTH",
"469 753 OFFCURVE",
"491 775 OFFCURVE",
"491 801 CURVE SMOOTH",
"491 827 OFFCURVE",
"469 849 OFFCURVE",
"444 849 CURVE SMOOTH"
);
},
{
closed = 1;
nodes = (
"229 849 OFFCURVE",
"207 828 OFFCURVE",
"207 801 CURVE SMOOTH",
"207 775 OFFCURVE",
"229 753 OFFCURVE",
"255 753 CURVE SMOOTH",
"281 753 OFFCURVE",
"303 775 OFFCURVE",
"303 801 CURVE SMOOTH",
"303 827 OFFCURVE",
"281 849 OFFCURVE",
"256 849 CURVE SMOOTH"
);
}
);
};
components = (
{
name = O;
},
{
name = dieresiscomb;
transform = "{1, 0, 0, 1, 155, 258}";
}
);
layerId = "EA94BB3F-1054-4F03-AAB6-69C3B81B3CC3";
width = 810;
}
);
leftKerningGroup = O;
note = Odieresis;
rightKerningGroup = O;
unicode = 00D6;
},
{
glyphname = Oslash;
lastChange = "2015-10-08 20:58:16 +0000";
layers = (
{
anchors = (
{
name = bottom;
position = "{435, 0}";
},
{
name = top;
position = "{435, 715}";
}
);
background = {
paths = (
{
closed = 1;
nodes = (
"552 678 LINE",
"537 688 LINE",
"501 626 LINE",
"468 645 OFFCURVE",
"463 648 OFFCURVE",
"456 651 CURVE",
"420 669 OFFCURVE",
"379 679 OFFCURVE",
"343 679 CURVE SMOOTH",
"270 679 OFFCURVE",
"185 637 OFFCURVE",
"125 570 CURVE SMOOTH",
"67 505 OFFCURVE",
"37 429 OFFCURVE",
"37 343 CURVE SMOOTH",
"37 272 OFFCURVE",
"59 189 OFFCURVE",
"92 138 CURVE SMOOTH",
"112 107 OFFCURVE",
"133 84 OFFCURVE",
"170 53 CURVE",
"132 -15 LINE",
"148 -24 LINE",
"186 41 LINE",
"242 3 OFFCURVE",
"287 -12 OFFCURVE",
"342 -12 CURVE SMOOTH",
"509 -12 OFFCURVE",
"655 148 OFFCURVE",
"655 331 CURVE SMOOTH",
"655 394 OFFCURVE",
"637 460 OFFCURVE",
"603 519 CURVE SMOOTH",
"581 556 OFFCURVE",
"563 577 OFFCURVE",
"516 617 CURVE"
);
},
{
closed = 1;
nodes = (
"493 577 LINE",
"527 520 OFFCURVE",
"544 436 OFFCURVE",
"544 324 CURVE SMOOTH",
"544 114 OFFCURVE",
"476 3 OFFCURVE",
"347 3 CURVE SMOOTH",
"287 3 OFFCURVE",
"242 27 OFFCURVE",
"207 78 CURVE"
);
},
{
closed = 1;
nodes = (
"195 95 LINE",
"160 159 OFFCURVE",
"145 230 OFFCURVE",
"145 338 CURVE SMOOTH",
"145 459 OFFCURVE",
"163 541 OFFCURVE",
"203 597 CURVE SMOOTH",
"233 640 OFFCURVE",
"287 666 OFFCURVE",
"345 666 CURVE SMOOTH",
"403 666 OFFCURVE",
"442 645 OFFCURVE",
"482 594 CURVE"
);
}
);
};
layerId = "EA94BB3F-1054-4F03-AAB6-69C3B81B3CC3";
paths = (
{
closed = 1;
nodes = (
"536 -13 OFFCURVE",
"633 22 OFFCURVE",
"706 92 CURVE SMOOTH",
"778 161 OFFCURVE",
"817 255 OFFCURVE",
"817 357 CURVE SMOOTH",
"817 464 OFFCURVE",
"774 559 OFFCURVE",
"706 623 CURVE SMOOTH",
"637 688 OFFCURVE",
"531 731 OFFCURVE",
"435 731 CURVE SMOOTH",
"339 731 OFFCURVE",
"233 686 OFFCURVE",
"165 623 CURVE SMOOTH",
"98 560 OFFCURVE",
"53 466 OFFCURVE",
"53 357 CURVE SMOOTH",
"53 255 OFFCURVE",
"92 161 OFFCURVE",
"165 92 CURVE SMOOTH",
"238 23 OFFCURVE",
"334 -13 OFFCURVE",
"435 -13 CURVE SMOOTH"
);
},
{
closed = 1;
nodes = (
"277 2 OFFCURVE",
"171 145 OFFCURVE",
"171 357 CURVE SMOOTH",
"171 572 OFFCURVE",
"277 716 OFFCURVE",
"435 716 CURVE SMOOTH",
"593 716 OFFCURVE",
"699 572 OFFCURVE",
"699 357 CURVE SMOOTH",
"699 145 OFFCURVE",
"593 2 OFFCURVE",
"435 2 CURVE SMOOTH"
);
},
{
closed = 1;
nodes = (
"669 732 LINE",
"654 741 LINE",
"201 -14 LINE",
"216 -23 LINE"
);
}
);
width = 870;
},
{
associatedMasterId = "EA94BB3F-1054-4F03-AAB6-69C3B81B3CC3";
background = {
paths = (
{
closed = 1;
nodes = (
"552 678 LINE",
"537 688 LINE",
"501 626 LINE",
"468 645 OFFCURVE",
"463 648 OFFCURVE",
"456 651 CURVE",
"420 669 OFFCURVE",
"379 679 OFFCURVE",
"343 679 CURVE SMOOTH",
"270 679 OFFCURVE",
"185 637 OFFCURVE",
"125 570 CURVE SMOOTH",
"67 505 OFFCURVE",
"37 429 OFFCURVE",
"37 343 CURVE SMOOTH",
"37 272 OFFCURVE",
"59 189 OFFCURVE",
"92 138 CURVE SMOOTH",
"112 107 OFFCURVE",
"133 84 OFFCURVE",
"170 53 CURVE",
"132 -15 LINE",
"148 -24 LINE",
"186 41 LINE",
"242 3 OFFCURVE",
"287 -12 OFFCURVE",
"342 -12 CURVE SMOOTH",
"509 -12 OFFCURVE",
"655 148 OFFCURVE",
"655 331 CURVE SMOOTH",
"655 394 OFFCURVE",
"637 460 OFFCURVE",
"603 519 CURVE SMOOTH",
"581 556 OFFCURVE",
"563 577 OFFCURVE",
"516 617 CURVE"
);
},
{
closed = 1;
nodes = (
"493 577 LINE",
"527 520 OFFCURVE",
"544 436 OFFCURVE",
"544 324 CURVE SMOOTH",
"544 114 OFFCURVE",
"476 3 OFFCURVE",
"347 3 CURVE SMOOTH",
"287 3 OFFCURVE",
"242 27 OFFCURVE",
"207 78 CURVE"
);
},
{
closed = 1;
nodes = (
"195 95 LINE",
"160 159 OFFCURVE",
"145 230 OFFCURVE",
"145 338 CURVE SMOOTH",
"145 459 OFFCURVE",
"163 541 OFFCURVE",
"203 597 CURVE SMOOTH",
"233 640 OFFCURVE",
"287 666 OFFCURVE",
"345 666 CURVE SMOOTH",
"403 666 OFFCURVE",
"442 645 OFFCURVE",
"482 594 CURVE"
);
}
);
};
layerId = "7CBF5435-50A9-48C0-B687-F427D0BF7C11";
name = "Regular Sep 22 15, 13:24";
paths = (
{
closed = 1;
nodes = (
"536 -13 OFFCURVE",
"633 21 OFFCURVE",
"706 91 CURVE SMOOTH",
"778 160 OFFCURVE",
"817 254 OFFCURVE",
"817 356 CURVE SMOOTH",
"817 463 OFFCURVE",
"774 558 OFFCURVE",
"706 622 CURVE SMOOTH",
"637 687 OFFCURVE",
"531 730 OFFCURVE",
"435 730 CURVE SMOOTH",
"339 730 OFFCURVE",
"233 685 OFFCURVE",
"165 622 CURVE SMOOTH",
"98 559 OFFCURVE",
"53 465 OFFCURVE",
"53 356 CURVE SMOOTH",
"53 254 OFFCURVE",
"92 160 OFFCURVE",
"165 91 CURVE SMOOTH",
"238 22 OFFCURVE",
"334 -13 OFFCURVE",
"435 -13 CURVE SMOOTH"
);
},
{
closed = 1;
nodes = (
"277 2 OFFCURVE",
"171 144 OFFCURVE",
"171 356 CURVE SMOOTH",
"171 571 OFFCURVE",
"277 715 OFFCURVE",
"435 715 CURVE SMOOTH",
"593 715 OFFCURVE",
"699 571 OFFCURVE",
"699 356 CURVE SMOOTH",
"699 144 OFFCURVE",
"593 2 OFFCURVE",
"435 2 CURVE SMOOTH"
);
}
);
width = 870;
}
);
leftKerningGroup = O;
note = Oslash;
rightKerningGroup = O;
unicode = 00D8;
},
{
glyphname = OE;
lastChange = "2015-10-08 20:58:16 +0000";
layers = (
{
background = {
paths = (
{
closed = 1;
nodes = (
"870 197 LINE",
"853 197 LINE",
"854 142 OFFCURVE",
"842 92 OFFCURVE",
"824 69 CURVE SMOOTH",
"795 33 OFFCURVE",
"732 17 OFFCURVE",
"613 17 CURVE SMOOTH",
"532 17 LINE",
"532 330 LINE",
"564 330 LINE SMOOTH",
"664 330 OFFCURVE",
"687 311 OFFCURVE",
"687 224 CURVE SMOOTH",
"687 215 LINE",
"704 215 LINE",
"704 468 LINE",
"687 468 LINE",
"687 461 LINE SMOOTH",
"687 372 OFFCURVE",
"660 347 OFFCURVE",
"564 347 CURVE SMOOTH",
"532 347 LINE",
"532 650 LINE",
"622 650 LINE SMOOTH",
"716 650 OFFCURVE",
"770 632 OFFCURVE",
"791 594 CURVE SMOOTH",
"802 574 OFFCURVE",
"814 531 OFFCURVE",
"814 513 CURVE SMOOTH",
"814 505 LINE",
"831 505 LINE",
"816 667 LINE",
"458 667 LINE SMOOTH",
"456 667 OFFCURVE",
"438 669 OFFCURVE",
"412 672 CURVE SMOOTH",
"395 674 OFFCURVE",
"334 677 OFFCURVE",
"315 677 CURVE SMOOTH",
"163 677 OFFCURVE",
"37 522 OFFCURVE",
"37 336 CURVE SMOOTH",
"37 253 OFFCURVE",
"64 171 OFFCURVE",
"111 106 CURVE SMOOTH",
"166 30 OFFCURVE",
"238 -9 OFFCURVE",
"321 -9 CURVE SMOOTH",
"341 -9 OFFCURVE",
"363 -7 OFFCURVE",
"386 -5 CURVE",
"410 -2 OFFCURVE",
"427 0 OFFCURVE",
"436 0 CURVE SMOOTH",
"870 0 LINE"
);
},
{
closed = 1;
nodes = (
"435 654 LINE",
"435 17 LINE",
"391 11 LINE SMOOTH",
"363 7 OFFCURVE",
"336 5 OFFCURVE",
"325 5 CURVE SMOOTH",
"273 5 OFFCURVE",
"231 29 OFFCURVE",
"201 76 CURVE SMOOTH",
"164 133 OFFCURVE",
"149 208 OFFCURVE",
"149 332 CURVE SMOOTH",
"149 564 OFFCURVE",
"203 663 OFFCURVE",
"328 663 CURVE SMOOTH",
"348 663 OFFCURVE",
"359 662 OFFCURVE",
"402 657 CURVE SMOOTH"
);
}
);
};
layerId = "EA94BB3F-1054-4F03-AAB6-69C3B81B3CC3";
paths = (
{
closed = 1;
nodes = (
"536 -13 OFFCURVE",
"633 21 OFFCURVE",
"706 91 CURVE SMOOTH",
"733 117 OFFCURVE",
"741 146 OFFCURVE",
"741 177 CURVE SMOOTH",
"741 231 OFFCURVE",
"717 292 OFFCURVE",
"717 356 CURVE SMOOTH",
"717 423 OFFCURVE",
"739 485 OFFCURVE",
"739 538 CURVE SMOOTH",
"739 570 OFFCURVE",
"731 598 OFFCURVE",
"706 622 CURVE SMOOTH",
"637 687 OFFCURVE",
"531 730 OFFCURVE",
"435 730 CURVE SMOOTH",
"339 730 OFFCURVE",
"233 685 OFFCURVE",
"165 622 CURVE SMOOTH",
"98 559 OFFCURVE",
"53 465 OFFCURVE",
"53 356 CURVE SMOOTH",
"53 254 OFFCURVE",
"92 160 OFFCURVE",
"165 91 CURVE SMOOTH",
"238 22 OFFCURVE",
"334 -13 OFFCURVE",
"435 -13 CURVE SMOOTH"
);
},
{
closed = 1;
nodes = (
"277 2 OFFCURVE",
"171 144 OFFCURVE",
"171 356 CURVE SMOOTH",
"171 571 OFFCURVE",
"277 715 OFFCURVE",
"435 715 CURVE SMOOTH",
"593 715 OFFCURVE",
"699 571 OFFCURVE",
"699 356 CURVE SMOOTH",
"699 144 OFFCURVE",
"593 2 OFFCURVE",
"435 2 CURVE SMOOTH"
);
},
{
closed = 1;
nodes = (
"1124 0 LINE",
"1124 18 LINE",
"802 18 LINE",
"802 355 LINE",
"1124 355 LINE",
"1124 373 LINE",
"802 373 LINE",
"802 697 LINE",
"1124 697 LINE",
"1124 715 LINE",
"699 715 LINE",
"699 0 LINE"
);
}
);
width = 1153;
}
);
leftKerningGroup = O;
note = OE;
rightKerningGroup = E;
unicode = 0152;
},
{
glyphname = P;
lastChange = "2015-10-08 20:58:20 +0000";
layers = (
{
background = {
paths = (
{
closed = 1;
nodes = (
"212 313 LINE",
"248 299 OFFCURVE",
"276 294 OFFCURVE",
"320 294 CURVE SMOOTH",
"476 294 OFFCURVE",
"582 371 OFFCURVE",
"582 483 CURVE SMOOTH",
"582 555 OFFCURVE",
"544 608 OFFCURVE",
"469 639 CURVE SMOOTH",
"420 660 OFFCURVE",
"376 667 OFFCURVE",
"295 667 CURVE SMOOTH",
"17 667 LINE",
"17 650 LINE",
"114 650 LINE",
"114 17 LINE",
"17 17 LINE",
"17 0 LINE",
"314 0 LINE",
"314 17 LINE",
"212 17 LINE"
);
},
{
closed = 1;
nodes = (
"212 650 LINE",
"231 652 OFFCURVE",
"241 652 OFFCURVE",
"254 652 CURVE SMOOTH",
"317 652 OFFCURVE",
"372 642 OFFCURVE",
"401 626 CURVE SMOOTH",
"452 597 OFFCURVE",
"478 545 OFFCURVE",
"478 472 CURVE SMOOTH",
"478 424 OFFCURVE",
"468 394 OFFCURVE",
"443 367 CURVE SMOOTH",
"411 331 OFFCURVE",
"359 311 OFFCURVE",
"299 311 CURVE SMOOTH",
"264 311 OFFCURVE",
"241 317 OFFCURVE",
"212 332 CURVE"
);
}
);
};
layerId = "EA94BB3F-1054-4F03-AAB6-69C3B81B3CC3";
paths = (
{
closed = 1;
nodes = (
"165 0 LINE",
"165 321 LINE",
"236 321 LINE SMOOTH",
"341 321 OFFCURVE",
"379 327 OFFCURVE",
"416 357 CURVE SMOOTH",
"459 392 OFFCURVE",
"489 449 OFFCURVE",
"489 518 CURVE SMOOTH",
"489 587 OFFCURVE",
"460 645 OFFCURVE",
"416 679 CURVE SMOOTH",
"382 705 OFFCURVE",
"341 715 OFFCURVE",
"236 715 CURVE SMOOTH",
"62 715 LINE",
"62 0 LINE"
);
},
{
closed = 1;
nodes = (
"165 697 LINE",
"212 697 LINE SMOOTH",
"355 697 OFFCURVE",
"380 604 OFFCURVE",
"380 513 CURVE SMOOTH",
"380 428 OFFCURVE",
"358 339 OFFCURVE",
"212 339 CURVE SMOOTH",
"165 339 LINE"
);
}
);
width = 508;
}
);
leftKerningGroup = H;
note = P;
rightKerningGroup = P;
unicode = 0050;
},
{
glyphname = Thorn;
lastChange = "2015-10-08 20:58:20 +0000";
layers = (
{
background = {
paths = (
{
closed = 1;
nodes = (
"227 235 LINE",
"266 221 OFFCURVE",
"296 215 OFFCURVE",
"343 215 CURVE SMOOTH",
"510 215 OFFCURVE",
"624 298 OFFCURVE",
"624 418 CURVE SMOOTH",
"624 495 OFFCURVE",
"583 551 OFFCURVE",
"503 585 CURVE SMOOTH",
"450 607 OFFCURVE",
"403 614 OFFCURVE",
"316 614 CURVE SMOOTH",
"227 614 LINE",
"227 697 LINE",
"336 697 LINE",
"336 715 LINE",
"18 715 LINE",
"18 697 LINE",
"122 697 LINE",
"122 18 LINE",
"18 18 LINE",
"18 0 LINE",
"337 0 LINE",
"337 18 LINE",
"227 18 LINE"
);
},
{
closed = 1;
nodes = (
"227 596 LINE",
"248 598 OFFCURVE",
"257 598 OFFCURVE",
"272 598 CURVE SMOOTH",
"341 598 OFFCURVE",
"398 587 OFFCURVE",
"430 570 CURVE SMOOTH",
"485 539 OFFCURVE",
"512 485 OFFCURVE",
"512 406 CURVE SMOOTH",
"512 355 OFFCURVE",
"502 322 OFFCURVE",
"475 293 CURVE SMOOTH",
"441 255 OFFCURVE",
"385 234 OFFCURVE",
"321 234 CURVE SMOOTH",
"283 234 OFFCURVE",
"258 239 OFFCURVE",
"227 255 CURVE"
);
}
);
};
layerId = "EA94BB3F-1054-4F03-AAB6-69C3B81B3CC3";
paths = (
{
closed = 1;
nodes = (
"165 0 LINE",
"165 205 LINE",
"236 205 LINE SMOOTH",
"341 205 OFFCURVE",
"379 211 OFFCURVE",
"416 241 CURVE SMOOTH",
"459 276 OFFCURVE",
"489 333 OFFCURVE",
"489 402 CURVE SMOOTH",
"489 471 OFFCURVE",
"460 529 OFFCURVE",
"416 563 CURVE SMOOTH",
"382 589 OFFCURVE",
"341 599 OFFCURVE",
"236 599 CURVE SMOOTH",
"165 599 LINE",
"165 715 LINE",
"62 715 LINE",
"62 0 LINE"
);
},
{
closed = 1;
nodes = (
"165 581 LINE",
"212 581 LINE SMOOTH",
"355 581 OFFCURVE",
"380 488 OFFCURVE",
"380 397 CURVE SMOOTH",
"380 312 OFFCURVE",
"358 223 OFFCURVE",
"212 223 CURVE SMOOTH",
"165 223 LINE"
);
}
);
width = 508;
}
);
leftKerningGroup = H;
note = Thorn;
rightKerningGroup = Thorn;
unicode = 00DE;
},
{
glyphname = Q;
lastChange = "2019-09-30 18:07:04 +0000";
layers = (
{
background = {
paths = (
{
closed = 1;
nodes = (
"488 -9 LINE",
"540 4 OFFCURVE",
"569 17 OFFCURVE",
"605 42 CURVE SMOOTH",
"710 110 OFFCURVE",
"771 227 OFFCURVE",
"771 356 CURVE SMOOTH",
"771 442 OFFCURVE",
"744 526 OFFCURVE",
"694 592 CURVE SMOOTH",
"631 673 OFFCURVE",
"527 730 OFFCURVE",
"438 730 CURVE SMOOTH",
"363 730 OFFCURVE",
"278 691 OFFCURVE",
"214 626 CURVE SMOOTH",
"141 553 OFFCURVE",
"104 464 OFFCURVE",
"104 361 CURVE SMOOTH",
"104 182 OFFCURVE",
"216 33 OFFCURVE",
"386 -9 CURVE",
"386 -94 LINE SMOOTH",
"386 -129 OFFCURVE",
"395 -151 OFFCURVE",
"417 -168 CURVE SMOOTH",
"448 -194 OFFCURVE",
"535 -214 OFFCURVE",
"612 -214 CURVE SMOOTH",
"631 -214 OFFCURVE",
"646 -214 OFFCURVE",
"674 -212 CURVE",
"674 -194 LINE",
"650 -196 OFFCURVE",
"630 -197 OFFCURVE",
"615 -197 CURVE SMOOTH",
"573 -197 OFFCURVE",
"535 -189 OFFCURVE",
"512 -174 CURVE SMOOTH",
"494 -162 OFFCURVE",
"488 -146 OFFCURVE",
"488 -110 CURVE SMOOTH"
);
},
{
closed = 1;
nodes = (
"576 714 OFFCURVE",
"653 586 OFFCURVE",
"653 360 CURVE SMOOTH",
"653 121 OFFCURVE",
"582 3 OFFCURVE",
"437 3 CURVE SMOOTH",
"294 3 OFFCURVE",
"223 122 OFFCURVE",
"223 359 CURVE SMOOTH",
"223 592 OFFCURVE",
"298 714 OFFCURVE",
"441 714 CURVE SMOOTH"
);
}
);
};
layerId = "EA94BB3F-1054-4F03-AAB6-69C3B81B3CC3";
paths = (
{
closed = 1;
nodes = (
"528 -17 OFFCURVE",
"635 24 OFFCURVE",
"706 91 CURVE SMOOTH",
"779 160 OFFCURVE",
"817 256 OFFCURVE",
"817 356 CURVE SMOOTH",
"817 463 OFFCURVE",
"774 558 OFFCURVE",
"706 622 CURVE SMOOTH",
"637 687 OFFCURVE",
"531 730 OFFCURVE",
"435 730 CURVE SMOOTH",
"339 730 OFFCURVE",
"233 685 OFFCURVE",
"165 622 CURVE SMOOTH",
"98 559 OFFCURVE",
"53 466 OFFCURVE",
"53 356 CURVE SMOOTH",
"53 253 OFFCURVE",
"92 160 OFFCURVE",
"165 91 CURVE SMOOTH",
"236 25 OFFCURVE",
"328 -12 OFFCURVE",
"426 -12 CURVE"
);
},
{
closed = 1;
nodes = (
"643 -204 OFFCURVE",
"664 -196 OFFCURVE",
"664 -175 CURVE",
"609 -175 LINE SMOOTH",
"530 -175 OFFCURVE",
"487 -136 OFFCURVE",
"487 -98 CURVE SMOOTH",
"487 6 LINE",
"386 6 LINE",
"386 -91 LINE SMOOTH",
"386 -143 OFFCURVE",
"420 -166 OFFCURVE",
"463 -181 CURVE SMOOTH",
"498 -193 OFFCURVE",
"552 -204 OFFCURVE",
"601 -204 CURVE SMOOTH"
);
},
{
closed = 1;
nodes = (
"277 2 OFFCURVE",
"171 144 OFFCURVE",
"171 356 CURVE SMOOTH",
"171 571 OFFCURVE",
"277 715 OFFCURVE",
"435 715 CURVE SMOOTH",
"593 715 OFFCURVE",
"699 571 OFFCURVE",
"699 356 CURVE SMOOTH",
"699 144 OFFCURVE",
"593 2 OFFCURVE",
"435 2 CURVE SMOOTH"
);
}
);
width = 870;
}
);
leftKerningGroup = O;
note = Q;
rightKerningGroup = O;
unicode = 0051;
},
{
glyphname = R;
lastChange = "2015-10-08 20:58:16 +0000";
layers = (
{
anchors = (
{
name = bottom;
position = "{303, 0}";
},
{
name = top;
position = "{293, 715}";
}
);
background = {
paths = (
{
closed = 1;
nodes = (
"212 340 LINE",
"251 340 LINE SMOOTH",
"308 340 OFFCURVE",
"357 333 OFFCURVE",
"381 321 CURVE SMOOTH",
"419 303 OFFCURVE",
"435 276 OFFCURVE",
"441 220 CURVE SMOOTH",
"452 125 LINE SMOOTH",
"458 67 OFFCURVE",
"463 53 OFFCURVE",
"485 30 CURVE",
"508 4 OFFCURVE",
"536 -7 OFFCURVE",
"580 -7 CURVE SMOOTH",
"610 -7 OFFCURVE",
"633 -3 OFFCURVE",
"659 7 CURVE",
"653 21 LINE",
"634 15 OFFCURVE",
"625 13 OFFCURVE",
"613 13 CURVE SMOOTH",
"582 13 OFFCURVE",
"568 34 OFFCURVE",
"563 89 CURVE SMOOTH",
"556 161 LINE SMOOTH",
"546 292 OFFCURVE",
"507 331 OFFCURVE",
"374 348 CURVE",
"436 355 OFFCURVE",
"469 364 OFFCURVE",
"501 382 CURVE SMOOTH",
"547 409 OFFCURVE",
"574 455 OFFCURVE",
"574 507 CURVE SMOOTH",
"574 547 OFFCURVE",
"560 584 OFFCURVE",
"533 612 CURVE SMOOTH",
"497 650 OFFCURVE",
"445 667 OFFCURVE",
"363 667 CURVE SMOOTH",
"17 667 LINE",
"17 650 LINE",
"114 650 LINE",
"114 17 LINE",
"17 17 LINE",
"17 0 LINE",
"315 0 LINE",
"315 17 LINE",
"212 17 LINE"
);
},
{
closed = 1;
nodes = (
"212 650 LINE",
"248 650 LINE SMOOTH",
"350 650 OFFCURVE",
"384 644 OFFCURVE",
"417 619 CURVE",
"450 596 OFFCURVE",
"471 549 OFFCURVE",
"471 501 CURVE SMOOTH",
"471 460 OFFCURVE",
"455 422 OFFCURVE",
"425 397 CURVE",
"393 368 OFFCURVE",
"338 355 OFFCURVE",
"251 355 CURVE SMOOTH",
"212 355 LINE"
);
}
);
};
layerId = "EA94BB3F-1054-4F03-AAB6-69C3B81B3CC3";
paths = (
{
closed = 1;
nodes = (
"165 0 LINE",
"165 370 LINE",
"233 370 LINE SMOOTH",
"379 370 OFFCURVE",
"358 306 OFFCURVE",
"432 0 CURVE",
"543 0 LINE",
"467 280 OFFCURVE",
"496 380 OFFCURVE",
"345 380 CURVE",
"403 379 OFFCURVE",
"428 394 OFFCURVE",
"444 407 CURVE SMOOTH",
"482 438 OFFCURVE",
"510 481 OFFCURVE",
"510 542 CURVE SMOOTH",
"510 656 OFFCURVE",
"413 715 OFFCURVE",
"258 715 CURVE SMOOTH",
"62 715 LINE",
"62 0 LINE"
);
},
{
closed = 1;
nodes = (
"165 697 LINE",
"258 697 LINE SMOOTH",
"386 697 OFFCURVE",
"401 609 OFFCURVE",
"401 537 CURVE SMOOTH",
"401 452 OFFCURVE",
"379 388 OFFCURVE",
"258 388 CURVE SMOOTH",
"165 388 LINE"
);
}
);
width = 605;
}
);
leftKerningGroup = H;
note = R;
rightKerningGroup = R;
unicode = 0052;
},
{
glyphname = S;
lastChange = "2015-10-08 20:58:16 +0000";
layers = (
{
anchors = (
{
name = bottom;
position = "{315, 0}";
},
{
name = top;
position = "{301, 715}";
}
);
background = {
paths = (
{
closed = 1;
nodes = (
"67 255 LINE",
"67 -8 LINE",
"85 -8 LINE",
"89 28 OFFCURVE",
"95 40 OFFCURVE",
"113 40 CURVE SMOOTH",
"123 40 OFFCURVE",
"135 36 OFFCURVE",
"153 30 CURVE",
"186 16 LINE SMOOTH",
"245 -6 OFFCURVE",
"278 -14 OFFCURVE",
"330 -14 CURVE SMOOTH",
"466 -14 OFFCURVE",
"560 79 OFFCURVE",
"560 215 CURVE SMOOTH",
"560 282 OFFCURVE",
"537 337 OFFCURVE",
"496 369 CURVE SMOOTH",
"463 393 OFFCURVE",
"415 409 OFFCURVE",
"345 420 CURVE SMOOTH",
"291 428 LINE SMOOTH",
"164 446 OFFCURVE",
"116 482 OFFCURVE",
"116 564 CURVE SMOOTH",
"116 653 OFFCURVE",
"183 714 OFFCURVE",
"280 714 CURVE SMOOTH",
"351 714 OFFCURVE",
"421 681 OFFCURVE",
"457 628 CURVE SMOOTH",
"485 589 OFFCURVE",
"498 550 OFFCURVE",
"501 492 CURVE",
"519 492 LINE",
"519 706 LINE",
"501 706 LINE",
"499 675 OFFCURVE",
"492 664 OFFCURVE",
"476 665 CURVE",
"469 665 OFFCURVE",
"463 667 OFFCURVE",
"455 671 CURVE SMOOTH",
"439 681 LINE SMOOTH",
"362 725 OFFCURVE",
"342 731 OFFCURVE",
"288 731 CURVE SMOOTH",
"160 731 OFFCURVE",
"72 643 OFFCURVE",
"72 517 CURVE SMOOTH",
"72 459 OFFCURVE",
"92 405 OFFCURVE",
"123 374 CURVE SMOOTH",
"151 346 OFFCURVE",
"197 329 OFFCURVE",
"275 317 CURVE SMOOTH",
"331 308 LINE SMOOTH",
"404 297 OFFCURVE",
"439 285 OFFCURVE",
"468 262 CURVE",
"498 239 OFFCURVE",
"513 207 OFFCURVE",
"513 167 CURVE SMOOTH",
"513 70 OFFCURVE",
"438 3 OFFCURVE",
"329 3 CURVE SMOOTH",
"242 3 OFFCURVE",
"158 48 OFFCURVE",
"119 118 CURVE SMOOTH",
"98 153 OFFCURVE",
"91 187 OFFCURVE",
"85 255 CURVE"
);
}
);
};
layerId = "EA94BB3F-1054-4F03-AAB6-69C3B81B3CC3";
paths = (
{
closed = 1;
nodes = (
"476 -13 OFFCURVE",
"584 111 OFFCURVE",
"584 230 CURVE SMOOTH",
"584 360 OFFCURVE",
"454 424 OFFCURVE",
"332 445 CURVE SMOOTH",
"238 461 OFFCURVE",
"151 502 OFFCURVE",
"151 582 CURVE SMOOTH",
"151 650 OFFCURVE",
"214 712 OFFCURVE",
"291 712 CURVE SMOOTH",
"375 712 OFFCURVE",
"436 638 OFFCURVE",
"442 560 CURVE",
"547 560 LINE",
"521 684 OFFCURVE",
"412 732 OFFCURVE",
"300 732 CURVE SMOOTH",
"123 732 OFFCURVE",
"67 612 OFFCURVE",
"67 522 CURVE SMOOTH",
"67 388 OFFCURVE",
"194 354 OFFCURVE",
"296 329 CURVE SMOOTH",
"378 309 OFFCURVE",
"497 281 OFFCURVE",
"497 175 CURVE SMOOTH",
"497 82 OFFCURVE",
"406 7 OFFCURVE",
"326 7 CURVE SMOOTH",
"234 7 OFFCURVE",
"168 106 OFFCURVE",
"157 210 CURVE",
"45 210 LINE",
"64 27 OFFCURVE",
"229 -13 OFFCURVE",
"318 -13 CURVE SMOOTH"
);
}
);
width = 614;
},
{
associatedMasterId = "EA94BB3F-1054-4F03-AAB6-69C3B81B3CC3";
background = {
paths = (
{
closed = 1;
nodes = (
"61 255 LINE",
"61 -8 LINE",
"79 -8 LINE",
"83 28 OFFCURVE",
"89 40 OFFCURVE",
"107 40 CURVE SMOOTH",
"117 40 OFFCURVE",
"129 36 OFFCURVE",
"147 30 CURVE",
"180 16 LINE SMOOTH",
"239 -6 OFFCURVE",
"272 -14 OFFCURVE",
"324 -14 CURVE SMOOTH",
"460 -14 OFFCURVE",
"554 79 OFFCURVE",
"554 215 CURVE SMOOTH",
"554 282 OFFCURVE",
"531 337 OFFCURVE",
"490 369 CURVE SMOOTH",
"457 393 OFFCURVE",
"409 409 OFFCURVE",
"339 420 CURVE SMOOTH",
"285 428 LINE SMOOTH",
"158 446 OFFCURVE",
"110 482 OFFCURVE",
"110 564 CURVE SMOOTH",
"110 653 OFFCURVE",
"177 714 OFFCURVE",
"274 714 CURVE SMOOTH",
"345 714 OFFCURVE",
"415 681 OFFCURVE",
"451 628 CURVE SMOOTH",
"479 589 OFFCURVE",
"492 550 OFFCURVE",
"495 492 CURVE",
"513 492 LINE",
"513 706 LINE",
"495 706 LINE",
"493 675 OFFCURVE",
"486 664 OFFCURVE",
"470 665 CURVE",
"463 665 OFFCURVE",
"457 667 OFFCURVE",
"449 671 CURVE SMOOTH",
"433 681 LINE SMOOTH",
"356 725 OFFCURVE",
"336 731 OFFCURVE",
"282 731 CURVE SMOOTH",
"154 731 OFFCURVE",
"66 643 OFFCURVE",
"66 517 CURVE SMOOTH",
"66 459 OFFCURVE",
"86 405 OFFCURVE",
"117 374 CURVE SMOOTH",
"145 346 OFFCURVE",
"191 329 OFFCURVE",
"269 317 CURVE SMOOTH",
"325 308 LINE SMOOTH",
"398 297 OFFCURVE",
"433 285 OFFCURVE",
"462 262 CURVE",
"492 239 OFFCURVE",
"507 207 OFFCURVE",
"507 167 CURVE SMOOTH",
"507 70 OFFCURVE",
"432 3 OFFCURVE",
"323 3 CURVE SMOOTH",
"236 3 OFFCURVE",
"152 48 OFFCURVE",
"113 118 CURVE SMOOTH",
"92 153 OFFCURVE",
"85 187 OFFCURVE",
"79 255 CURVE"
);
}
);
};
layerId = "F316E7BC-0223-4E5C-A467-02236A855F32";
name = "Regular Sep 21 15, 01:08";
paths = (
{
closed = 1;
nodes = (
"466 -13 OFFCURVE",
"546 114 OFFCURVE",
"546 232 CURVE SMOOTH",
"546 378 OFFCURVE",
"425 419 OFFCURVE",
"332 445 CURVE SMOOTH",
"212 479 OFFCURVE",
"133 485 OFFCURVE",
"133 570 CURVE SMOOTH",
"133 644 OFFCURVE",
"194 710 OFFCURVE",
"270 710 CURVE SMOOTH",
"349 710 OFFCURVE",
"405 637 OFFCURVE",
"425 560 CURVE",
"520 560 LINE",
"515 674 OFFCURVE",
"387 732 OFFCURVE",
"280 732 CURVE SMOOTH",
"131 732 OFFCURVE",
"67 621 OFFCURVE",
"67 518 CURVE SMOOTH",
"67 447 OFFCURVE",
"99 362 OFFCURVE",
"269 331 CURVE SMOOTH",
"353 316 OFFCURVE",
"479 276 OFFCURVE",
"479 184 CURVE SMOOTH",
"479 107 OFFCURVE",
"392 11 OFFCURVE",
"313 11 CURVE SMOOTH",
"233 11 OFFCURVE",
"138 106 OFFCURVE",
"128 210 CURVE",
"29 210 LINE",
"44 37 OFFCURVE",
"199 -13 OFFCURVE",
"302 -13 CURVE SMOOTH"
);
}
);
width = 784;
}
);
leftKerningGroup = S;
note = S;
rightKerningGroup = S;
unicode = 0053;
},
{
glyphname = Scedilla;
lastChange = "2015-09-23 22:08:55 +0000";
layers = (
{
background = {
paths = (
{
closed = 1;
nodes = (
"57 -7 LINE",
"74 -7 LINE",
"77 26 OFFCURVE",
"83 37 OFFCURVE",
"100 37 CURVE SMOOTH",
"109 37 OFFCURVE",
"120 34 OFFCURVE",
"137 28 CURVE",
"217 -4 OFFCURVE",
"224 -6 OFFCURVE",
"275 -12 CURVE",
"219 -108 LINE",
"227 -115 LINE",
"246 -105 OFFCURVE",
"251 -103 OFFCURVE",
"264 -103 CURVE SMOOTH",
"293 -103 OFFCURVE",
"313 -121 OFFCURVE",
"313 -146 CURVE SMOOTH",
"313 -175 OFFCURVE",
"289 -196 OFFCURVE",
"256 -196 CURVE SMOOTH",
"232 -196 OFFCURVE",
"203 -190 OFFCURVE",
"184 -180 CURVE",
"177 -194 LINE",
"207 -208 OFFCURVE",
"240 -216 OFFCURVE",
"270 -216 CURVE SMOOTH",
"332 -216 OFFCURVE",
"378 -186 OFFCURVE",
"378 -145 CURVE SMOOTH",
"378 -110 OFFCURVE",
"346 -85 OFFCURVE",
"300 -85 CURVE SMOOTH",
"281 -85 OFFCURVE",
"267 -88 OFFCURVE",
"245 -96 CURVE",
"293 -13 LINE",
"304 -13 LINE SMOOTH",
"429 -13 OFFCURVE",
"517 75 OFFCURVE",
"517 200 CURVE SMOOTH",
"517 263 OFFCURVE",
"496 314 OFFCURVE",
"457 344 CURVE SMOOTH",
"426 367 OFFCURVE",
"382 382 OFFCURVE",
"316 392 CURVE SMOOTH",
"266 399 LINE SMOOTH",
"147 416 OFFCURVE",
"103 450 OFFCURVE",
"103 526 CURVE SMOOTH",
"103 609 OFFCURVE",
"165 666 OFFCURVE",
"256 666 CURVE SMOOTH",
"322 666 OFFCURVE",
"387 635 OFFCURVE",
"421 586 CURVE SMOOTH",
"447 549 OFFCURVE",
"459 513 OFFCURVE",
"462 459 CURVE",
"479 459 LINE",
"479 659 LINE",
"462 659 LINE",
"460 630 OFFCURVE",
"453 619 OFFCURVE",
"438 620 CURVE",
"432 620 OFFCURVE",
"426 622 OFFCURVE",
"419 626 CURVE SMOOTH",
"404 635 LINE SMOOTH",
"332 676 OFFCURVE",
"313 682 OFFCURVE",
"263 682 CURVE SMOOTH",
"144 682 OFFCURVE",
"62 600 OFFCURVE",
"62 482 CURVE SMOOTH",
"62 428 OFFCURVE",
"80 378 OFFCURVE",
"109 349 CURVE SMOOTH",
"135 323 OFFCURVE",
"178 307 OFFCURVE",
"251 296 CURVE SMOOTH",
"303 287 LINE SMOOTH",
"371 277 OFFCURVE",
"404 266 OFFCURVE",
"431 244 CURVE",
"459 223 OFFCURVE",
"473 193 OFFCURVE",
"473 156 CURVE SMOOTH",
"473 65 OFFCURVE",
"403 3 OFFCURVE",
"301 3 CURVE SMOOTH",
"220 3 OFFCURVE",
"142 45 OFFCURVE",
"105 110 CURVE SMOOTH",
"86 143 OFFCURVE",
"79 174 OFFCURVE",
"74 238 CURVE",
"57 238 LINE"
);
}
);
};
components = (
{
name = S;
},
{
name = cedillacomb;
transform = "{1, 0, 0, 1, 40, 0}";
}
);
layerId = "EA94BB3F-1054-4F03-AAB6-69C3B81B3CC3";
width = 614;
}
);
leftKerningGroup = S;
note = Scedilla;
rightKerningGroup = S;
unicode = 015E;
},
{
glyphname = T;
lastChange = "2015-10-08 20:58:16 +0000";
layers = (
{
anchors = (
{
name = bottom;
position = "{295, 0}";
},
{
name = center;
position = "{295, 358}";
},
{
name = top;
position = "{295, 715}";
}
);
background = {
paths = (
{
closed = 1;
nodes = (
"267 650 LINE",
"267 17 LINE",
"160 17 LINE",
"160 0 LINE",
"471 0 LINE",
"471 17 LINE",
"364 17 LINE",
"364 650 LINE",
"395 650 LINE SMOOTH",
"433 650 OFFCURVE",
"473 647 OFFCURVE",
"501 642 CURVE SMOOTH",
"554 632 OFFCURVE",
"577 617 OFFCURVE",
"587 585 CURVE SMOOTH",
"595 559 OFFCURVE",
"600 522 OFFCURVE",
"600 481 CURVE SMOOTH",
"600 467 LINE",
"617 467 LINE",
"609 667 LINE",
"22 667 LINE",
"14 467 LINE",
"31 467 LINE",
"31 480 LINE SMOOTH",
"31 560 OFFCURVE",
"42 597 OFFCURVE",
"74 617 CURVE",
"111 642 OFFCURVE",
"153 650 OFFCURVE",
"250 650 CURVE SMOOTH"
);
}
);
};
layerId = "EA94BB3F-1054-4F03-AAB6-69C3B81B3CC3";
paths = (
{
closed = 1;
nodes = (
"347 0 LINE",
"347 697 LINE",
"559 697 LINE",
"559 715 LINE",
"30 715 LINE",
"30 697 LINE",
"244 697 LINE",
"244 0 LINE"
);
}
);
width = 589;
}
);
leftKerningGroup = T;
note = T;
rightKerningGroup = T;
unicode = 0054;
},
{
glyphname = U;
lastChange = "2015-10-08 20:58:16 +0000";
layers = (
{
anchors = (
{
name = bottom;
position = "{354, 0}";
},
{
name = ogonek;
position = "{483, 10}";
},
{
name = top;
position = "{354, 715}";
},
{
name = topright;
position = "{694, 715}";
}
);
background = {
paths = (
{
closed = 1;
nodes = (
"768 697 LINE",
"768 715 LINE",
"521 715 LINE",
"521 697 LINE",
"573 697 LINE SMOOTH",
"635 697 OFFCURVE",
"646 684 OFFCURVE",
"646 609 CURVE SMOOTH",
"646 240 LINE SMOOTH",
"646 158 OFFCURVE",
"636 120 OFFCURVE",
"605 80 CURVE SMOOTH",
"564 29 OFFCURVE",
"503 4 OFFCURVE",
"421 4 CURVE SMOOTH",
"343 4 OFFCURVE",
"287 25 OFFCURVE",
"248 64 CURVE SMOOTH",
"218 96 OFFCURVE",
"212 123 OFFCURVE",
"212 218 CURVE SMOOTH",
"212 697 LINE",
"323 697 LINE",
"323 715 LINE",
"2 715 LINE",
"2 697 LINE",
"105 697 LINE",
"105 223 LINE SMOOTH",
"105 125 OFFCURVE",
"111 100 OFFCURVE",
"141 65 CURVE SMOOTH",
"188 11 OFFCURVE",
"268 -15 OFFCURVE",
"394 -15 CURVE SMOOTH",
"485 -15 OFFCURVE",
"547 2 OFFCURVE",
"593 41 CURVE SMOOTH",
"644 84 OFFCURVE",
"664 141 OFFCURVE",
"664 243 CURVE SMOOTH",
"664 609 LINE SMOOTH",
"664 682 OFFCURVE",
"675 697 OFFCURVE",
"724 697 CURVE SMOOTH"
);
}
);
};
layerId = "EA94BB3F-1054-4F03-AAB6-69C3B81B3CC3";
paths = (
{
closed = 1;
nodes = (
"516 -13 OFFCURVE",
"648 118 OFFCURVE",
"648 280 CURVE SMOOTH",
"648 715 LINE",
"630 715 LINE",
"630 280 LINE SMOOTH",
"630 110 OFFCURVE",
"481 9 OFFCURVE",
"356 9 CURVE SMOOTH",
"260 9 OFFCURVE",
"165 69 OFFCURVE",
"165 280 CURVE SMOOTH",
"165 715 LINE",
"62 715 LINE",
"62 280 LINE SMOOTH",
"62 118 OFFCURVE",
"194 -13 OFFCURVE",
"355 -13 CURVE SMOOTH"
);
}
);
width = 710;
},
{
associatedMasterId = "EA94BB3F-1054-4F03-AAB6-69C3B81B3CC3";
background = {
paths = (
{
closed = 1;
nodes = (
"722 650 LINE",
"722 667 LINE",
"492 667 LINE",
"492 650 LINE",
"540 650 LINE SMOOTH",
"598 650 OFFCURVE",
"608 638 OFFCURVE",
"608 568 CURVE SMOOTH",
"608 224 LINE SMOOTH",
"608 147 OFFCURVE",
"599 112 OFFCURVE",
"570 75 CURVE SMOOTH",
"532 27 OFFCURVE",
"475 4 OFFCURVE",
"398 4 CURVE SMOOTH",
"326 4 OFFCURVE",
"273 23 OFFCURVE",
"237 60 CURVE SMOOTH",
"209 90 OFFCURVE",
"203 115 OFFCURVE",
"203 203 CURVE SMOOTH",
"203 650 LINE",
"307 650 LINE",
"307 667 LINE",
"7 667 LINE",
"7 650 LINE",
"104 650 LINE",
"104 208 LINE SMOOTH",
"104 117 OFFCURVE",
"109 93 OFFCURVE",
"137 61 CURVE SMOOTH",
"181 10 OFFCURVE",
"256 -14 OFFCURVE",
"373 -14 CURVE SMOOTH",
"458 -14 OFFCURVE",
"516 2 OFFCURVE",
"559 38 CURVE SMOOTH",
"606 78 OFFCURVE",
"625 132 OFFCURVE",
"625 227 CURVE SMOOTH",
"625 568 LINE SMOOTH",
"625 636 OFFCURVE",
"635 650 OFFCURVE",
"681 650 CURVE SMOOTH"
);
}
);
};
layerId = "D5373BAD-2ADC-4B72-8FF4-EE0AE5993387";
name = guide;
paths = (
{
closed = 1;
nodes = (
"522 -13 OFFCURVE",
"654 118 OFFCURVE",
"654 280 CURVE SMOOTH",
"654 441 OFFCURVE",
"522 572 OFFCURVE",
"361 572 CURVE SMOOTH",
"200 572 OFFCURVE",
"68 441 OFFCURVE",
"68 280 CURVE SMOOTH",
"68 118 OFFCURVE",
"200 -13 OFFCURVE",
"361 -13 CURVE SMOOTH"
);
}
);
width = 720;
}
);
leftKerningGroup = U;
note = U;
rightKerningGroup = U;
unicode = 0055;
},
{
glyphname = Udieresis;
lastChange = "2015-09-30 05:09:58 +0000";
layers = (
{
background = {
paths = (
{
closed = 1;
nodes = (
"722 650 LINE",
"722 667 LINE",
"492 667 LINE",
"492 650 LINE",
"540 650 LINE SMOOTH",
"598 650 OFFCURVE",
"608 638 OFFCURVE",
"608 568 CURVE SMOOTH",
"608 224 LINE SMOOTH",
"608 147 OFFCURVE",
"599 112 OFFCURVE",
"570 75 CURVE SMOOTH",
"532 27 OFFCURVE",
"475 4 OFFCURVE",
"398 4 CURVE SMOOTH",
"326 4 OFFCURVE",
"273 23 OFFCURVE",
"237 60 CURVE SMOOTH",
"209 90 OFFCURVE",
"203 115 OFFCURVE",
"203 203 CURVE SMOOTH",
"203 650 LINE",
"307 650 LINE",
"307 667 LINE",
"7 667 LINE",
"7 650 LINE",
"104 650 LINE",
"104 208 LINE SMOOTH",
"104 117 OFFCURVE",
"109 93 OFFCURVE",
"137 61 CURVE SMOOTH",
"181 10 OFFCURVE",
"256 -14 OFFCURVE",
"373 -14 CURVE SMOOTH",
"458 -14 OFFCURVE",
"516 2 OFFCURVE",
"559 38 CURVE SMOOTH",
"606 78 OFFCURVE",
"625 132 OFFCURVE",
"625 227 CURVE SMOOTH",
"625 568 LINE SMOOTH",
"625 636 OFFCURVE",
"635 650 OFFCURVE",
"681 650 CURVE SMOOTH"
);
},
{
closed = 1;
nodes = (
"469 849 OFFCURVE",
"447 828 OFFCURVE",
"447 801 CURVE SMOOTH",
"447 775 OFFCURVE",
"469 753 OFFCURVE",
"495 753 CURVE SMOOTH",
"521 753 OFFCURVE",
"543 775 OFFCURVE",
"543 801 CURVE SMOOTH",
"543 827 OFFCURVE",
"521 849 OFFCURVE",
"496 849 CURVE SMOOTH"
);
},
{
closed = 1;
nodes = (
"281 849 OFFCURVE",
"259 828 OFFCURVE",
"259 801 CURVE SMOOTH",
"259 775 OFFCURVE",
"281 753 OFFCURVE",
"307 753 CURVE SMOOTH",
"333 753 OFFCURVE",
"355 775 OFFCURVE",
"355 801 CURVE SMOOTH",
"355 827 OFFCURVE",
"333 849 OFFCURVE",
"308 849 CURVE SMOOTH"
);
}
);
};
components = (
{
name = U;
},
{
name = dieresiscomb;
transform = "{1, 0, 0, 1, 104, 258}";
}
);
layerId = "EA94BB3F-1054-4F03-AAB6-69C3B81B3CC3";
width = 710;
}
);
leftKerningGroup = U;
note = Udieresis;
rightKerningGroup = U;
unicode = 00DC;
},
{
glyphname = V;
lastChange = "2015-10-08 20:58:16 +0000";
layers = (
{
background = {
paths = (
{
closed = 1;
nodes = (
"-11 715 LINE",
"-11 697 LINE",
"84 697 LINE",
"345 -26 LINE",
"584 613 LINE SMOOTH",
"604 662 OFFCURVE",
"605 665 OFFCURVE",
"616 679 CURVE",
"628 690 OFFCURVE",
"643 697 OFFCURVE",
"664 697 CURVE SMOOTH",
"715 697 LINE",
"715 715 LINE",
"480 715 LINE",
"480 697 LINE",
"533 697 LINE SMOOTH",
"562 697 OFFCURVE",
"578 684 OFFCURVE",
"578 662 CURVE SMOOTH",
"578 651 OFFCURVE",
"570 622 OFFCURVE",
"560 595 CURVE SMOOTH",
"393 149 LINE",
"200 697 LINE",
"304 697 LINE",
"304 715 LINE"
);
}
);
};
layerId = "EA94BB3F-1054-4F03-AAB6-69C3B81B3CC3";
paths = (
{
closed = 1;
nodes = (
"591 715 LINE",
"574 715 LINE",
"339 134 LINE",
"107 715 LINE",
"-12 715 LINE",
"290 -28 LINE"
);
}
);
width = 580;
}
);
leftKerningGroup = V;
note = V;
rightKerningGroup = V;
unicode = 0056;
},
{
glyphname = W;
lastChange = "2015-10-08 20:58:16 +0000";
layers = (
{
anchors = (
{
name = bottom;
position = "{448, 0}";
},
{
name = top;
position = "{448, 715}";
}
);
background = {
paths = (
{
closed = 1;
nodes = (
"-20 715 LINE",
"-20 697 LINE",
"74 697 LINE",
"330 -26 LINE",
"343 -26 LINE",
"463 324 LINE",
"591 -26 LINE",
"603 -26 LINE",
"845 595 LINE SMOOTH",
"873 667 OFFCURVE",
"873 667 OFFCURVE",
"886 680 CURVE SMOOTH",
"897 690 OFFCURVE",
"916 697 OFFCURVE",
"940 697 CURVE SMOOTH",
"985 697 LINE",
"985 715 LINE",
"748 715 LINE",
"748 697 LINE",
"802 697 LINE SMOOTH",
"834 697 OFFCURVE",
"851 687 OFFCURVE",
"851 669 CURVE SMOOTH",
"851 659 OFFCURVE",
"845 639 OFFCURVE",
"840 626 CURVE SMOOTH",
"645 131 LINE",
"515 480 LINE",
"569 616 LINE SMOOTH",
"589 670 OFFCURVE",
"590 673 OFFCURVE",
"602 683 CURVE SMOOTH",
"614 692 OFFCURVE",
"632 697 OFFCURVE",
"659 697 CURVE SMOOTH",
"712 697 LINE",
"712 715 LINE"
);
},
{
closed = 1;
nodes = (
"453 348 LINE",
"381 143 LINE",
"187 697 LINE",
"327 697 LINE"
);
},
{
closed = 1;
nodes = (
"508 506 LINE",
"439 697 LINE",
"515 697 LINE SMOOTH",
"554 697 OFFCURVE",
"568 689 OFFCURVE",
"568 670 CURVE SMOOTH",
"568 666 OFFCURVE",
"564 658 OFFCURVE",
"553 626 CURVE SMOOTH"
);
}
);
};
layerId = "EA94BB3F-1054-4F03-AAB6-69C3B81B3CC3";
paths = (
{
closed = 1;
nodes = (
"887 715 LINE",
"870 715 LINE",
"665 134 LINE",
"433 715 LINE",
"314 715 LINE",
"616 -28 LINE"
);
},
{
closed = 1;
nodes = (
"571 715 LINE",
"554 715 LINE",
"349 134 LINE",
"117 715 LINE",
"-2 715 LINE",
"300 -28 LINE"
);
}
);
width = 885;
}
);
leftKerningGroup = W;
note = W;
rightKerningGroup = W;
unicode = 0057;
},
{
glyphname = X;
lastChange = "2015-10-08 20:58:16 +0000";
layers = (
{
background = {
paths = (
{
closed = 1;
nodes = (
"0 18 LINE",
"0 0 LINE",
"277 0 LINE",
"277 18 LINE",
"227 18 LINE SMOOTH",
"190 18 OFFCURVE",
"173 26 OFFCURVE",
"173 42 CURVE SMOOTH",
"173 51 OFFCURVE",
"180 64 OFFCURVE",
"204 99 CURVE SMOOTH",
"366 332 LINE",
"547 18 LINE",
"447 18 LINE",
"447 0 LINE",
"764 0 LINE",
"764 18 LINE",
"676 18 LINE",
"431 436 LINE",
"548 609 LINE SMOOTH",
"567 638 OFFCURVE",
"595 670 OFFCURVE",
"610 683 CURVE SMOOTH",
"623 694 OFFCURVE",
"636 697 OFFCURVE",
"664 697 CURVE SMOOTH",
"707 697 LINE",
"707 715 LINE",
"457 715 LINE",
"457 697 LINE",
"522 697 LINE SMOOTH",
"548 697 OFFCURVE",
"561 689 OFFCURVE",
"561 674 CURVE SMOOTH",
"561 665 OFFCURVE",
"550 643 OFFCURVE",
"536 622 CURVE SMOOTH",
"420 453 LINE",
"278 697 LINE",
"366 697 LINE",
"366 715 LINE",
"53 715 LINE",
"53 697 LINE",
"149 697 LINE",
"354 351 LINE",
"206 134 LINE SMOOTH",
"134 31 OFFCURVE",
"116 18 OFFCURVE",
"42 18 CURVE SMOOTH"
);
}
);
};
layerId = "EA94BB3F-1054-4F03-AAB6-69C3B81B3CC3";
paths = (
{
closed = 1;
nodes = (
"58 0 LINE",
"261.279 325.884 LINE",
"460 0 LINE",
"588 0 LINE",
"326.005 429.649 LINE",
"504 715 LINE",
"480 715 LINE",
"314.141 449.104 LINE",
"152 715 LINE",
"24 715 LINE",
"249.415 345.34 LINE",
"34 0 LINE"
);
}
);
width = 600;
}
);
leftKerningGroup = X;
note = X;
rightKerningGroup = X;
unicode = 0058;
},
{
glyphname = Y;
lastChange = "2015-10-08 20:58:16 +0000";
layers = (
{
anchors = (
{
name = bottom;
position = "{286, 0}";
},
{
name = top;
position = "{328, 715}";
}
);
background = {
paths = (
{
closed = 1;
nodes = (
"435 715 LINE",
"435 697 LINE",
"481 697 LINE SMOOTH",
"517 697 OFFCURVE",
"534 688 OFFCURVE",
"534 670 CURVE SMOOTH",
"534 654 OFFCURVE",
"524 627 OFFCURVE",
"502 580 CURVE SMOOTH",
"372 308 LINE",
"193 697 LINE",
"291 697 LINE",
"291 715 LINE",
"-25 715 LINE",
"-25 697 LINE",
"70 697 LINE",
"275 259 LINE",
"275 18 LINE",
"165 18 LINE",
"165 0 LINE",
"492 0 LINE",
"492 18 LINE",
"382 18 LINE",
"382 283 LINE",
"543 623 LINE SMOOTH",
"575 688 OFFCURVE",
"584 697 OFFCURVE",
"628 697 CURVE SMOOTH",
"664 697 LINE",
"664 715 LINE"
);
}
);
};
layerId = "EA94BB3F-1054-4F03-AAB6-69C3B81B3CC3";
paths = (
{
closed = 1;
nodes = (
"380 0 LINE",
"380 305 LINE",
"566 715 LINE",
"545 715 LINE",
"379 351 LINE",
"211 715 LINE",
"90 715 LINE",
"277 304 LINE",
"277 0 LINE"
);
}
);
width = 572;
}
);
leftKerningGroup = Y;
note = Y;
rightKerningGroup = Y;
unicode = 0059;
},
{
glyphname = Z;
lastChange = "2015-10-08 20:58:16 +0000";
layers = (
{
anchors = (
{
name = bottom;
position = "{283, 0}";
},
{
name = top;
position = "{283, 715}";
}
);
background = {
paths = (
{
closed = 1;
nodes = (
"29 0 LINE",
"629 0 LINE",
"629 207 LINE",
"611 207 LINE",
"611 159 LINE SMOOTH",
"611 58 OFFCURVE",
"522 18 OFFCURVE",
"298 18 CURVE SMOOTH",
"161 18 LINE",
"624 715 LINE",
"71 715 LINE",
"71 518 LINE",
"89 518 LINE",
"89 560 LINE SMOOTH",
"89 610 OFFCURVE",
"114 652 OFFCURVE",
"153 669 CURVE SMOOTH",
"195 687 OFFCURVE",
"263 697 OFFCURVE",
"355 697 CURVE SMOOTH",
"491 697 LINE"
);
}
);
};
layerId = "EA94BB3F-1054-4F03-AAB6-69C3B81B3CC3";
paths = (
{
closed = 1;
nodes = (
"555 0 LINE",
"555 18 LINE",
"125 18 LINE",
"541 715 LINE",
"71 715 LINE",
"71 697 LINE",
"435 697 LINE",
"15 0 LINE"
);
}
);
width = 566;
}
);
leftKerningGroup = Z;
note = Z;
rightKerningGroup = Z;
unicode = 005A;
},
{
glyphname = C.001;
lastChange = "2019-09-30 17:48:12 +0000";
layers = (
{
anchors = (
{
name = bottom;
position = "{433, 0}";
},
{
name = top;
position = "{435, 715}";
}
);
background = {
paths = (
{
closed = 1;
nodes = (
"570 0 LINE",
"586 0 LINE",
"586 238 LINE",
"570 238 LINE",
"568 187 OFFCURVE",
"561 154 OFFCURVE",
"543 122 CURVE SMOOTH",
"502 50 OFFCURVE",
"426 4 OFFCURVE",
"346 4 CURVE SMOOTH",
"217 4 OFFCURVE",
"149 113 OFFCURVE",
"149 321 CURVE SMOOTH",
"149 422 OFFCURVE",
"167 517 OFFCURVE",
"198 574 CURVE SMOOTH",
"229 633 OFFCURVE",
"280 663 OFFCURVE",
"348 663 CURVE SMOOTH",
"418 663 OFFCURVE",
"478 632 OFFCURVE",
"524 573 CURVE SMOOTH",
"555 533 OFFCURVE",
"566 503 OFFCURVE",
"570 448 CURVE",
"586 448 LINE",
"586 650 LINE",
"570 650 LINE",
"566 622 OFFCURVE",
"556 610 OFFCURVE",
"539 610 CURVE SMOOTH",
"528 610 OFFCURVE",
"520 614 OFFCURVE",
"491 633 CURVE SMOOTH",
"444 664 OFFCURVE",
"401 677 OFFCURVE",
"347 677 CURVE SMOOTH",
"263 677 OFFCURVE",
"181 636 OFFCURVE",
"120 562 CURVE SMOOTH",
"69 501 OFFCURVE",
"38 410 OFFCURVE",
"38 321 CURVE SMOOTH",
"38 245 OFFCURVE",
"62 170 OFFCURVE",
"104 115 CURVE SMOOTH",
"165 35 OFFCURVE",
"253 -11 OFFCURVE",
"344 -11 CURVE SMOOTH",
"403 -11 OFFCURVE",
"445 3 OFFCURVE",
"490 37 CURVE SMOOTH",
"515 56 OFFCURVE",
"522 59 OFFCURVE",
"535 59 CURVE SMOOTH",
"554 59 OFFCURVE",
"570 35 OFFCURVE",
"570 6 CURVE SMOOTH"
);
}
);
};
layerId = "EA94BB3F-1054-4F03-AAB6-69C3B81B3CC3";
paths = (
{
closed = 1;
nodes = (
"536 -13 OFFCURVE",
"633 21 OFFCURVE",
"706 91 CURVE SMOOTH",
"727 112 OFFCURVE",
"746 134 OFFCURVE",
"761 159 CURVE",
"661 159 LINE",
"617 61 OFFCURVE",
"537 2 OFFCURVE",
"435 2 CURVE SMOOTH",
"277 2 OFFCURVE",
"171 144 OFFCURVE",
"171 356 CURVE SMOOTH",
"171 571 OFFCURVE",
"277 715 OFFCURVE",
"435 715 CURVE SMOOTH",
"535 715 OFFCURVE",
"615 657 OFFCURVE",
"659 559 CURVE",
"758 559 LINE",
"743 583 OFFCURVE",
"726 604 OFFCURVE",
"706 622 CURVE SMOOTH",
"637 687 OFFCURVE",
"531 730 OFFCURVE",
"435 730 CURVE SMOOTH",
"339 730 OFFCURVE",
"233 685 OFFCURVE",
"165 622 CURVE SMOOTH",
"98 559 OFFCURVE",
"53 465 OFFCURVE",
"53 356 CURVE SMOOTH",
"53 254 OFFCURVE",
"92 160 OFFCURVE",
"165 91 CURVE SMOOTH",
"238 22 OFFCURVE",
"334 -13 OFFCURVE",
"435 -13 CURVE SMOOTH"
);
}
);
width = 785;
}
);
leftKerningGroup = O;
note = C;
rightKerningGroup = C;
},
{
glyphname = J.001;
lastChange = "2015-10-08 20:58:16 +0000";
layers = (
{
background = {
paths = (
{
closed = 1;
nodes = (
"369 697 LINE",
"369 715 LINE",
"56 715 LINE",
"56 697 LINE",
"160 697 LINE",
"160 132 LINE SMOOTH",
"160 99 OFFCURVE",
"161 93 OFFCURVE",
"176 58 CURVE",
"185 38 LINE",
"189 29 OFFCURVE",
"191 20 OFFCURVE",
"191 11 CURVE SMOOTH",
"191 -28 OFFCURVE",
"162 -59 OFFCURVE",
"126 -59 CURVE SMOOTH",
"103 -59 OFFCURVE",
"78 -44 OFFCURVE",
"78 -30 CURVE SMOOTH",
"78 -27 OFFCURVE",
"80 -24 OFFCURVE",
"84 -23 CURVE SMOOTH",
"104 -16 OFFCURVE",
"104 -16 OFFCURVE",
"109 -12 CURVE",
"118 -3 OFFCURVE",
"124 11 OFFCURVE",
"124 24 CURVE SMOOTH",
"124 51 OFFCURVE",
"103 73 OFFCURVE",
"76 73 CURVE SMOOTH",
"44 73 OFFCURVE",
"21 47 OFFCURVE",
"21 12 CURVE SMOOTH",
"21 -40 OFFCURVE",
"66 -76 OFFCURVE",
"131 -76 CURVE SMOOTH",
"174 -76 OFFCURVE",
"209 -60 OFFCURVE",
"232 -30 CURVE SMOOTH",
"256 3 OFFCURVE",
"265 43 OFFCURVE",
"265 117 CURVE SMOOTH",
"265 697 LINE"
);
}
);
};
layerId = "EA94BB3F-1054-4F03-AAB6-69C3B81B3CC3";
paths = (
{
closed = 1;
nodes = (
"241 -76 OFFCURVE",
"308 6 OFFCURVE",
"308 87 CURVE SMOOTH",
"308 715 LINE",
"205 715 LINE",
"205 369 LINE SMOOTH",
"205 256 OFFCURVE",
"227 77 OFFCURVE",
"227 28 CURVE SMOOTH",
"227 -44 OFFCURVE",
"181 -58 OFFCURVE",
"152 -58 CURVE SMOOTH",
"125 -58 OFFCURVE",
"79 -46 OFFCURVE",
"79 -17 CURVE SMOOTH",
"79 -3 OFFCURVE",
"121 9 OFFCURVE",
"121 37 CURVE SMOOTH",
"121 60 OFFCURVE",
"92 73 OFFCURVE",
"69 73 CURVE SMOOTH",
"28 73 OFFCURVE",
"21 31 OFFCURVE",
"21 -13 CURVE",
"47 -47 OFFCURVE",
"90 -76 OFFCURVE",
"146 -76 CURVE SMOOTH"
);
}
);
width = 387;
},
{
associatedMasterId = "EA94BB3F-1054-4F03-AAB6-69C3B81B3CC3";
background = {
paths = (
{
closed = 1;
nodes = (
"369 697 LINE",
"369 715 LINE",
"56 715 LINE",
"56 697 LINE",
"160 697 LINE",
"160 132 LINE SMOOTH",
"160 99 OFFCURVE",
"161 93 OFFCURVE",
"176 58 CURVE",
"185 38 LINE",
"189 29 OFFCURVE",
"191 20 OFFCURVE",
"191 11 CURVE SMOOTH",
"191 -28 OFFCURVE",
"162 -59 OFFCURVE",
"126 -59 CURVE SMOOTH",
"103 -59 OFFCURVE",
"78 -44 OFFCURVE",
"78 -30 CURVE SMOOTH",
"78 -27 OFFCURVE",
"80 -24 OFFCURVE",
"84 -23 CURVE SMOOTH",
"104 -16 OFFCURVE",
"104 -16 OFFCURVE",
"109 -12 CURVE",
"118 -3 OFFCURVE",
"124 11 OFFCURVE",
"124 24 CURVE SMOOTH",
"124 51 OFFCURVE",
"103 73 OFFCURVE",
"76 73 CURVE SMOOTH",
"44 73 OFFCURVE",
"21 47 OFFCURVE",
"21 12 CURVE SMOOTH",
"21 -40 OFFCURVE",
"66 -76 OFFCURVE",
"131 -76 CURVE SMOOTH",
"174 -76 OFFCURVE",
"209 -60 OFFCURVE",
"232 -30 CURVE SMOOTH",
"256 3 OFFCURVE",
"265 43 OFFCURVE",
"265 117 CURVE SMOOTH",
"265 697 LINE"
);
}
);
};
layerId = "5F3C60D3-57DE-4E92-8BCD-2FCE42A3C567";
name = guide;
paths = (
{
closed = 1;
nodes = (
"237 -76 OFFCURVE",
"308 -3 OFFCURVE",
"308 86 CURVE SMOOTH",
"308 173 OFFCURVE",
"237 246 OFFCURVE",
"148 246 CURVE SMOOTH",
"59 246 OFFCURVE",
"-12 173 OFFCURVE",
"-12 86 CURVE SMOOTH",
"-12 -3 OFFCURVE",
"59 -76 OFFCURVE",
"148 -76 CURVE SMOOTH"
);
}
);
width = 387;
}
);
leftKerningGroup = J.001;
note = J;
rightKerningGroup = J.001;
},
{
glyphname = K.001;
lastChange = "2015-10-08 20:58:20 +0000";
layers = (
{
background = {
paths = (
{
closed = 1;
nodes = (
"317 426 LINE",
"473 566 LINE SMOOTH",
"525 614 OFFCURVE",
"585 660 OFFCURVE",
"624 682 CURVE SMOOTH",
"643 692 OFFCURVE",
"661 697 OFFCURVE",
"690 697 CURVE SMOOTH",
"747 697 LINE",
"747 715 LINE",
"442 715 LINE",
"442 697 LINE",
"496 697 LINE SMOOTH",
"535 697 OFFCURVE",
"547 692 OFFCURVE",
"547 677 CURVE SMOOTH",
"547 664 OFFCURVE",
"527 639 OFFCURVE",
"493 608 CURVE SMOOTH",
"226 368 LINE",
"226 697 LINE",
"333 697 LINE",
"333 715 LINE",
"18 715 LINE",
"18 697 LINE",
"122 697 LINE",
"122 18 LINE",
"18 18 LINE",
"18 0 LINE",
"339 0 LINE",
"339 18 LINE",
"226 18 LINE",
"226 344 LINE",
"239 356 LINE",
"518 18 LINE",
"417 18 LINE",
"417 0 LINE",
"765 0 LINE",
"765 18 LINE",
"662 18 LINE"
);
}
);
};
layerId = "EA94BB3F-1054-4F03-AAB6-69C3B81B3CC3";
paths = (
{
closed = 1;
nodes = (
"189 0 LINE",
"189 359 LINE",
"491 0 LINE",
"626 0 LINE",
"268 426 LINE",
"510 715 LINE",
"485 715 LINE",
"189 361 LINE",
"189 715 LINE",
"86 715 LINE",
"86 0 LINE"
);
}
);
width = 591;
}
);
leftKerningGroup = K.001;
note = K;
rightKerningGroup = K.001;
},
{
glyphname = N.001;
lastChange = "2015-10-08 20:58:16 +0000";
layers = (
{
background = {
paths = (
{
closed = 1;
nodes = (
"11 18 LINE",
"11 0 LINE",
"243 0 LINE",
"243 18 LINE",
"213 18 LINE SMOOTH",
"136 18 OFFCURVE",
"132 25 OFFCURVE",
"132 132 CURVE SMOOTH",
"132 665 LINE",
"659 -5 LINE",
"666 -5 LINE",
"666 608 LINE SMOOTH",
"666 697 OFFCURVE",
"666 697 OFFCURVE",
"740 697 CURVE SMOOTH",
"770 697 LINE",
"770 715 LINE",
"540 715 LINE",
"540 697 LINE",
"570 697 LINE SMOOTH",
"647 697 OFFCURVE",
"649 696 OFFCURVE",
"649 608 CURVE SMOOTH",
"649 188 LINE",
"232 715 LINE",
"11 715 LINE",
"11 697 LINE",
"96 697 LINE",
"115 684 LINE",
"115 132 LINE SMOOTH",
"115 54 OFFCURVE",
"115 51 OFFCURVE",
"105 35 CURVE",
"96 23 OFFCURVE",
"84 18 OFFCURVE",
"46 18 CURVE SMOOTH"
);
}
);
};
layerId = "EA94BB3F-1054-4F03-AAB6-69C3B81B3CC3";
paths = (
{
closed = 1;
nodes = (
"654 715 LINE",
"636 715 LINE",
"636 136 LINE",
"68 777 LINE",
"68 0 LINE",
"86 0 LINE",
"86 581 LINE",
"654 -60 LINE"
);
}
);
width = 775;
}
);
leftKerningGroup = N.001;
note = N;
rightKerningGroup = N.001;
},
{
glyphname = Q.001;
lastChange = "2015-10-08 20:58:16 +0000";
layers = (
{
background = {
paths = (
{
closed = 1;
nodes = (
"424 -9 LINE",
"476 4 OFFCURVE",
"505 17 OFFCURVE",
"541 42 CURVE SMOOTH",
"646 110 OFFCURVE",
"707 227 OFFCURVE",
"707 356 CURVE SMOOTH",
"707 442 OFFCURVE",
"680 526 OFFCURVE",
"630 592 CURVE SMOOTH",
"567 673 OFFCURVE",
"463 730 OFFCURVE",
"374 730 CURVE SMOOTH",
"299 730 OFFCURVE",
"214 691 OFFCURVE",
"150 626 CURVE SMOOTH",
"77 553 OFFCURVE",
"40 464 OFFCURVE",
"40 361 CURVE SMOOTH",
"40 182 OFFCURVE",
"152 33 OFFCURVE",
"322 -9 CURVE",
"322 -94 LINE SMOOTH",
"322 -129 OFFCURVE",
"331 -151 OFFCURVE",
"353 -168 CURVE SMOOTH",
"384 -194 OFFCURVE",
"471 -214 OFFCURVE",
"548 -214 CURVE SMOOTH",
"567 -214 OFFCURVE",
"582 -214 OFFCURVE",
"610 -212 CURVE",
"610 -194 LINE",
"586 -196 OFFCURVE",
"566 -197 OFFCURVE",
"551 -197 CURVE SMOOTH",
"509 -197 OFFCURVE",
"471 -189 OFFCURVE",
"448 -174 CURVE SMOOTH",
"430 -162 OFFCURVE",
"424 -146 OFFCURVE",
"424 -110 CURVE SMOOTH"
);
},
{
closed = 1;
nodes = (
"512 714 OFFCURVE",
"589 586 OFFCURVE",
"589 360 CURVE SMOOTH",
"589 121 OFFCURVE",
"518 3 OFFCURVE",
"373 3 CURVE SMOOTH",
"230 3 OFFCURVE",
"159 122 OFFCURVE",
"159 359 CURVE SMOOTH",
"159 592 OFFCURVE",
"234 714 OFFCURVE",
"377 714 CURVE SMOOTH"
);
}
);
};
guideLines = (
{
angle = -47;
position = "{566, 97}";
},
{
angle = -47;
position = "{631, 141}";
}
);
layerId = "EA94BB3F-1054-4F03-AAB6-69C3B81B3CC3";
paths = (
{
closed = 1;
nodes = (
"827 -69 LINE",
"690.416 76.751 LINE",
"706 91 LINE SMOOTH",
"778 161 OFFCURVE",
"817 254 OFFCURVE",
"817 356 CURVE SMOOTH",
"817 450 OFFCURVE",
"773 557 OFFCURVE",
"706 622 CURVE SMOOTH",
"640 687 OFFCURVE",
"531 730 OFFCURVE",
"435 730 CURVE SMOOTH",
"339 730 OFFCURVE",
"231 687 OFFCURVE",
"165 622 CURVE SMOOTH",
"98 558 OFFCURVE",
"53 451 OFFCURVE",
"53 356 CURVE SMOOTH",
"53 254 OFFCURVE",
"92 162 OFFCURVE",
"165 91 CURVE SMOOTH",
"237 21 OFFCURVE",
"334 -13 OFFCURVE",
"435 -13 CURVE SMOOTH",
"502.113 -13 OFFCURVE",
"567.901 2.012 OFFCURVE",
"625.616 32.624 CURVE",
"721 -69 LINE"
);
},
{
closed = 1;
nodes = (
"277 2 OFFCURVE",
"171 144 OFFCURVE",
"171 356 CURVE SMOOTH",
"171 571 OFFCURVE",
"277 715 OFFCURVE",
"435 715 CURVE SMOOTH",
"593 715 OFFCURVE",
"699 571 OFFCURVE",
"699 356 CURVE SMOOTH",
"699 264.807 OFFCURVE",
"679.387 186.567 OFFCURVE",
"644.458 127.01 CURVE",
"525 255 LINE",
"419 255 LINE",
"595.955 65.335 LINE",
"552.886 24.64 OFFCURVE",
"498.088 2 OFFCURVE",
"435 2 CURVE SMOOTH"
);
}
);
width = 870;
}
);
leftKerningGroup = Q.001;
note = Q;
rightKerningGroup = Q.001;
},
{
glyphname = R.001;
lastChange = "2015-10-08 20:58:16 +0000";
layers = (
{
background = {
paths = (
{
closed = 1;
nodes = (
"212 340 LINE",
"251 340 LINE SMOOTH",
"308 340 OFFCURVE",
"357 333 OFFCURVE",
"381 321 CURVE SMOOTH",
"419 303 OFFCURVE",
"435 276 OFFCURVE",
"441 220 CURVE SMOOTH",
"452 125 LINE SMOOTH",
"458 67 OFFCURVE",
"463 53 OFFCURVE",
"485 30 CURVE",
"508 4 OFFCURVE",
"536 -7 OFFCURVE",
"580 -7 CURVE SMOOTH",
"610 -7 OFFCURVE",
"633 -3 OFFCURVE",
"659 7 CURVE",
"653 21 LINE",
"634 15 OFFCURVE",
"625 13 OFFCURVE",
"613 13 CURVE SMOOTH",
"582 13 OFFCURVE",
"568 34 OFFCURVE",
"563 89 CURVE SMOOTH",
"556 161 LINE SMOOTH",
"546 292 OFFCURVE",
"507 331 OFFCURVE",
"374 348 CURVE",
"436 355 OFFCURVE",
"469 364 OFFCURVE",
"501 382 CURVE SMOOTH",
"547 409 OFFCURVE",
"574 455 OFFCURVE",
"574 507 CURVE SMOOTH",
"574 547 OFFCURVE",
"560 584 OFFCURVE",
"533 612 CURVE SMOOTH",
"497 650 OFFCURVE",
"445 667 OFFCURVE",
"363 667 CURVE SMOOTH",
"17 667 LINE",
"17 650 LINE",
"114 650 LINE",
"114 17 LINE",
"17 17 LINE",
"17 0 LINE",
"315 0 LINE",
"315 17 LINE",
"212 17 LINE"
);
},
{
closed = 1;
nodes = (
"212 650 LINE",
"248 650 LINE SMOOTH",
"350 650 OFFCURVE",
"384 644 OFFCURVE",
"417 619 CURVE",
"450 596 OFFCURVE",
"471 549 OFFCURVE",
"471 501 CURVE SMOOTH",
"471 460 OFFCURVE",
"455 422 OFFCURVE",
"425 397 CURVE",
"393 368 OFFCURVE",
"338 355 OFFCURVE",
"251 355 CURVE SMOOTH",
"212 355 LINE"
);
}
);
};
layerId = "EA94BB3F-1054-4F03-AAB6-69C3B81B3CC3";
paths = (
{
closed = 1;
nodes = (
"165 0 LINE",
"165 370 LINE",
"283 370 LINE SMOOTH",
"390 370 OFFCURVE",
"432 304 OFFCURVE",
"432 203 CURVE SMOOTH",
"432 0 LINE",
"543 0 LINE",
"541 203 LINE",
"541 299 OFFCURVE",
"468 366 OFFCURVE",
"384 379 CURVE",
"453 399 OFFCURVE",
"510 451 OFFCURVE",
"510 527 CURVE SMOOTH",
"510 673 OFFCURVE",
"413 715 OFFCURVE",
"258 715 CURVE SMOOTH",
"62 715 LINE",
"62 0 LINE"
);
},
{
closed = 1;
nodes = (
"165 697 LINE",
"258 697 LINE SMOOTH",
"386 697 OFFCURVE",
"401 609 OFFCURVE",
"401 517 CURVE SMOOTH",
"401 434 OFFCURVE",
"379 388 OFFCURVE",
"258 388 CURVE SMOOTH",
"165 388 LINE"
);
}
);
width = 551;
}
);
leftKerningGroup = R.001;
note = R;
rightKerningGroup = R.001;
},
{
glyphname = S.001;
lastChange = "2015-10-08 20:58:16 +0000";
layers = (
{
background = {
paths = (
{
closed = 1;
nodes = (
"61 255 LINE",
"61 -8 LINE",
"79 -8 LINE",
"83 28 OFFCURVE",
"89 40 OFFCURVE",
"107 40 CURVE SMOOTH",
"117 40 OFFCURVE",
"129 36 OFFCURVE",
"147 30 CURVE",
"180 16 LINE SMOOTH",
"239 -6 OFFCURVE",
"272 -14 OFFCURVE",
"324 -14 CURVE SMOOTH",
"460 -14 OFFCURVE",
"554 79 OFFCURVE",
"554 215 CURVE SMOOTH",
"554 282 OFFCURVE",
"531 337 OFFCURVE",
"490 369 CURVE SMOOTH",
"457 393 OFFCURVE",
"409 409 OFFCURVE",
"339 420 CURVE SMOOTH",
"285 428 LINE SMOOTH",
"158 446 OFFCURVE",
"110 482 OFFCURVE",
"110 564 CURVE SMOOTH",
"110 653 OFFCURVE",
"177 714 OFFCURVE",
"274 714 CURVE SMOOTH",
"345 714 OFFCURVE",
"415 681 OFFCURVE",
"451 628 CURVE SMOOTH",
"479 589 OFFCURVE",
"492 550 OFFCURVE",
"495 492 CURVE",
"513 492 LINE",
"513 706 LINE",
"495 706 LINE",
"493 675 OFFCURVE",
"486 664 OFFCURVE",
"470 665 CURVE",
"463 665 OFFCURVE",
"457 667 OFFCURVE",
"449 671 CURVE SMOOTH",
"433 681 LINE SMOOTH",
"356 725 OFFCURVE",
"336 731 OFFCURVE",
"282 731 CURVE SMOOTH",
"154 731 OFFCURVE",
"66 643 OFFCURVE",
"66 517 CURVE SMOOTH",
"66 459 OFFCURVE",
"86 405 OFFCURVE",
"117 374 CURVE SMOOTH",
"145 346 OFFCURVE",
"191 329 OFFCURVE",
"269 317 CURVE SMOOTH",
"325 308 LINE SMOOTH",
"398 297 OFFCURVE",
"433 285 OFFCURVE",
"462 262 CURVE",
"492 239 OFFCURVE",
"507 207 OFFCURVE",
"507 167 CURVE SMOOTH",
"507 70 OFFCURVE",
"432 3 OFFCURVE",
"323 3 CURVE SMOOTH",
"236 3 OFFCURVE",
"152 48 OFFCURVE",
"113 118 CURVE SMOOTH",
"92 153 OFFCURVE",
"85 187 OFFCURVE",
"79 255 CURVE"
);
}
);
};
layerId = "EA94BB3F-1054-4F03-AAB6-69C3B81B3CC3";
paths = (
{
closed = 1;
nodes = (
"466 -13 OFFCURVE",
"546 114 OFFCURVE",
"546 232 CURVE SMOOTH",
"546 378 OFFCURVE",
"425 419 OFFCURVE",
"332 445 CURVE SMOOTH",
"212 479 OFFCURVE",
"133 485 OFFCURVE",
"133 570 CURVE SMOOTH",
"133 644 OFFCURVE",
"194 710 OFFCURVE",
"270 710 CURVE SMOOTH",
"349 710 OFFCURVE",
"405 637 OFFCURVE",
"425 560 CURVE",
"520 560 LINE",
"515 674 OFFCURVE",
"387 732 OFFCURVE",
"280 732 CURVE SMOOTH",
"131 732 OFFCURVE",
"67 621 OFFCURVE",
"67 518 CURVE SMOOTH",
"67 447 OFFCURVE",
"99 362 OFFCURVE",
"269 331 CURVE SMOOTH",
"353 316 OFFCURVE",
"479 276 OFFCURVE",
"479 184 CURVE SMOOTH",
"479 107 OFFCURVE",
"392 11 OFFCURVE",
"313 11 CURVE SMOOTH",
"233 11 OFFCURVE",
"138 106 OFFCURVE",
"128 210 CURVE",
"29 210 LINE",
"44 37 OFFCURVE",
"199 -13 OFFCURVE",
"302 -13 CURVE SMOOTH"
);
}
);
width = 784;
}
);
leftKerningGroup = S.001;
note = S;
rightKerningGroup = S.001;
},
{
glyphname = R.002;
lastChange = "2015-10-08 20:58:16 +0000";
layers = (
{
background = {
paths = (
{
closed = 1;
nodes = (
"212 340 LINE",
"251 340 LINE SMOOTH",
"308 340 OFFCURVE",
"357 333 OFFCURVE",
"381 321 CURVE SMOOTH",
"419 303 OFFCURVE",
"435 276 OFFCURVE",
"441 220 CURVE SMOOTH",
"452 125 LINE SMOOTH",
"458 67 OFFCURVE",
"463 53 OFFCURVE",
"485 30 CURVE",
"508 4 OFFCURVE",
"536 -7 OFFCURVE",
"580 -7 CURVE SMOOTH",
"610 -7 OFFCURVE",
"633 -3 OFFCURVE",
"659 7 CURVE",
"653 21 LINE",
"634 15 OFFCURVE",
"625 13 OFFCURVE",
"613 13 CURVE SMOOTH",
"582 13 OFFCURVE",
"568 34 OFFCURVE",
"563 89 CURVE SMOOTH",
"556 161 LINE SMOOTH",
"546 292 OFFCURVE",
"507 331 OFFCURVE",
"374 348 CURVE",
"436 355 OFFCURVE",
"469 364 OFFCURVE",
"501 382 CURVE SMOOTH",
"547 409 OFFCURVE",
"574 455 OFFCURVE",
"574 507 CURVE SMOOTH",
"574 547 OFFCURVE",
"560 584 OFFCURVE",
"533 612 CURVE SMOOTH",
"497 650 OFFCURVE",
"445 667 OFFCURVE",
"363 667 CURVE SMOOTH",
"17 667 LINE",
"17 650 LINE",
"114 650 LINE",
"114 17 LINE",
"17 17 LINE",
"17 0 LINE",
"315 0 LINE",
"315 17 LINE",
"212 17 LINE"
);
},
{
closed = 1;
nodes = (
"212 650 LINE",
"248 650 LINE SMOOTH",
"350 650 OFFCURVE",
"384 644 OFFCURVE",
"417 619 CURVE",
"450 596 OFFCURVE",
"471 549 OFFCURVE",
"471 501 CURVE SMOOTH",
"471 460 OFFCURVE",
"455 422 OFFCURVE",
"425 397 CURVE",
"393 368 OFFCURVE",
"338 355 OFFCURVE",
"251 355 CURVE SMOOTH",
"212 355 LINE"
);
}
);
};
layerId = "EA94BB3F-1054-4F03-AAB6-69C3B81B3CC3";
paths = (
{
closed = 1;
nodes = (
"165 0 LINE",
"165 370 LINE",
"233 370 LINE SMOOTH",
"379 370 OFFCURVE",
"358 306 OFFCURVE",
"432 0 CURVE",
"543 0 LINE",
"467 280 OFFCURVE",
"496 370 OFFCURVE",
"345 370 CURVE",
"371 374 OFFCURVE",
"374 375 OFFCURVE",
"394 382 CURVE SMOOTH",
"467 407 OFFCURVE",
"510 461 OFFCURVE",
"510 527 CURVE SMOOTH",
"510 673 OFFCURVE",
"413 715 OFFCURVE",
"258 715 CURVE SMOOTH",
"62 715 LINE",
"62 0 LINE"
);
},
{
closed = 1;
nodes = (
"165 697 LINE",
"258 697 LINE SMOOTH",
"386 697 OFFCURVE",
"401 609 OFFCURVE",
"401 517 CURVE SMOOTH",
"401 434 OFFCURVE",
"379 388 OFFCURVE",
"258 388 CURVE SMOOTH",
"165 388 LINE"
);
}
);
width = 551;
}
);
leftKerningGroup = R.002;
note = R;
rightKerningGroup = R.002;
},
{
glyphname = C.80;
lastChange = "2019-09-30 18:05:04 +0000";
layers = (
{
anchors = (
{
name = bottom;
position = "{346, 0}";
},
{
name = top;
position = "{348, 715}";
}
);
background = {
paths = (
{
closed = 1;
nodes = (
"570 0 LINE",
"586 0 LINE",
"586 238 LINE",
"570 238 LINE",
"568 187 OFFCURVE",
"561 154 OFFCURVE",
"543 122 CURVE SMOOTH",
"502 50 OFFCURVE",
"426 4 OFFCURVE",
"346 4 CURVE SMOOTH",
"217 4 OFFCURVE",
"149 113 OFFCURVE",
"149 321 CURVE SMOOTH",
"149 422 OFFCURVE",
"167 517 OFFCURVE",
"198 574 CURVE SMOOTH",
"229 633 OFFCURVE",
"280 663 OFFCURVE",
"348 663 CURVE SMOOTH",
"418 663 OFFCURVE",
"478 632 OFFCURVE",
"524 573 CURVE SMOOTH",
"555 533 OFFCURVE",
"566 503 OFFCURVE",
"570 448 CURVE",
"586 448 LINE",
"586 650 LINE",
"570 650 LINE",
"566 622 OFFCURVE",
"556 610 OFFCURVE",
"539 610 CURVE SMOOTH",
"528 610 OFFCURVE",
"520 614 OFFCURVE",
"491 633 CURVE SMOOTH",
"444 664 OFFCURVE",
"401 677 OFFCURVE",
"347 677 CURVE SMOOTH",
"263 677 OFFCURVE",
"181 636 OFFCURVE",
"120 562 CURVE SMOOTH",
"69 501 OFFCURVE",
"38 410 OFFCURVE",
"38 321 CURVE SMOOTH",
"38 245 OFFCURVE",
"62 170 OFFCURVE",
"104 115 CURVE SMOOTH",
"165 35 OFFCURVE",
"253 -11 OFFCURVE",
"344 -11 CURVE SMOOTH",
"403 -11 OFFCURVE",
"445 3 OFFCURVE",
"490 37 CURVE SMOOTH",
"515 56 OFFCURVE",
"522 59 OFFCURVE",
"535 59 CURVE SMOOTH",
"554 59 OFFCURVE",
"570 35 OFFCURVE",
"570 6 CURVE SMOOTH"
);
}
);
};
layerId = "EA94BB3F-1054-4F03-AAB6-69C3B81B3CC3";
paths = (
{
closed = 1;
nodes = (
"429 -13 OFFCURVE",
"506 21 OFFCURVE",
"565 91 CURVE SMOOTH",
"582 112 OFFCURVE",
"597 134 OFFCURVE",
"609 159 CURVE",
"529 159 LINE",
"494 61 OFFCURVE",
"430 2 OFFCURVE",
"348 2 CURVE SMOOTH",
"222 2 OFFCURVE",
"137 144 OFFCURVE",
"137 356 CURVE SMOOTH",
"137 571 OFFCURVE",
"222 715 OFFCURVE",
"348 715 CURVE SMOOTH",
"428 715 OFFCURVE",
"492 657 OFFCURVE",
"527 559 CURVE",
"606 559 LINE",
"594 583 OFFCURVE",
"581 604 OFFCURVE",
"565 622 CURVE SMOOTH",
"510 687 OFFCURVE",
"425 730 OFFCURVE",
"348 730 CURVE SMOOTH",
"271 730 OFFCURVE",
"186 685 OFFCURVE",
"132 622 CURVE SMOOTH",
"78 559 OFFCURVE",
"42 465 OFFCURVE",
"42 356 CURVE SMOOTH",
"42 254 OFFCURVE",
"74 160 OFFCURVE",
"132 91 CURVE SMOOTH",
"190 22 OFFCURVE",
"267 -13 OFFCURVE",
"348 -13 CURVE SMOOTH"
);
}
);
width = 628;
}
);
leftKerningGroup = O;
note = C;
rightKerningGroup = C;
},
{
glyphname = C.90;
lastChange = "2019-09-30 18:04:22 +0000";
layers = (
{
anchors = (
{
name = bottom;
position = "{390, 0}";
},
{
name = top;
position = "{392, 715}";
}
);
background = {
paths = (
{
closed = 1;
nodes = (
"570 0 LINE",
"586 0 LINE",
"586 238 LINE",
"570 238 LINE",
"568 187 OFFCURVE",
"561 154 OFFCURVE",
"543 122 CURVE SMOOTH",
"502 50 OFFCURVE",
"426 4 OFFCURVE",
"346 4 CURVE SMOOTH",
"217 4 OFFCURVE",
"149 113 OFFCURVE",
"149 321 CURVE SMOOTH",
"149 422 OFFCURVE",
"167 517 OFFCURVE",
"198 574 CURVE SMOOTH",
"229 633 OFFCURVE",
"280 663 OFFCURVE",
"348 663 CURVE SMOOTH",
"418 663 OFFCURVE",
"478 632 OFFCURVE",
"524 573 CURVE SMOOTH",
"555 533 OFFCURVE",
"566 503 OFFCURVE",
"570 448 CURVE",
"586 448 LINE",
"586 650 LINE",
"570 650 LINE",
"566 622 OFFCURVE",
"556 610 OFFCURVE",
"539 610 CURVE SMOOTH",
"528 610 OFFCURVE",
"520 614 OFFCURVE",
"491 633 CURVE SMOOTH",
"444 664 OFFCURVE",
"401 677 OFFCURVE",
"347 677 CURVE SMOOTH",
"263 677 OFFCURVE",
"181 636 OFFCURVE",
"120 562 CURVE SMOOTH",
"69 501 OFFCURVE",
"38 410 OFFCURVE",
"38 321 CURVE SMOOTH",
"38 245 OFFCURVE",
"62 170 OFFCURVE",
"104 115 CURVE SMOOTH",
"165 35 OFFCURVE",
"253 -11 OFFCURVE",
"344 -11 CURVE SMOOTH",
"403 -11 OFFCURVE",
"445 3 OFFCURVE",
"490 37 CURVE SMOOTH",
"515 56 OFFCURVE",
"522 59 OFFCURVE",
"535 59 CURVE SMOOTH",
"554 59 OFFCURVE",
"570 35 OFFCURVE",
"570 6 CURVE SMOOTH"
);
}
);
};
layerId = "EA94BB3F-1054-4F03-AAB6-69C3B81B3CC3";
paths = (
{
closed = 1;
nodes = (
"482 -13 OFFCURVE",
"570 21 OFFCURVE",
"635 91 CURVE SMOOTH",
"654 112 OFFCURVE",
"671 134 OFFCURVE",
"685 159 CURVE",
"595 159 LINE",
"555 61 OFFCURVE",
"483 2 OFFCURVE",
"392 2 CURVE SMOOTH",
"249 2 OFFCURVE",
"154 144 OFFCURVE",
"154 356 CURVE SMOOTH",
"154 571 OFFCURVE",
"249 715 OFFCURVE",
"392 715 CURVE SMOOTH",
"482 715 OFFCURVE",
"554 657 OFFCURVE",
"593 559 CURVE",
"682 559 LINE",
"669 583 OFFCURVE",
"653 604 OFFCURVE",
"635 622 CURVE SMOOTH",
"573 687 OFFCURVE",
"478 730 OFFCURVE",
"392 730 CURVE SMOOTH",
"305 730 OFFCURVE",
"210 685 OFFCURVE",
"149 622 CURVE SMOOTH",
"88 559 OFFCURVE",
"48 465 OFFCURVE",
"48 356 CURVE SMOOTH",
"48 254 OFFCURVE",
"83 160 OFFCURVE",
"149 91 CURVE SMOOTH",
"214 22 OFFCURVE",
"301 -13 OFFCURVE",
"392 -13 CURVE SMOOTH"
);
}
);
width = 707;
}
);
leftKerningGroup = O;
note = C;
rightKerningGroup = C;
},
{
glyphname = D.90;
lastChange = "2019-09-30 18:55:45 +0000";
layers = (
{
anchors = (
{
name = bottom;
position = "{327, 0}";
},
{
name = center;
position = "{327, 358}";
},
{
name = top;
position = "{327, 715}";
}
);
background = {
paths = (
{
closed = 1;
nodes = (
"18 715 LINE",
"18 697 LINE",
"122 697 LINE",
"122 18 LINE",
"18 18 LINE",
"18 0 LINE",
"299 0 LINE SMOOTH",
"435 0 OFFCURVE",
"493 10 OFFCURVE",
"557 45 CURVE SMOOTH",
"666 105 OFFCURVE",
"730 221 OFFCURVE",
"730 356 CURVE SMOOTH",
"730 525 OFFCURVE",
"630 659 OFFCURVE",
"472 701 CURVE SMOOTH",
"421 714 OFFCURVE",
"404 715 OFFCURVE",
"282 715 CURVE SMOOTH"
);
},
{
closed = 1;
nodes = (
"228 697 LINE",
"236 697 LINE SMOOTH",
"310 697 OFFCURVE",
"310 697 OFFCURVE",
"326 696 CURVE SMOOTH",
"389 691 OFFCURVE",
"440 677 OFFCURVE",
"480 653 CURVE SMOOTH",
"569 599 OFFCURVE",
"613 504 OFFCURVE",
"613 363 CURVE SMOOTH",
"613 258 OFFCURVE",
"594 176 OFFCURVE",
"556 122 CURVE SMOOTH",
"519 66 OFFCURVE",
"444 29 OFFCURVE",
"354 21 CURVE SMOOTH",
"319 18 OFFCURVE",
"301 18 OFFCURVE",
"228 18 CURVE"
);
}
);
};
layerId = "EA94BB3F-1054-4F03-AAB6-69C3B81B3CC3";
paths = (
{
closed = 1;
nodes = (
"229 0 LINE SMOOTH",
"381 0 OFFCURVE",
"445 27 OFFCURVE",
"492 67 CURVE SMOOTH",
"567 130 OFFCURVE",
"605 229 OFFCURVE",
"605 357 CURVE SMOOTH",
"605 421 OFFCURVE",
"595 478 OFFCURVE",
"576 527 CURVE SMOOTH",
"538 625 OFFCURVE",
"469 679 OFFCURVE",
"394 700 CURVE SMOOTH",
"356 710 OFFCURVE",
"304 715 OFFCURVE",
"201 715 CURVE SMOOTH",
"56 715 LINE",
"56 0 LINE"
);
},
{
closed = 1;
nodes = (
"159 697 LINE",
"203 697 LINE SMOOTH",
"439 697 OFFCURVE",
"496 562 OFFCURVE",
"496 358 CURVE SMOOTH",
"496 126 OFFCURVE",
"419 18 OFFCURVE",
"203 18 CURVE SMOOTH",
"159 18 LINE"
);
}
);
width = 653;
}
);
leftKerningGroup = H;
note = D;
rightKerningGroup = O;
},
{
glyphname = G.90;
lastChange = "2019-09-30 18:05:46 +0000";
layers = (
{
anchors = (
{
name = bottom;
position = "{388, 0}";
},
{
name = top;
position = "{392, 715}";
}
);
background = {
paths = (
{
closed = 1;
nodes = (
"647 487 LINE",
"647 703 LINE",
"629 703 LINE",
"625 679 LINE SMOOTH",
"622 662 OFFCURVE",
"612 654 OFFCURVE",
"598 654 CURVE SMOOTH",
"586 654 OFFCURVE",
"582 656 OFFCURVE",
"546 676 CURVE SMOOTH",
"523 688 LINE SMOOTH",
"480 712 OFFCURVE",
"437 723 OFFCURVE",
"388 723 CURVE SMOOTH",
"297 723 OFFCURVE",
"207 683 OFFCURVE",
"141 614 CURVE SMOOTH",
"74 543 OFFCURVE",
"40 452 OFFCURVE",
"40 345 CURVE SMOOTH",
"40 134 OFFCURVE",
"181 -10 OFFCURVE",
"391 -10 CURVE SMOOTH",
"449 -10 OFFCURVE",
"508 3 OFFCURVE",
"563 27 CURVE SMOOTH",
"599 44 OFFCURVE",
"623 59 OFFCURVE",
"673 98 CURVE",
"673 212 LINE",
"762 212 LINE",
"762 230 LINE",
"461 230 LINE",
"461 212 LINE",
"564 212 LINE",
"564 125 LINE SMOOTH",
"564 54 OFFCURVE",
"498 8 OFFCURVE",
"398 8 CURVE SMOOTH",
"233 8 OFFCURVE",
"160 115 OFFCURVE",
"160 356 CURVE SMOOTH",
"160 584 OFFCURVE",
"237 705 OFFCURVE",
"383 705 CURVE SMOOTH",
"458 705 OFFCURVE",
"528 672 OFFCURVE",
"577 613 CURVE SMOOTH",
"608 577 OFFCURVE",
"619 550 OFFCURVE",
"629 487 CURVE"
);
}
);
};
layerId = "EA94BB3F-1054-4F03-AAB6-69C3B81B3CC3";
paths = (
{
closed = 1;
nodes = (
"482 -13 OFFCURVE",
"570 21 OFFCURVE",
"635 91 CURVE SMOOTH",
"691 151 OFFCURVE",
"725 229 OFFCURVE",
"734 315 CURVE",
"628 315 LINE",
"617 126 OFFCURVE",
"525 2 OFFCURVE",
"392 2 CURVE SMOOTH",
"249 2 OFFCURVE",
"154 144 OFFCURVE",
"154 356 CURVE SMOOTH",
"154 571 OFFCURVE",
"249 715 OFFCURVE",
"392 715 CURVE SMOOTH",
"482 715 OFFCURVE",
"554 657 OFFCURVE",
"593 559 CURVE",
"682 559 LINE",
"669 582 OFFCURVE",
"653 604 OFFCURVE",
"635 622 CURVE SMOOTH",
"573 687 OFFCURVE",
"478 730 OFFCURVE",
"392 730 CURVE SMOOTH",
"305 730 OFFCURVE",
"210 685 OFFCURVE",
"149 622 CURVE SMOOTH",
"88 559 OFFCURVE",
"48 465 OFFCURVE",
"48 356 CURVE SMOOTH",
"48 254 OFFCURVE",
"83 160 OFFCURVE",
"149 91 CURVE SMOOTH",
"214 22 OFFCURVE",
"301 -13 OFFCURVE",
"392 -13 CURVE SMOOTH"
);
},
{
closed = 1;
nodes = (
"651 297 LINE",
"651 315 LINE",
"419 315 LINE",
"419 297 LINE"
);
}
);
width = 733;
}
);
leftKerningGroup = O;
note = G;
rightKerningGroup = G;
},
{
glyphname = O.90;
lastChange = "2019-09-30 18:06:02 +0000";
layers = (
{
anchors = (
{
name = bottom;
position = "{365, 0}";
},
{
name = center;
position = "{365, 358}";
},
{
name = ogonek;
position = "{678, 10}";
},
{
name = top;
position = "{365, 715}";
},
{
name = topright;
position = "{738, 715}";
}
);
background = {
paths = (
{
closed = 1;
nodes = (
"269 730 OFFCURVE",
"188 692 OFFCURVE",
"120 626 CURVE SMOOTH",
"49 558 OFFCURVE",
"10 463 OFFCURVE",
"10 366 CURVE SMOOTH",
"10 280 OFFCURVE",
"33 203 OFFCURVE",
"78 137 CURVE SMOOTH",
"142 47 OFFCURVE",
"248 -13 OFFCURVE",
"345 -13 CURVE SMOOTH",
"423 -13 OFFCURVE",
"509 27 OFFCURVE",
"572 92 CURVE SMOOTH",
"641 163 OFFCURVE",
"677 255 OFFCURVE",
"677 356 CURVE SMOOTH",
"677 442 OFFCURVE",
"650 527 OFFCURVE",
"600 592 CURVE SMOOTH",
"536 674 OFFCURVE",
"434 730 OFFCURVE",
"344 730 CURVE SMOOTH"
);
},
{
closed = 1;
nodes = (
"482 714 OFFCURVE",
"559 586 OFFCURVE",
"559 360 CURVE SMOOTH",
"559 121 OFFCURVE",
"488 3 OFFCURVE",
"343 3 CURVE SMOOTH",
"200 3 OFFCURVE",
"129 122 OFFCURVE",
"129 359 CURVE SMOOTH",
"129 592 OFFCURVE",
"204 714 OFFCURVE",
"347 714 CURVE SMOOTH"
);
}
);
};
layerId = "EA94BB3F-1054-4F03-AAB6-69C3B81B3CC3";
paths = (
{
closed = 1;
nodes = (
"455 -13 OFFCURVE",
"543 21 OFFCURVE",
"608 91 CURVE SMOOTH",
"673 160 OFFCURVE",
"708 254 OFFCURVE",
"708 356 CURVE SMOOTH",
"708 463 OFFCURVE",
"670 558 OFFCURVE",
"608 622 CURVE SMOOTH",
"546 687 OFFCURVE",
"451 730 OFFCURVE",
"365 730 CURVE SMOOTH",
"278 730 OFFCURVE",
"183 685 OFFCURVE",
"122 622 CURVE SMOOTH",
"61 559 OFFCURVE",
"21 465 OFFCURVE",
"21 356 CURVE SMOOTH",
"21 254 OFFCURVE",
"56 160 OFFCURVE",
"122 91 CURVE SMOOTH",
"187 22 OFFCURVE",
"274 -13 OFFCURVE",
"365 -13 CURVE SMOOTH"
);
},
{
closed = 1;
nodes = (
"222 2 OFFCURVE",
"127 144 OFFCURVE",
"127 356 CURVE SMOOTH",
"127 571 OFFCURVE",
"222 715 OFFCURVE",
"365 715 CURVE SMOOTH",
"507 715 OFFCURVE",
"602 571 OFFCURVE",
"602 356 CURVE SMOOTH",
"602 144 OFFCURVE",
"507 2 OFFCURVE",
"365 2 CURVE SMOOTH"
);
}
);
width = 729;
}
);
leftKerningGroup = O;
note = O;
rightKerningGroup = O;
},
{
glyphname = Q.90;
lastChange = "2019-09-30 18:07:36 +0000";
layers = (
{
background = {
paths = (
{
closed = 1;
nodes = (
"488 -9 LINE",
"540 4 OFFCURVE",
"569 17 OFFCURVE",
"605 42 CURVE SMOOTH",
"710 110 OFFCURVE",
"771 227 OFFCURVE",
"771 356 CURVE SMOOTH",
"771 442 OFFCURVE",
"744 526 OFFCURVE",
"694 592 CURVE SMOOTH",
"631 673 OFFCURVE",
"527 730 OFFCURVE",
"438 730 CURVE SMOOTH",
"363 730 OFFCURVE",
"278 691 OFFCURVE",
"214 626 CURVE SMOOTH",
"141 553 OFFCURVE",
"104 464 OFFCURVE",
"104 361 CURVE SMOOTH",
"104 182 OFFCURVE",
"216 33 OFFCURVE",
"386 -9 CURVE",
"386 -94 LINE SMOOTH",
"386 -129 OFFCURVE",
"395 -151 OFFCURVE",
"417 -168 CURVE SMOOTH",
"448 -194 OFFCURVE",
"535 -214 OFFCURVE",
"612 -214 CURVE SMOOTH",
"631 -214 OFFCURVE",
"646 -214 OFFCURVE",
"674 -212 CURVE",
"674 -194 LINE",
"650 -196 OFFCURVE",
"630 -197 OFFCURVE",
"615 -197 CURVE SMOOTH",
"573 -197 OFFCURVE",
"535 -189 OFFCURVE",
"512 -174 CURVE SMOOTH",
"494 -162 OFFCURVE",
"488 -146 OFFCURVE",
"488 -110 CURVE SMOOTH"
);
},
{
closed = 1;
nodes = (
"576 714 OFFCURVE",
"653 586 OFFCURVE",
"653 360 CURVE SMOOTH",
"653 121 OFFCURVE",
"582 3 OFFCURVE",
"437 3 CURVE SMOOTH",
"294 3 OFFCURVE",
"223 122 OFFCURVE",
"223 359 CURVE SMOOTH",
"223 592 OFFCURVE",
"298 714 OFFCURVE",
"441 714 CURVE SMOOTH"
);
}
);
};
layerId = "EA94BB3F-1054-4F03-AAB6-69C3B81B3CC3";
paths = (
{
closed = 1;
nodes = (
"475 -17 OFFCURVE",
"571 24 OFFCURVE",
"635 91 CURVE SMOOTH",
"701 160 OFFCURVE",
"735 256 OFFCURVE",
"735 356 CURVE SMOOTH",
"735 463 OFFCURVE",
"697 558 OFFCURVE",
"635 622 CURVE SMOOTH",
"573 687 OFFCURVE",
"478 730 OFFCURVE",
"392 730 CURVE SMOOTH",
"305 730 OFFCURVE",
"210 685 OFFCURVE",
"149 622 CURVE SMOOTH",
"88 559 OFFCURVE",
"48 466 OFFCURVE",
"48 356 CURVE SMOOTH",
"48 253 OFFCURVE",
"83 160 OFFCURVE",
"149 91 CURVE SMOOTH",
"212 25 OFFCURVE",
"295 -12 OFFCURVE",
"383 -12 CURVE"
);
},
{
closed = 1;
nodes = (
"579 -204 OFFCURVE",
"598 -196 OFFCURVE",
"598 -175 CURVE",
"548 -175 LINE SMOOTH",
"477 -175 OFFCURVE",
"441 -136 OFFCURVE",
"441 -98 CURVE SMOOTH",
"441 6 LINE",
"344 6 LINE",
"344 -91 LINE SMOOTH",
"344 -143 OFFCURVE",
"377 -172 OFFCURVE",
"416 -186 CURVE SMOOTH",
"447 -197 OFFCURVE",
"497 -204 OFFCURVE",
"541 -204 CURVE SMOOTH"
);
},
{
closed = 1;
nodes = (
"249 2 OFFCURVE",
"154 144 OFFCURVE",
"154 356 CURVE SMOOTH",
"154 571 OFFCURVE",
"249 715 OFFCURVE",
"392 715 CURVE SMOOTH",
"534 715 OFFCURVE",
"629 571 OFFCURVE",
"629 356 CURVE SMOOTH",
"629 144 OFFCURVE",
"534 2 OFFCURVE",
"392 2 CURVE SMOOTH"
);
}
);
width = 783;
}
);
leftKerningGroup = O;
note = Q;
rightKerningGroup = O;
},
{
glyphname = S.90;
lastChange = "2019-09-30 18:57:12 +0000";
layers = (
{
anchors = (
{
name = bottom;
position = "{284, 0}";
},
{
name = top;
position = "{271, 715}";
}
);
background = {
paths = (
{
closed = 1;
nodes = (
"67 255 LINE",
"67 -8 LINE",
"85 -8 LINE",
"89 28 OFFCURVE",
"95 40 OFFCURVE",
"113 40 CURVE SMOOTH",
"123 40 OFFCURVE",
"135 36 OFFCURVE",
"153 30 CURVE",
"186 16 LINE SMOOTH",
"245 -6 OFFCURVE",
"278 -14 OFFCURVE",
"330 -14 CURVE SMOOTH",
"466 -14 OFFCURVE",
"560 79 OFFCURVE",
"560 215 CURVE SMOOTH",
"560 282 OFFCURVE",
"537 337 OFFCURVE",
"496 369 CURVE SMOOTH",
"463 393 OFFCURVE",
"415 409 OFFCURVE",
"345 420 CURVE SMOOTH",
"291 428 LINE SMOOTH",
"164 446 OFFCURVE",
"116 482 OFFCURVE",
"116 564 CURVE SMOOTH",
"116 653 OFFCURVE",
"183 714 OFFCURVE",
"280 714 CURVE SMOOTH",
"351 714 OFFCURVE",
"421 681 OFFCURVE",
"457 628 CURVE SMOOTH",
"485 589 OFFCURVE",
"498 550 OFFCURVE",
"501 492 CURVE",
"519 492 LINE",
"519 706 LINE",
"501 706 LINE",
"499 675 OFFCURVE",
"492 664 OFFCURVE",
"476 665 CURVE",
"469 665 OFFCURVE",
"463 667 OFFCURVE",
"455 671 CURVE SMOOTH",
"439 681 LINE SMOOTH",
"362 725 OFFCURVE",
"342 731 OFFCURVE",
"288 731 CURVE SMOOTH",
"160 731 OFFCURVE",
"72 643 OFFCURVE",
"72 517 CURVE SMOOTH",
"72 459 OFFCURVE",
"92 405 OFFCURVE",
"123 374 CURVE SMOOTH",
"151 346 OFFCURVE",
"197 329 OFFCURVE",
"275 317 CURVE SMOOTH",
"331 308 LINE SMOOTH",
"404 297 OFFCURVE",
"439 285 OFFCURVE",
"468 262 CURVE",
"498 239 OFFCURVE",
"513 207 OFFCURVE",
"513 167 CURVE SMOOTH",
"513 70 OFFCURVE",
"438 3 OFFCURVE",
"329 3 CURVE SMOOTH",
"242 3 OFFCURVE",
"158 48 OFFCURVE",
"119 118 CURVE SMOOTH",
"98 153 OFFCURVE",
"91 187 OFFCURVE",
"85 255 CURVE"
);
}
);
};
layerId = "EA94BB3F-1054-4F03-AAB6-69C3B81B3CC3";
paths = (
{
closed = 1;
nodes = (
"448 -13 OFFCURVE",
"526 71 OFFCURVE",
"526 220 CURVE SMOOTH",
"526 370 OFFCURVE",
"407 417 OFFCURVE",
"297 438 CURVE SMOOTH",
"212 454 OFFCURVE",
"139 502 OFFCURVE",
"139 582 CURVE SMOOTH",
"139 650 OFFCURVE",
"193 712 OFFCURVE",
"262 712 CURVE SMOOTH",
"338 712 OFFCURVE",
"390 638 OFFCURVE",
"396 560 CURVE",
"492 560 LINE",
"469 684 OFFCURVE",
"371 732 OFFCURVE",
"270 732 CURVE SMOOTH",
"111 732 OFFCURVE",
"60 612 OFFCURVE",
"60 522 CURVE SMOOTH",
"60 384 OFFCURVE",
"176 346 OFFCURVE",
"267 321 CURVE SMOOTH",
"341 301 OFFCURVE",
"444 291 OFFCURVE",
"444 185 CURVE SMOOTH",
"444 92 OFFCURVE",
"368 14 OFFCURVE",
"293 14 CURVE SMOOTH",
"211 14 OFFCURVE",
"153 106 OFFCURVE",
"143 210 CURVE",
"41 210 LINE",
"58 27 OFFCURVE",
"176 -13 OFFCURVE",
"286 -13 CURVE SMOOTH"
);
}
);
width = 553;
},
{
associatedMasterId = "EA94BB3F-1054-4F03-AAB6-69C3B81B3CC3";
background = {
paths = (
{
closed = 1;
nodes = (
"61 255 LINE",
"61 -8 LINE",
"79 -8 LINE",
"83 28 OFFCURVE",
"89 40 OFFCURVE",
"107 40 CURVE SMOOTH",
"117 40 OFFCURVE",
"129 36 OFFCURVE",
"147 30 CURVE",
"180 16 LINE SMOOTH",
"239 -6 OFFCURVE",
"272 -14 OFFCURVE",
"324 -14 CURVE SMOOTH",
"460 -14 OFFCURVE",
"554 79 OFFCURVE",
"554 215 CURVE SMOOTH",
"554 282 OFFCURVE",
"531 337 OFFCURVE",
"490 369 CURVE SMOOTH",
"457 393 OFFCURVE",
"409 409 OFFCURVE",
"339 420 CURVE SMOOTH",
"285 428 LINE SMOOTH",
"158 446 OFFCURVE",
"110 482 OFFCURVE",
"110 564 CURVE SMOOTH",
"110 653 OFFCURVE",
"177 714 OFFCURVE",
"274 714 CURVE SMOOTH",
"345 714 OFFCURVE",
"415 681 OFFCURVE",
"451 628 CURVE SMOOTH",
"479 589 OFFCURVE",
"492 550 OFFCURVE",
"495 492 CURVE",
"513 492 LINE",
"513 706 LINE",
"495 706 LINE",
"493 675 OFFCURVE",
"486 664 OFFCURVE",
"470 665 CURVE",
"463 665 OFFCURVE",
"457 667 OFFCURVE",
"449 671 CURVE SMOOTH",
"433 681 LINE SMOOTH",
"356 725 OFFCURVE",
"336 731 OFFCURVE",
"282 731 CURVE SMOOTH",
"154 731 OFFCURVE",
"66 643 OFFCURVE",
"66 517 CURVE SMOOTH",
"66 459 OFFCURVE",
"86 405 OFFCURVE",
"117 374 CURVE SMOOTH",
"145 346 OFFCURVE",
"191 329 OFFCURVE",
"269 317 CURVE SMOOTH",
"325 308 LINE SMOOTH",
"398 297 OFFCURVE",
"433 285 OFFCURVE",
"462 262 CURVE",
"492 239 OFFCURVE",
"507 207 OFFCURVE",
"507 167 CURVE SMOOTH",
"507 70 OFFCURVE",
"432 3 OFFCURVE",
"323 3 CURVE SMOOTH",
"236 3 OFFCURVE",
"152 48 OFFCURVE",
"113 118 CURVE SMOOTH",
"92 153 OFFCURVE",
"85 187 OFFCURVE",
"79 255 CURVE"
);
}
);
};
layerId = "F316E7BC-0223-4E5C-A467-02236A855F32";
name = "Regular Sep 21 15, 01:08";
paths = (
{
closed = 1;
nodes = (
"466 -13 OFFCURVE",
"546 114 OFFCURVE",
"546 232 CURVE SMOOTH",
"546 378 OFFCURVE",
"425 419 OFFCURVE",
"332 445 CURVE SMOOTH",
"212 479 OFFCURVE",
"133 485 OFFCURVE",
"133 570 CURVE SMOOTH",
"133 644 OFFCURVE",
"194 710 OFFCURVE",
"270 710 CURVE SMOOTH",
"349 710 OFFCURVE",
"405 637 OFFCURVE",
"425 560 CURVE",
"520 560 LINE",
"515 674 OFFCURVE",
"387 732 OFFCURVE",
"280 732 CURVE SMOOTH",
"131 732 OFFCURVE",
"67 621 OFFCURVE",
"67 518 CURVE SMOOTH",
"67 447 OFFCURVE",
"99 362 OFFCURVE",
"269 331 CURVE SMOOTH",
"353 316 OFFCURVE",
"479 276 OFFCURVE",
"479 184 CURVE SMOOTH",
"479 107 OFFCURVE",
"392 11 OFFCURVE",
"313 11 CURVE SMOOTH",
"233 11 OFFCURVE",
"138 106 OFFCURVE",
"128 210 CURVE",
"29 210 LINE",
"44 37 OFFCURVE",
"199 -13 OFFCURVE",
"302 -13 CURVE SMOOTH"
);
}
);
width = 784;
}
);
leftKerningGroup = S;
note = S;
rightKerningGroup = S;
},
{
glyphname = U.90;
lastChange = "2019-09-30 18:58:34 +0000";
layers = (
{
anchors = (
{
name = bottom;
position = "{319, 0}";
},
{
name = ogonek;
position = "{435, 10}";
},
{
name = top;
position = "{319, 715}";
},
{
name = topright;
position = "{625, 715}";
}
);
background = {
paths = (
{
closed = 1;
nodes = (
"768 697 LINE",
"768 715 LINE",
"521 715 LINE",
"521 697 LINE",
"573 697 LINE SMOOTH",
"635 697 OFFCURVE",
"646 684 OFFCURVE",
"646 609 CURVE SMOOTH",
"646 240 LINE SMOOTH",
"646 158 OFFCURVE",
"636 120 OFFCURVE",
"605 80 CURVE SMOOTH",
"564 29 OFFCURVE",
"503 4 OFFCURVE",
"421 4 CURVE SMOOTH",
"343 4 OFFCURVE",
"287 25 OFFCURVE",
"248 64 CURVE SMOOTH",
"218 96 OFFCURVE",
"212 123 OFFCURVE",
"212 218 CURVE SMOOTH",
"212 697 LINE",
"323 697 LINE",
"323 715 LINE",
"2 715 LINE",
"2 697 LINE",
"105 697 LINE",
"105 223 LINE SMOOTH",
"105 125 OFFCURVE",
"111 100 OFFCURVE",
"141 65 CURVE SMOOTH",
"188 11 OFFCURVE",
"268 -15 OFFCURVE",
"394 -15 CURVE SMOOTH",
"485 -15 OFFCURVE",
"547 2 OFFCURVE",
"593 41 CURVE SMOOTH",
"644 84 OFFCURVE",
"664 141 OFFCURVE",
"664 243 CURVE SMOOTH",
"664 609 LINE SMOOTH",
"664 682 OFFCURVE",
"675 697 OFFCURVE",
"724 697 CURVE SMOOTH"
);
}
);
};
layerId = "EA94BB3F-1054-4F03-AAB6-69C3B81B3CC3";
paths = (
{
closed = 1;
nodes = (
"454 -13 OFFCURVE",
"583 38 OFFCURVE",
"583 310 CURVE SMOOTH",
"583 715 LINE",
"562 715 LINE",
"562 310 LINE SMOOTH",
"562 70 OFFCURVE",
"443 19 OFFCURVE",
"330 19 CURVE SMOOTH",
"224 19 OFFCURVE",
"159 69 OFFCURVE",
"159 280 CURVE SMOOTH",
"159 715 LINE",
"56 715 LINE",
"56 280 LINE SMOOTH",
"56 88 OFFCURVE",
"165 -13 OFFCURVE",
"330 -13 CURVE SMOOTH"
);
}
);
width = 639;
},
{
associatedMasterId = "EA94BB3F-1054-4F03-AAB6-69C3B81B3CC3";
background = {
paths = (
{
closed = 1;
nodes = (
"722 650 LINE",
"722 667 LINE",
"492 667 LINE",
"492 650 LINE",
"540 650 LINE SMOOTH",
"598 650 OFFCURVE",
"608 638 OFFCURVE",
"608 568 CURVE SMOOTH",
"608 224 LINE SMOOTH",
"608 147 OFFCURVE",
"599 112 OFFCURVE",
"570 75 CURVE SMOOTH",
"532 27 OFFCURVE",
"475 4 OFFCURVE",
"398 4 CURVE SMOOTH",
"326 4 OFFCURVE",
"273 23 OFFCURVE",
"237 60 CURVE SMOOTH",
"209 90 OFFCURVE",
"203 115 OFFCURVE",
"203 203 CURVE SMOOTH",
"203 650 LINE",
"307 650 LINE",
"307 667 LINE",
"7 667 LINE",
"7 650 LINE",
"104 650 LINE",
"104 208 LINE SMOOTH",
"104 117 OFFCURVE",
"109 93 OFFCURVE",
"137 61 CURVE SMOOTH",
"181 10 OFFCURVE",
"256 -14 OFFCURVE",
"373 -14 CURVE SMOOTH",
"458 -14 OFFCURVE",
"516 2 OFFCURVE",
"559 38 CURVE SMOOTH",
"606 78 OFFCURVE",
"625 132 OFFCURVE",
"625 227 CURVE SMOOTH",
"625 568 LINE SMOOTH",
"625 636 OFFCURVE",
"635 650 OFFCURVE",
"681 650 CURVE SMOOTH"
);
}
);
};
layerId = "D5373BAD-2ADC-4B72-8FF4-EE0AE5993387";
name = guide;
paths = (
{
closed = 1;
nodes = (
"522 -13 OFFCURVE",
"654 118 OFFCURVE",
"654 280 CURVE SMOOTH",
"654 441 OFFCURVE",
"522 572 OFFCURVE",
"361 572 CURVE SMOOTH",
"200 572 OFFCURVE",
"68 441 OFFCURVE",
"68 280 CURVE SMOOTH",
"68 118 OFFCURVE",
"200 -13 OFFCURVE",
"361 -13 CURVE SMOOTH"
);
}
);
width = 720;
}
);
leftKerningGroup = U;
note = U;
rightKerningGroup = U;
},
{
glyphname = K.start;
lastChange = "2015-10-08 20:58:16 +0000";
layers = (
{
background = {
paths = (
{
closed = 1;
nodes = (
"317 426 LINE",
"473 566 LINE SMOOTH",
"525 614 OFFCURVE",
"585 660 OFFCURVE",
"624 682 CURVE SMOOTH",
"643 692 OFFCURVE",
"661 697 OFFCURVE",
"690 697 CURVE SMOOTH",
"747 697 LINE",
"747 715 LINE",
"442 715 LINE",
"442 697 LINE",
"496 697 LINE SMOOTH",
"535 697 OFFCURVE",
"547 692 OFFCURVE",
"547 677 CURVE SMOOTH",
"547 664 OFFCURVE",
"527 639 OFFCURVE",
"493 608 CURVE SMOOTH",
"226 368 LINE",
"226 697 LINE",
"333 697 LINE",
"333 715 LINE",
"18 715 LINE",
"18 697 LINE",
"122 697 LINE",
"122 18 LINE",
"18 18 LINE",
"18 0 LINE",
"339 0 LINE",
"339 18 LINE",
"226 18 LINE",
"226 344 LINE",
"239 356 LINE",
"518 18 LINE",
"417 18 LINE",
"417 0 LINE",
"765 0 LINE",
"765 18 LINE",
"662 18 LINE"
);
}
);
};
layerId = "EA94BB3F-1054-4F03-AAB6-69C3B81B3CC3";
paths = (
{
closed = 1;
nodes = (
"673 0 LINE",
"213 547 LINE",
"134 481 LINE",
"594 -67 LINE"
);
},
{
closed = 1;
nodes = (
"189 0 LINE",
"189 715 LINE",
"86 715 LINE",
"86 0 LINE"
);
},
{
closed = 1;
nodes = (
"572 733 LINE",
"558 745 LINE",
"173 286 LINE",
"187 274 LINE"
);
}
);
width = 591;
}
);
leftKerningGroup = K.start;
note = K;
rightKerningGroup = K.start;
},
{
glyphname = K.v;
lastChange = "2015-10-08 20:58:16 +0000";
layers = (
{
background = {
paths = (
{
closed = 1;
nodes = (
"317 426 LINE",
"473 566 LINE SMOOTH",
"525 614 OFFCURVE",
"585 660 OFFCURVE",
"624 682 CURVE SMOOTH",
"643 692 OFFCURVE",
"661 697 OFFCURVE",
"690 697 CURVE SMOOTH",
"747 697 LINE",
"747 715 LINE",
"442 715 LINE",
"442 697 LINE",
"496 697 LINE SMOOTH",
"535 697 OFFCURVE",
"547 692 OFFCURVE",
"547 677 CURVE SMOOTH",
"547 664 OFFCURVE",
"527 639 OFFCURVE",
"493 608 CURVE SMOOTH",
"226 368 LINE",
"226 697 LINE",
"333 697 LINE",
"333 715 LINE",
"18 715 LINE",
"18 697 LINE",
"122 697 LINE",
"122 18 LINE",
"18 18 LINE",
"18 0 LINE",
"339 0 LINE",
"339 18 LINE",
"226 18 LINE",
"226 344 LINE",
"239 356 LINE",
"518 18 LINE",
"417 18 LINE",
"417 0 LINE",
"765 0 LINE",
"765 18 LINE",
"662 18 LINE"
);
}
);
};
layerId = "EA94BB3F-1054-4F03-AAB6-69C3B81B3CC3";
paths = (
{
closed = 1;
nodes = (
"673 0 LINE",
"322.493 416.799 LINE",
"626 721 LINE",
"613 734 LINE",
"311 431 LINE",
"213 547 LINE",
"134 481 LINE",
"238 358 LINE",
"176 296 LINE",
"189 283 LINE",
"249.393 343.531 LINE",
"594 -67 LINE"
);
},
{
closed = 1;
nodes = (
"189 0 LINE",
"189 715 LINE",
"86 715 LINE",
"86 0 LINE"
);
}
);
width = 591;
}
);
leftKerningGroup = K.v;
note = K;
rightKerningGroup = K.v;
},
{
glyphname = K.v001;
lastChange = "2015-10-08 20:58:20 +0000";
layers = (
{
background = {
paths = (
{
closed = 1;
nodes = (
"317 426 LINE",
"473 566 LINE SMOOTH",
"525 614 OFFCURVE",
"585 660 OFFCURVE",
"624 682 CURVE SMOOTH",
"643 692 OFFCURVE",
"661 697 OFFCURVE",
"690 697 CURVE SMOOTH",
"747 697 LINE",
"747 715 LINE",
"442 715 LINE",
"442 697 LINE",
"496 697 LINE SMOOTH",
"535 697 OFFCURVE",
"547 692 OFFCURVE",
"547 677 CURVE SMOOTH",
"547 664 OFFCURVE",
"527 639 OFFCURVE",
"493 608 CURVE SMOOTH",
"226 368 LINE",
"226 697 LINE",
"333 697 LINE",
"333 715 LINE",
"18 715 LINE",
"18 697 LINE",
"122 697 LINE",
"122 18 LINE",
"18 18 LINE",
"18 0 LINE",
"339 0 LINE",
"339 18 LINE",
"226 18 LINE",
"226 344 LINE",
"239 356 LINE",
"518 18 LINE",
"417 18 LINE",
"417 0 LINE",
"765 0 LINE",
"765 18 LINE",
"662 18 LINE"
);
}
);
};
layerId = "EA94BB3F-1054-4F03-AAB6-69C3B81B3CC3";
paths = (
{
closed = 1;
nodes = (
"189 0 LINE",
"189 283 LINE",
"249 344 LINE",
"538 0 LINE",
"673 0 LINE",
"322 417 LINE",
"620 715 LINE",
"594 715 LINE",
"189 309 LINE",
"189 715 LINE",
"86 715 LINE",
"86 0 LINE"
);
}
);
width = 591;
}
);
leftKerningGroup = K.v001;
note = K;
rightKerningGroup = K.v001;
},
{
glyphname = K.v002;
lastChange = "2015-10-08 20:58:20 +0000";
layers = (
{
background = {
paths = (
{
closed = 1;
nodes = (
"317 426 LINE",
"473 566 LINE SMOOTH",
"525 614 OFFCURVE",
"585 660 OFFCURVE",
"624 682 CURVE SMOOTH",
"643 692 OFFCURVE",
"661 697 OFFCURVE",
"690 697 CURVE SMOOTH",
"747 697 LINE",
"747 715 LINE",
"442 715 LINE",
"442 697 LINE",
"496 697 LINE SMOOTH",
"535 697 OFFCURVE",
"547 692 OFFCURVE",
"547 677 CURVE SMOOTH",
"547 664 OFFCURVE",
"527 639 OFFCURVE",
"493 608 CURVE SMOOTH",
"226 368 LINE",
"226 697 LINE",
"333 697 LINE",
"333 715 LINE",
"18 715 LINE",
"18 697 LINE",
"122 697 LINE",
"122 18 LINE",
"18 18 LINE",
"18 0 LINE",
"339 0 LINE",
"339 18 LINE",
"226 18 LINE",
"226 344 LINE",
"239 356 LINE",
"518 18 LINE",
"417 18 LINE",
"417 0 LINE",
"765 0 LINE",
"765 18 LINE",
"662 18 LINE"
);
}
);
};
layerId = "EA94BB3F-1054-4F03-AAB6-69C3B81B3CC3";
paths = (
{
closed = 1;
nodes = (
"189 0 LINE",
"189 357 LINE",
"488 0 LINE",
"623 0 LINE",
"272 417 LINE",
"570 715 LINE",
"544 715 LINE",
"189 359.003 LINE",
"189 715 LINE",
"86 715 LINE",
"86 0 LINE"
);
}
);
width = 591;
}
);
leftKerningGroup = K.v002;
note = K;
rightKerningGroup = K.v002;
},
{
glyphname = a;
lastChange = "2015-10-08 20:58:16 +0000";
layers = (
{
anchors = (
{
name = bottom;
position = "{271, 0}";
},
{
name = ogonek;
position = "{548, 10}";
},
{
name = top;
position = "{271, 457}";
}
);
background = {
paths = (
{
closed = 1;
nodes = (
"361 260 LINE",
"354 260 LINE SMOOTH",
"274 260 OFFCURVE",
"180 245 OFFCURVE",
"122 223 CURVE SMOOTH",
"67 203 OFFCURVE",
"24 143 OFFCURVE",
"24 93 CURVE SMOOTH",
"24 26 OFFCURVE",
"91 -19 OFFCURVE",
"192 -19 CURVE SMOOTH",
"271 -19 OFFCURVE",
"335 16 OFFCURVE",
"365 66 CURVE",
"373 18 OFFCURVE",
"406 -8 OFFCURVE",
"458 -8 CURVE SMOOTH",
"501 -8 OFFCURVE",
"533 12 OFFCURVE",
"555 53 CURVE",
"540 61 LINE",
"522 31 OFFCURVE",
"505 17 OFFCURVE",
"486 17 CURVE SMOOTH",
"457 17 OFFCURVE",
"453 36 OFFCURVE",
"453 140 CURVE SMOOTH",
"453 329 LINE SMOOTH",
"453 376 OFFCURVE",
"440 396 OFFCURVE",
"400 422 CURVE SMOOTH",
"356 448 OFFCURVE",
"301 463 OFFCURVE",
"245 463 CURVE SMOOTH",
"145 463 OFFCURVE",
"62 407 OFFCURVE",
"62 339 CURVE SMOOTH",
"62 306 OFFCURVE",
"84 283 OFFCURVE",
"113 283 CURVE SMOOTH",
"142 283 OFFCURVE",
"162 304 OFFCURVE",
"162 333 CURVE SMOOTH",
"162 350 OFFCURVE",
"157 359 OFFCURVE",
"138 373 CURVE SMOOTH",
"129 380 OFFCURVE",
"126 385 OFFCURVE",
"126 392 CURVE SMOOTH",
"126 423 OFFCURVE",
"177 445 OFFCURVE",
"247 445 CURVE SMOOTH",
"271 445 OFFCURVE",
"294 443 OFFCURVE",
"309 439 CURVE SMOOTH",
"349 430 OFFCURVE",
"361 411 OFFCURVE",
"361 361 CURVE SMOOTH"
);
},
{
closed = 1;
nodes = (
"361 243 LINE",
"361 92 LINE",
"341 46 OFFCURVE",
"284 7 OFFCURVE",
"223 7 CURVE SMOOTH",
"152 7 OFFCURVE",
"127 36 OFFCURVE",
"127 115 CURVE SMOOTH",
"127 158 OFFCURVE",
"136 191 OFFCURVE",
"158 207 CURVE SMOOTH",
"189 229 OFFCURVE",
"262 243 OFFCURVE",
"353 243 CURVE SMOOTH"
);
}
);
};
layerId = "EA94BB3F-1054-4F03-AAB6-69C3B81B3CC3";
paths = (
{
closed = 1;
nodes = (
"325 -23 OFFCURVE",
"371 17 OFFCURVE",
"406 81 CURVE",
"406 0 LINE",
"507 0 LINE",
"507 457 LINE",
"404 457 LINE",
"404 363 LINE",
"370 429 OFFCURVE",
"323 470 OFFCURVE",
"241 470 CURVE SMOOTH",
"113 470 OFFCURVE",
"30 366 OFFCURVE",
"30 222 CURVE SMOOTH",
"30 77 OFFCURVE",
"115 -23 OFFCURVE",
"244 -23 CURVE SMOOTH"
);
},
{
closed = 1;
nodes = (
"160 -2 OFFCURVE",
"133 121 OFFCURVE",
"133 231 CURVE SMOOTH",
"133 344 OFFCURVE",
"168 449 OFFCURVE",
"255 449 CURVE SMOOTH",
"345 449 OFFCURVE",
"406 329 OFFCURVE",
"406 221 CURVE SMOOTH",
"406 117 OFFCURVE",
"350 -2 OFFCURVE",
"256 -2 CURVE SMOOTH"
);
}
);
width = 555;
},
{
anchors = (
{
name = bottom;
position = "{285, 0}";
},
{
name = ogonek;
position = "{512, 10}";
},
{
name = top;
position = "{285, 457}";
}
);
associatedMasterId = "EA94BB3F-1054-4F03-AAB6-69C3B81B3CC3";
background = {
paths = (
{
closed = 1;
nodes = (
"375 260 LINE",
"368 260 LINE SMOOTH",
"288 260 OFFCURVE",
"194 245 OFFCURVE",
"136 223 CURVE SMOOTH",
"81 203 OFFCURVE",
"38 143 OFFCURVE",
"38 93 CURVE SMOOTH",
"38 26 OFFCURVE",
"105 -19 OFFCURVE",
"206 -19 CURVE SMOOTH",
"285 -19 OFFCURVE",
"349 16 OFFCURVE",
"379 66 CURVE",
"387 18 OFFCURVE",
"420 -8 OFFCURVE",
"472 -8 CURVE SMOOTH",
"515 -8 OFFCURVE",
"547 12 OFFCURVE",
"569 53 CURVE",
"554 61 LINE",
"536 31 OFFCURVE",
"519 17 OFFCURVE",
"500 17 CURVE SMOOTH",
"471 17 OFFCURVE",
"467 36 OFFCURVE",
"467 140 CURVE SMOOTH",
"467 329 LINE SMOOTH",
"467 376 OFFCURVE",
"454 396 OFFCURVE",
"414 422 CURVE SMOOTH",
"370 448 OFFCURVE",
"315 463 OFFCURVE",
"259 463 CURVE SMOOTH",
"159 463 OFFCURVE",
"76 407 OFFCURVE",
"76 339 CURVE SMOOTH",
"76 306 OFFCURVE",
"98 283 OFFCURVE",
"127 283 CURVE SMOOTH",
"156 283 OFFCURVE",
"176 304 OFFCURVE",
"176 333 CURVE SMOOTH",
"176 350 OFFCURVE",
"171 359 OFFCURVE",
"152 373 CURVE SMOOTH",
"143 380 OFFCURVE",
"140 385 OFFCURVE",
"140 392 CURVE SMOOTH",
"140 423 OFFCURVE",
"191 445 OFFCURVE",
"261 445 CURVE SMOOTH",
"285 445 OFFCURVE",
"308 443 OFFCURVE",
"323 439 CURVE SMOOTH",
"363 430 OFFCURVE",
"375 411 OFFCURVE",
"375 361 CURVE SMOOTH"
);
},
{
closed = 1;
nodes = (
"375 243 LINE",
"375 92 LINE",
"355 46 OFFCURVE",
"298 7 OFFCURVE",
"237 7 CURVE SMOOTH",
"166 7 OFFCURVE",
"141 36 OFFCURVE",
"141 115 CURVE SMOOTH",
"141 158 OFFCURVE",
"150 191 OFFCURVE",
"172 207 CURVE SMOOTH",
"203 229 OFFCURVE",
"276 243 OFFCURVE",
"367 243 CURVE SMOOTH"
);
}
);
};
layerId = "5BFE7EAB-6EA0-4F97-81A2-4B37566B83F7";
name = "Regular Sep 22 15, 14:13";
paths = (
{
closed = 1;
nodes = (
"327 -26 OFFCURVE",
"362 3 OFFCURVE",
"394 81 CURVE",
"394 0 LINE",
"494 0 LINE",
"494 457 LINE",
"392 457 LINE",
"392 363 LINE",
"362 441 OFFCURVE",
"323 470 OFFCURVE",
"254 470 CURVE SMOOTH",
"126 470 OFFCURVE",
"44 364 OFFCURVE",
"44 222 CURVE SMOOTH",
"44 77 OFFCURVE",
"129 -26 OFFCURVE",
"258 -26 CURVE SMOOTH"
);
},
{
closed = 1;
nodes = (
"186 -2 OFFCURVE",
"146 129 OFFCURVE",
"146 226 CURVE SMOOTH",
"146 334 OFFCURVE",
"187 449 OFFCURVE",
"271 449 CURVE SMOOTH",
"357 449 OFFCURVE",
"394 331 OFFCURVE",
"394 219 CURVE SMOOTH",
"394 86 OFFCURVE",
"346 -2 OFFCURVE",
"274 -2 CURVE SMOOTH"
);
}
);
width = 569;
}
);
leftKerningGroup = a;
note = a;
rightKerningGroup = n;
unicode = 0061;
},
{
glyphname = ae;
lastChange = "2015-10-08 20:58:16 +0000";
layers = (
{
anchors = (
{
name = bottom;
position = "{457, 0}";
},
{
name = top;
position = "{457, 457}";
}
);
background = {
paths = (
{
closed = 1;
nodes = (
"677 136 LINE",
"675 126 LINE SMOOTH",
"660 54 OFFCURVE",
"591 2 OFFCURVE",
"511 2 CURVE SMOOTH",
"470 2 OFFCURVE",
"438 15 OFFCURVE",
"420 39 CURVE SMOOTH",
"402 62 OFFCURVE",
"396 88 OFFCURVE",
"396 144 CURVE SMOOTH",
"396 152 LINE",
"397 231 LINE",
"658 231 LINE SMOOTH",
"685 231 OFFCURVE",
"686 231 OFFCURVE",
"686 238 CURVE SMOOTH",
"686 252 OFFCURVE",
"671 294 OFFCURVE",
"658 315 CURVE SMOOTH",
"623 373 OFFCURVE",
"561 409 OFFCURVE",
"497 409 CURVE SMOOTH",
"448 409 OFFCURVE",
"405 392 OFFCURVE",
"370 360 CURVE",
"340 392 OFFCURVE",
"291 409 OFFCURVE",
"226 409 CURVE SMOOTH",
"134 409 OFFCURVE",
"64 363 OFFCURVE",
"64 302 CURVE SMOOTH",
"64 274 OFFCURVE",
"84 252 OFFCURVE",
"111 252 CURVE SMOOTH",
"134 252 OFFCURVE",
"152 270 OFFCURVE",
"152 294 CURVE SMOOTH",
"152 308 OFFCURVE",
"145 322 OFFCURVE",
"134 329 CURVE SMOOTH",
"122 337 OFFCURVE",
"119 341 OFFCURVE",
"119 348 CURVE SMOOTH",
"119 374 OFFCURVE",
"164 395 OFFCURVE",
"220 395 CURVE SMOOTH",
"247 395 OFFCURVE",
"274 390 OFFCURVE",
"287 382 CURVE",
"306 372 OFFCURVE",
"311 354 OFFCURVE",
"311 300 CURVE SMOOTH",
"311 224 LINE",
"246 223 OFFCURVE",
"217 220 OFFCURVE",
"179 214 CURVE SMOOTH",
"87 198 OFFCURVE",
"32 150 OFFCURVE",
"32 87 CURVE SMOOTH",
"32 28 OFFCURVE",
"87 -10 OFFCURVE",
"172 -10 CURVE SMOOTH",
"240 -10 OFFCURVE",
"291 12 OFFCURVE",
"322 55 CURVE",
"345 13 OFFCURVE",
"410 -13 OFFCURVE",
"495 -13 CURVE SMOOTH",
"556 -13 OFFCURVE",
"591 -3 OFFCURVE",
"626 24 CURVE SMOOTH",
"659 49 OFFCURVE",
"683 86 OFFCURVE",
"691 124 CURVE",
"693 132 LINE"
);
},
{
closed = 1;
nodes = (
"312 100 LINE SMOOTH",
"312 72 OFFCURVE",
"311 65 OFFCURVE",
"306 58 CURVE SMOOTH",
"287 32 OFFCURVE",
"240 11 OFFCURVE",
"197 11 CURVE SMOOTH",
"143 11 OFFCURVE",
"120 39 OFFCURVE",
"120 104 CURVE SMOOTH",
"120 156 OFFCURVE",
"135 181 OFFCURVE",
"174 194 CURVE SMOOTH",
"208 206 OFFCURVE",
"235 209 OFFCURVE",
"312 209 CURVE"
);
},
{
closed = 1;
nodes = (
"397 247 LINE",
"397 273 LINE SMOOTH",
"397 321 OFFCURVE",
"401 341 OFFCURVE",
"416 361 CURVE",
"433 382 OFFCURVE",
"462 395 OFFCURVE",
"496 395 CURVE SMOOTH",
"539 395 OFFCURVE",
"568 377 OFFCURVE",
"579 345 CURVE SMOOTH",
"585 329 OFFCURVE",
"588 300 OFFCURVE",
"588 265 CURVE SMOOTH",
"588 256 OFFCURVE",
"588 251 OFFCURVE",
"587 249 CURVE SMOOTH",
"586 247 OFFCURVE",
"586 247 OFFCURVE",
"555 247 CURVE SMOOTH"
);
}
);
};
guideLines = (
{
position = "{352, 363}";
},
{
position = "{368, 80}";
},
{
angle = 90;
position = "{883, 179}";
}
);
layerId = "EA94BB3F-1054-4F03-AAB6-69C3B81B3CC3";
paths = (
{
closed = 1;
nodes = (
"325 -23 OFFCURVE",
"371 17 OFFCURVE",
"406 81 CURVE",
"406 0 LINE",
"507 0 LINE",
"507 82.087 LINE",
"538 16 OFFCURVE",
"619 -23 OFFCURVE",
"703 -23 CURVE SMOOTH",
"810 -23 OFFCURVE",
"871 40 OFFCURVE",
"910 135 CURVE",
"870 135 LINE",
"854 64 OFFCURVE",
"777 -2 OFFCURVE",
"713 -2 CURVE SMOOTH",
"623 -2 OFFCURVE",
"563 128 OFFCURVE",
"563 222 CURVE SMOOTH",
"563 234 OFFCURVE",
"564 245 OFFCURVE",
"565 252 CURVE",
"924 252 LINE",
"906 383 OFFCURVE",
"819 470 OFFCURVE",
"703 470 CURVE SMOOTH",
"624 470 OFFCURVE",
"538 430 OFFCURVE",
"507 363.714 CURVE",
"507 457 LINE",
"404 457 LINE",
"404 363 LINE",
"370 429 OFFCURVE",
"321 470 OFFCURVE",
"241 470 CURVE SMOOTH",
"113 470 OFFCURVE",
"30 366 OFFCURVE",
"30 222 CURVE SMOOTH",
"30 77 OFFCURVE",
"115 -23 OFFCURVE",
"244 -23 CURVE SMOOTH"
);
},
{
closed = 1;
nodes = (
"160 -2 OFFCURVE",
"133 121 OFFCURVE",
"133 231 CURVE SMOOTH",
"133 357 OFFCURVE",
"171 449 OFFCURVE",
"255 449 CURVE SMOOTH",
"352 449 OFFCURVE",
"406 325 OFFCURVE",
"406 221 CURVE SMOOTH",
"406 117 OFFCURVE",
"350 -2 OFFCURVE",
"256 -2 CURVE SMOOTH"
);
},
{
closed = 1;
nodes = (
"580 356 OFFCURVE",
"629 449 OFFCURVE",
"704 449 CURVE SMOOTH",
"770 449 OFFCURVE",
"806 378 OFFCURVE",
"819 270 CURVE",
"567 270 LINE"
);
}
);
width = 913;
}
);
leftKerningGroup = a;
note = ae;
rightKerningGroup = e;
unicode = 00E6;
},
{
glyphname = b;
lastChange = "2015-10-08 20:58:16 +0000";
layers = (
{
background = {
paths = (
{
closed = 1;
nodes = (
"189 810 LINE",
"176 784 OFFCURVE",
"159 777 OFFCURVE",
"118 777 CURVE SMOOTH",
"8 777 LINE",
"8 758 LINE",
"97 758 LINE",
"97 20 LINE",
"8 20 LINE",
"8 0 LINE",
"189 0 LINE",
"189 85 LINE",
"221 20 OFFCURVE",
"276 -19 OFFCURVE",
"350 -19 CURVE SMOOTH",
"479 -19 OFFCURVE",
"594 98 OFFCURVE",
"594 228 CURVE SMOOTH",
"594 353 OFFCURVE",
"480 463 OFFCURVE",
"362 463 CURVE SMOOTH",
"284 463 OFFCURVE",
"228 435 OFFCURVE",
"189 362 CURVE"
);
},
{
closed = 1;
nodes = (
"487 191 LINE SMOOTH",
"487 132 OFFCURVE",
"478 74 OFFCURVE",
"464 51 CURVE SMOOTH",
"446 20 OFFCURVE",
"409 -2 OFFCURVE",
"360 -2 CURVE SMOOTH",
"271 -2 OFFCURVE",
"189 72 OFFCURVE",
"189 146 CURVE SMOOTH",
"189 292 LINE SMOOTH",
"189 375 OFFCURVE",
"275 445 OFFCURVE",
"364 445 CURVE SMOOTH",
"423 445 OFFCURVE",
"463 425 OFFCURVE",
"477 372 CURVE SMOOTH",
"485 341 OFFCURVE",
"487 314 OFFCURVE",
"487 244 CURVE SMOOTH"
);
}
);
};
layerId = "EA94BB3F-1054-4F03-AAB6-69C3B81B3CC3";
paths = (
{
closed = 1;
nodes = (
"443 -23 OFFCURVE",
"528 77 OFFCURVE",
"528 222 CURVE SMOOTH",
"528 365 OFFCURVE",
"445 470 OFFCURVE",
"317 470 CURVE SMOOTH",
"235 470 OFFCURVE",
"189 429 OFFCURVE",
"155 363 CURVE",
"155 757 LINE",
"51 757 LINE",
"51 0 LINE",
"152 0 LINE",
"152 81 LINE",
"187 17 OFFCURVE",
"232 -23 OFFCURVE",
"314 -23 CURVE SMOOTH"
);
},
{
closed = 1;
nodes = (
"212 -2 OFFCURVE",
"152 117 OFFCURVE",
"152 221 CURVE SMOOTH",
"152 328 OFFCURVE",
"212 449 OFFCURVE",
"303 449 CURVE SMOOTH",
"394 449 OFFCURVE",
"422 337 OFFCURVE",
"422 231 CURVE SMOOTH",
"422 121 OFFCURVE",
"392 -2 OFFCURVE",
"301 -2 CURVE SMOOTH"
);
}
);
width = 572;
}
);
leftKerningGroup = h;
note = b;
rightKerningGroup = o;
unicode = 0062;
},
{
glyphname = c;
lastChange = "2015-10-08 20:58:16 +0000";
layers = (
{
anchors = (
{
name = bottom;
position = "{282, -2}";
},
{
name = top;
position = "{281, 457}";
}
);
background = {
paths = (
{
closed = 1;
nodes = (
"464 156 LINE",
"446 58 OFFCURVE",
"379 -2 OFFCURVE",
"280 -2 CURVE SMOOTH",
"177 -2 OFFCURVE",
"141 51 OFFCURVE",
"141 191 CURVE SMOOTH",
"141 243 LINE SMOOTH",
"141 404 OFFCURVE",
"176 445 OFFCURVE",
"293 445 CURVE SMOOTH",
"350 445 OFFCURVE",
"383 440 OFFCURVE",
"383 423 CURVE SMOOTH",
"383 418 OFFCURVE",
"382 415 OFFCURVE",
"380 412 CURVE SMOOTH",
"362 393 OFFCURVE",
"356 382 OFFCURVE",
"356 365 CURVE SMOOTH",
"356 335 OFFCURVE",
"379 311 OFFCURVE",
"407 311 CURVE SMOOTH",
"435 311 OFFCURVE",
"457 334 OFFCURVE",
"457 363 CURVE SMOOTH",
"457 423 OFFCURVE",
"387 463 OFFCURVE",
"295 463 CURVE SMOOTH",
"231 463 OFFCURVE",
"178 446 OFFCURVE",
"126 400 CURVE SMOOTH",
"72 351 OFFCURVE",
"35 270 OFFCURVE",
"35 201 CURVE SMOOTH",
"35 151 OFFCURVE",
"57 102 OFFCURVE",
"97 58 CURVE SMOOTH",
"141 12 OFFCURVE",
"209 -19 OFFCURVE",
"285 -19 CURVE SMOOTH",
"392 -19 OFFCURVE",
"467 51 OFFCURVE",
"480 156 CURVE"
);
}
);
};
layerId = "EA94BB3F-1054-4F03-AAB6-69C3B81B3CC3";
paths = (
{
closed = 1;
nodes = (
"365 -23 OFFCURVE",
"428 24 OFFCURVE",
"448 115 CURVE",
"408 115 LINE",
"392 43 OFFCURVE",
"345 -2 OFFCURVE",
"281 -2 CURVE SMOOTH",
"172 -2 OFFCURVE",
"141 128 OFFCURVE",
"141 222 CURVE SMOOTH",
"141 341 OFFCURVE",
"191 449 OFFCURVE",
"281 449 CURVE SMOOTH",
"322 449 OFFCURVE",
"376 425 OFFCURVE",
"376 404 CURVE SMOOTH",
"376 397 OFFCURVE",
"371 393 OFFCURVE",
"361 384 CURVE SMOOTH",
"349 373 OFFCURVE",
"334 360 OFFCURVE",
"334 341 CURVE SMOOTH",
"334 309 OFFCURVE",
"376 295 OFFCURVE",
"391 295 CURVE SMOOTH",
"424 295 OFFCURVE",
"434 363 OFFCURVE",
"434 403 CURVE",
"399 445 OFFCURVE",
"340 470 OFFCURVE",
"281 470 CURVE SMOOTH",
"215 470 OFFCURVE",
"155 439 OFFCURVE",
"109 393 CURVE SMOOTH",
"61 344 OFFCURVE",
"38 287 OFFCURVE",
"38 222 CURVE SMOOTH",
"38 156 OFFCURVE",
"63 99 OFFCURVE",
"109 52 CURVE SMOOTH",
"155 6 OFFCURVE",
"215 -23 OFFCURVE",
"281 -23 CURVE SMOOTH"
);
}
);
width = 449;
}
);
leftKerningGroup = o;
note = c;
rightKerningGroup = c;
unicode = 0063;
},
{
glyphname = ccedilla;
lastChange = "2015-10-08 20:58:16 +0000";
layers = (
{
background = {
paths = (
{
closed = 1;
nodes = (
"464 156 LINE",
"446 58 OFFCURVE",
"379 2 OFFCURVE",
"280 2 CURVE SMOOTH",
"177 2 OFFCURVE",
"141 51 OFFCURVE",
"141 191 CURVE SMOOTH",
"141 243 LINE SMOOTH",
"141 404 OFFCURVE",
"176 450 OFFCURVE",
"293 450 CURVE SMOOTH",
"350 450 OFFCURVE",
"383 440 OFFCURVE",
"383 423 CURVE SMOOTH",
"383 418 OFFCURVE",
"382 415 OFFCURVE",
"380 412 CURVE SMOOTH",
"362 393 OFFCURVE",
"356 382 OFFCURVE",
"356 365 CURVE SMOOTH",
"356 335 OFFCURVE",
"379 311 OFFCURVE",
"407 311 CURVE SMOOTH",
"435 311 OFFCURVE",
"457 334 OFFCURVE",
"457 363 CURVE SMOOTH",
"457 423 OFFCURVE",
"387 468 OFFCURVE",
"295 468 CURVE SMOOTH",
"231 468 OFFCURVE",
"178 446 OFFCURVE",
"126 400 CURVE SMOOTH",
"72 351 OFFCURVE",
"35 270 OFFCURVE",
"35 201 CURVE SMOOTH",
"35 140 OFFCURVE",
"72 72 OFFCURVE",
"127 31 CURVE SMOOTH",
"163 6 OFFCURVE",
"201 -7 OFFCURVE",
"262 -14 CURVE",
"199 -125 LINE",
"208 -133 LINE",
"229 -121 OFFCURVE",
"234 -119 OFFCURVE",
"249 -119 CURVE SMOOTH",
"283 -119 OFFCURVE",
"306 -140 OFFCURVE",
"306 -169 CURVE SMOOTH",
"306 -202 OFFCURVE",
"278 -228 OFFCURVE",
"240 -228 CURVE SMOOTH",
"213 -228 OFFCURVE",
"180 -219 OFFCURVE",
"157 -208 CURVE",
"150 -224 LINE",
"185 -241 OFFCURVE",
"222 -251 OFFCURVE",
"258 -251 CURVE SMOOTH",
"328 -251 OFFCURVE",
"381 -216 OFFCURVE",
"381 -169 CURVE SMOOTH",
"381 -127 OFFCURVE",
"344 -98 OFFCURVE",
"291 -98 CURVE SMOOTH",
"269 -98 OFFCURVE",
"254 -102 OFFCURVE",
"228 -111 CURVE",
"283 -14 LINE",
"389 -16 OFFCURVE",
"469 53 OFFCURVE",
"480 156 CURVE"
);
}
);
};
layerId = "EA94BB3F-1054-4F03-AAB6-69C3B81B3CC3";
paths = (
{
closed = 1;
nodes = (
"348 -203 OFFCURVE",
"384 -167 OFFCURVE",
"384 -131 CURVE SMOOTH",
"384 -87 OFFCURVE",
"330 -68 OFFCURVE",
"295 -68 CURVE SMOOTH",
"274 -68 OFFCURVE",
"260 -75 OFFCURVE",
"250 -82 CURVE",
"281.638 -23 LINE",
"365.319 -22.762 OFFCURVE",
"428.051 24.231 OFFCURVE",
"448 115 CURVE",
"408 115 LINE",
"392 43 OFFCURVE",
"345 -2 OFFCURVE",
"281 -2 CURVE SMOOTH",
"172 -2 OFFCURVE",
"141 128 OFFCURVE",
"141 222 CURVE SMOOTH",
"141 341 OFFCURVE",
"191 449 OFFCURVE",
"281 449 CURVE SMOOTH",
"323 449 OFFCURVE",
"386 425 OFFCURVE",
"386 403 CURVE SMOOTH",
"386 397 OFFCURVE",
"381 393 OFFCURVE",
"375 388 CURVE SMOOTH",
"366 381 OFFCURVE",
"354 371 OFFCURVE",
"354 351 CURVE SMOOTH",
"354 319 OFFCURVE",
"385 305 OFFCURVE",
"401 305 CURVE SMOOTH",
"434 305 OFFCURVE",
"444 363 OFFCURVE",
"444 403 CURVE",
"409 445 OFFCURVE",
"340 470 OFFCURVE",
"281 470 CURVE SMOOTH",
"215 470 OFFCURVE",
"155 439 OFFCURVE",
"109 393 CURVE SMOOTH",
"61 344 OFFCURVE",
"38 287 OFFCURVE",
"38 222 CURVE SMOOTH",
"38 156 OFFCURVE",
"63 99 OFFCURVE",
"109 52 CURVE SMOOTH",
"151.264 9.736 OFFCURVE",
"205.345 -18.177 OFFCURVE",
"265.041 -22.432 CURVE",
"219 -110 LINE",
"232 -101 OFFCURVE",
"247 -94 OFFCURVE",
"270 -94 CURVE SMOOTH",
"295 -94 OFFCURVE",
"319 -102 OFFCURVE",
"319 -131 CURVE SMOOTH",
"319 -147 OFFCURVE",
"312 -181 OFFCURVE",
"276 -181 CURVE SMOOTH",
"260 -181 OFFCURVE",
"217 -174 OFFCURVE",
"166 -157 CURVE",
"166 -176 LINE",
"216 -195 OFFCURVE",
"251 -203 OFFCURVE",
"282 -203 CURVE SMOOTH"
);
}
);
width = 449;
}
);
leftKerningGroup = o;
note = ccedilla;
rightKerningGroup = c;
unicode = 00E7;
},
{
glyphname = d;
lastChange = "2015-10-08 20:58:16 +0000";
layers = (
{
anchors = (
{
name = bottom;
position = "{270, -2}";
},
{
name = center;
position = "{286, 229}";
},
{
name = top;
position = "{286, 457}";
},
{
name = topright;
position = "{552, 757}";
}
);
background = {
paths = (
{
closed = 1;
nodes = (
"439 365 LINE",
"405 435 OFFCURVE",
"348 463 OFFCURVE",
"269 463 CURVE SMOOTH",
"144 463 OFFCURVE",
"35 357 OFFCURVE",
"35 224 CURVE SMOOTH",
"35 98 OFFCURVE",
"149 -19 OFFCURVE",
"276 -19 CURVE SMOOTH",
"349 -19 OFFCURVE",
"411 18 OFFCURVE",
"439 81 CURVE",
"439 0 LINE",
"620 0 LINE",
"620 20 LINE",
"531 20 LINE",
"531 811 LINE",
"517 784 OFFCURVE",
"501 777 OFFCURVE",
"460 777 CURVE SMOOTH",
"351 777 LINE",
"351 758 LINE",
"439 758 LINE"
);
},
{
closed = 1;
nodes = (
"439 157 LINE SMOOTH",
"439 121 OFFCURVE",
"432 96 OFFCURVE",
"409 66 CURVE SMOOTH",
"374 23 OFFCURVE",
"327 -2 OFFCURVE",
"273 -2 CURVE SMOOTH",
"229 -2 OFFCURVE",
"186 17 OFFCURVE",
"167 45 CURVE SMOOTH",
"150 71 OFFCURVE",
"141 129 OFFCURVE",
"141 203 CURVE SMOOTH",
"141 252 LINE SMOOTH",
"141 335 OFFCURVE",
"149 373 OFFCURVE",
"170 402 CURVE SMOOTH",
"189 429 OFFCURVE",
"226 445 OFFCURVE",
"268 445 CURVE SMOOTH",
"362 445 OFFCURVE",
"439 377 OFFCURVE",
"439 284 CURVE SMOOTH"
);
}
);
};
layerId = "EA94BB3F-1054-4F03-AAB6-69C3B81B3CC3";
paths = (
{
closed = 1;
nodes = (
"339 -23 OFFCURVE",
"385 17 OFFCURVE",
"420 81 CURVE",
"420 0 LINE",
"521 0 LINE",
"521 757 LINE",
"418 757 LINE",
"418 363 LINE",
"384 429 OFFCURVE",
"337 470 OFFCURVE",
"255 470 CURVE SMOOTH",
"127 470 OFFCURVE",
"44 366 OFFCURVE",
"44 222 CURVE SMOOTH",
"44 77 OFFCURVE",
"129 -23 OFFCURVE",
"258 -23 CURVE SMOOTH"
);
},
{
closed = 1;
nodes = (
"174 -2 OFFCURVE",
"147 121 OFFCURVE",
"147 231 CURVE SMOOTH",
"147 344 OFFCURVE",
"182 449 OFFCURVE",
"269 449 CURVE SMOOTH",
"359 449 OFFCURVE",
"420 329 OFFCURVE",
"420 221 CURVE SMOOTH",
"420 117 OFFCURVE",
"364 -2 OFFCURVE",
"270 -2 CURVE SMOOTH"
);
}
);
width = 572;
}
);
leftKerningGroup = o;
note = d;
rightKerningGroup = l;
unicode = 0064;
},
{
glyphname = eth;
lastChange = "2015-10-08 20:58:16 +0000";
layers = (
{
background = {
paths = (
{
closed = 1;
nodes = (
"35 768 LINE",
"100 751 OFFCURVE",
"151 728 OFFCURVE",
"209 690 CURVE",
"64 595 LINE",
"74 579 LINE",
"225 677 LINE",
"316 609 OFFCURVE",
"382 524 OFFCURVE",
"411 435 CURVE",
"367 462 OFFCURVE",
"336 471 OFFCURVE",
"295 471 CURVE SMOOTH",
"165 471 OFFCURVE",
"36 349 OFFCURVE",
"36 228 CURVE SMOOTH",
"36 102 OFFCURVE",
"157 -14 OFFCURVE",
"290 -14 CURVE SMOOTH",
"358 -14 OFFCURVE",
"414 10 OFFCURVE",
"464 64 CURVE SMOOTH",
"515 116 OFFCURVE",
"536 170 OFFCURVE",
"536 244 CURVE SMOOTH",
"536 415 OFFCURVE",
"432 579 OFFCURVE",
"249 693 CURVE",
"396 787 LINE",
"386 804 LINE",
"232 705 LINE",
"166 743 OFFCURVE",
"112 763 OFFCURVE",
"40 780 CURVE"
);
},
{
closed = 1;
nodes = (
"143 303 LINE SMOOTH",
"143 366 OFFCURVE",
"151 395 OFFCURVE",
"176 417 CURVE SMOOTH",
"201 439 OFFCURVE",
"247 454 OFFCURVE",
"293 454 CURVE SMOOTH",
"341 454 OFFCURVE",
"381 439 OFFCURVE",
"404 412 CURVE SMOOTH",
"424 390 OFFCURVE",
"430 367 OFFCURVE",
"430 311 CURVE SMOOTH",
"430 150 LINE SMOOTH",
"430 94 OFFCURVE",
"424 66 OFFCURVE",
"408 45 CURVE SMOOTH",
"387 18 OFFCURVE",
"344 2 OFFCURVE",
"291 2 CURVE SMOOTH",
"186 2 OFFCURVE",
"143 45 OFFCURVE",
"143 150 CURVE SMOOTH"
);
}
);
};
layerId = "EA94BB3F-1054-4F03-AAB6-69C3B81B3CC3";
paths = (
{
closed = 1;
nodes = (
"349 -23 OFFCURVE",
"404 8 OFFCURVE",
"453 53 CURVE SMOOTH",
"499 96 OFFCURVE",
"524 137 OFFCURVE",
"524 222 CURVE SMOOTH",
"524 305 OFFCURVE",
"501 416 OFFCURVE",
"463 494 CURVE SMOOTH",
"415 593 OFFCURVE",
"342 643 OFFCURVE",
"272.197 686.471 CURVE",
"405 814 LINE",
"374 814 LINE",
"253 699 LINE",
"175 735 OFFCURVE",
"155 741 OFFCURVE",
"86 755 CURVE",
"73 736 LINE",
"134 723 OFFCURVE",
"172 709 OFFCURVE",
"227 673 CURVE",
"97 548 LINE",
"128 548 LINE",
"244.813 660.174 LINE",
"333 595 OFFCURVE",
"384 522 OFFCURVE",
"412.366 425.759 CURVE",
"373.329 452.912 OFFCURVE",
"330 470 OFFCURVE",
"281 470 CURVE SMOOTH",
"215 470 OFFCURVE",
"154 438 OFFCURVE",
"109 393 CURVE SMOOTH",
"62 345 OFFCURVE",
"38 288 OFFCURVE",
"38 222 CURVE SMOOTH",
"38 156 OFFCURVE",
"62 99 OFFCURVE",
"109 52 CURVE SMOOTH",
"155 6 OFFCURVE",
"215 -23 OFFCURVE",
"281 -23 CURVE SMOOTH"
);
},
{
closed = 1;
nodes = (
"191 -2 OFFCURVE",
"141 128 OFFCURVE",
"141 222 CURVE SMOOTH",
"141 316 OFFCURVE",
"191 449 OFFCURVE",
"281 449 CURVE SMOOTH",
"371 449 OFFCURVE",
"421 316 OFFCURVE",
"421 222 CURVE SMOOTH",
"421 128 OFFCURVE",
"371 -2 OFFCURVE",
"281 -2 CURVE SMOOTH"
);
}
);
width = 569;
}
);
leftKerningGroup = eth;
note = eth;
rightKerningGroup = eth;
unicode = 00F0;
},
{
glyphname = dcroat;
lastChange = "2015-10-08 20:58:16 +0000";
layers = (
{
background = {
paths = (
{
closed = 1;
nodes = (
"351 758 LINE",
"439 758 LINE",
"439 641 LINE",
"271 641 LINE",
"271 621 LINE",
"439 621 LINE",
"439 365 LINE",
"405 435 OFFCURVE",
"348 472 OFFCURVE",
"269 472 CURVE SMOOTH",
"144 472 OFFCURVE",
"35 357 OFFCURVE",
"35 224 CURVE SMOOTH",
"35 98 OFFCURVE",
"149 -15 OFFCURVE",
"276 -15 CURVE SMOOTH",
"349 -15 OFFCURVE",
"411 22 OFFCURVE",
"439 81 CURVE",
"439 0 LINE",
"620 0 LINE",
"620 20 LINE",
"531 20 LINE",
"531 621 LINE",
"620 621 LINE",
"620 641 LINE",
"531 641 LINE",
"531 811 LINE",
"517 784 OFFCURVE",
"501 777 OFFCURVE",
"460 777 CURVE SMOOTH",
"351 777 LINE"
);
},
{
closed = 1;
nodes = (
"439 157 LINE SMOOTH",
"439 121 OFFCURVE",
"432 100 OFFCURVE",
"409 70 CURVE SMOOTH",
"374 27 OFFCURVE",
"327 2 OFFCURVE",
"273 2 CURVE SMOOTH",
"229 2 OFFCURVE",
"186 21 OFFCURVE",
"167 49 CURVE SMOOTH",
"150 75 OFFCURVE",
"141 129 OFFCURVE",
"141 203 CURVE SMOOTH",
"141 252 LINE SMOOTH",
"141 335 OFFCURVE",
"149 382 OFFCURVE",
"170 411 CURVE SMOOTH",
"189 438 OFFCURVE",
"226 454 OFFCURVE",
"268 454 CURVE SMOOTH",
"362 454 OFFCURVE",
"439 378 OFFCURVE",
"439 284 CURVE SMOOTH"
);
}
);
};
layerId = "EA94BB3F-1054-4F03-AAB6-69C3B81B3CC3";
paths = (
{
closed = 1;
nodes = (
"339 -23 OFFCURVE",
"385 17 OFFCURVE",
"420 81 CURVE",
"420 0 LINE",
"521 0 LINE",
"521 621 LINE",
"620 621 LINE",
"620 641 LINE",
"521 641 LINE",
"521 757 LINE",
"418 757 LINE",
"418 641 LINE",
"261 641 LINE",
"261 621 LINE",
"418 621 LINE",
"418 363 LINE",
"384 429 OFFCURVE",
"336 470 OFFCURVE",
"255 470 CURVE SMOOTH",
"127 470 OFFCURVE",
"44 369 OFFCURVE",
"44 222 CURVE SMOOTH",
"44 73 OFFCURVE",
"132 -23 OFFCURVE",
"258 -23 CURVE SMOOTH"
);
},
{
closed = 1;
nodes = (
"178 -2 OFFCURVE",
"147 124 OFFCURVE",
"147 231 CURVE SMOOTH",
"147 352 OFFCURVE",
"188 449 OFFCURVE",
"269 449 CURVE SMOOTH",
"362 449 OFFCURVE",
"420 326 OFFCURVE",
"420 221 CURVE SMOOTH",
"420 114 OFFCURVE",
"359 -2 OFFCURVE",
"270 -2 CURVE SMOOTH"
);
}
);
width = 579;
}
);
leftKerningGroup = o;
note = dcroat;
rightKerningGroup = l;
unicode = 0111;
},
{
glyphname = e;
lastChange = "2015-10-08 20:58:20 +0000";
layers = (
{
anchors = (
{
name = bottom;
position = "{257, 0}";
},
{
name = ogonek;
position = "{429, 10}";
},
{
name = top;
position = "{281, 457}";
}
);
background = {
paths = (
{
closed = 1;
nodes = (
"471 157 LINE",
"455 109 OFFCURVE",
"449 92 OFFCURVE",
"427 69 CURVE",
"388 24 OFFCURVE",
"335 1 OFFCURVE",
"274 1 CURVE SMOOTH",
"224 1 OFFCURVE",
"187 17 OFFCURVE",
"164 47 CURVE SMOOTH",
"146 72 OFFCURVE",
"140 107 OFFCURVE",
"140 185 CURVE SMOOTH",
"140 196 OFFCURVE",
"140 210 OFFCURVE",
"142 270 CURVE",
"467 270 LINE SMOOTH",
"477 270 OFFCURVE",
"480 271 OFFCURVE",
"480 277 CURVE SMOOTH",
"480 290 OFFCURVE",
"465 322 OFFCURVE",
"449 350 CURVE SMOOTH",
"409 419 OFFCURVE",
"336 464 OFFCURVE",
"263 464 CURVE SMOOTH",
"202 464 OFFCURVE",
"146 436 OFFCURVE",
"102 384 CURVE SMOOTH",
"60 333 OFFCURVE",
"35 277 OFFCURVE",
"35 222 CURVE SMOOTH",
"35 165 OFFCURVE",
"55 106 OFFCURVE",
"92 66 CURVE SMOOTH",
"148 8 OFFCURVE",
"204 -19 OFFCURVE",
"278 -19 CURVE SMOOTH",
"382 -19 OFFCURVE",
"464 47 OFFCURVE",
"490 154 CURVE"
);
},
{
closed = 1;
nodes = (
"142 290 LINE",
"144 348 OFFCURVE",
"147 367 OFFCURVE",
"156 388 CURVE SMOOTH",
"172 426 OFFCURVE",
"210 448 OFFCURVE",
"260 448 CURVE SMOOTH",
"318 448 OFFCURVE",
"351 423 OFFCURVE",
"364 369 CURVE",
"367 350 OFFCURVE",
"370 336 OFFCURVE",
"370 303 CURVE SMOOTH",
"370 291 OFFCURVE",
"368 290 OFFCURVE",
"352 290 CURVE SMOOTH"
);
}
);
};
layerId = "EA94BB3F-1054-4F03-AAB6-69C3B81B3CC3";
paths = (
{
closed = 1;
nodes = (
"398 -23 OFFCURVE",
"459 40 OFFCURVE",
"498 135 CURVE",
"458 135 LINE",
"442 64 OFFCURVE",
"355 -2 OFFCURVE",
"291 -2 CURVE SMOOTH",
"201 -2 OFFCURVE",
"141 128 OFFCURVE",
"141 222 CURVE SMOOTH",
"141 234 OFFCURVE",
"142 245 OFFCURVE",
"143 252 CURVE",
"512 252 LINE",
"494 383 OFFCURVE",
"407 470 OFFCURVE",
"281 470 CURVE SMOOTH",
"135 470 OFFCURVE",
"38 371 OFFCURVE",
"38 222 CURVE SMOOTH",
"38 75 OFFCURVE",
"135 -23 OFFCURVE",
"281 -23 CURVE SMOOTH"
);
},
{
closed = 1;
nodes = (
"158 356 OFFCURVE",
"205.573 449 OFFCURVE",
"281 449 CURVE SMOOTH",
"356.427 449 OFFCURVE",
"394 356 OFFCURVE",
"407 270 CURVE",
"145 270 LINE"
);
}
);
width = 514;
},
{
anchors = (
{
name = bottom;
position = "{257, 0}";
},
{
name = ogonek;
position = "{463, 10}";
},
{
name = top;
position = "{257, 457}";
}
);
associatedMasterId = "EA94BB3F-1054-4F03-AAB6-69C3B81B3CC3";
background = {
paths = (
{
closed = 1;
nodes = (
"471 157 LINE",
"455 109 OFFCURVE",
"449 92 OFFCURVE",
"427 69 CURVE",
"388 24 OFFCURVE",
"335 1 OFFCURVE",
"274 1 CURVE SMOOTH",
"224 1 OFFCURVE",
"187 17 OFFCURVE",
"164 47 CURVE SMOOTH",
"146 72 OFFCURVE",
"140 107 OFFCURVE",
"140 185 CURVE SMOOTH",
"140 196 OFFCURVE",
"140 210 OFFCURVE",
"142 270 CURVE",
"467 270 LINE SMOOTH",
"477 270 OFFCURVE",
"480 271 OFFCURVE",
"480 277 CURVE SMOOTH",
"480 290 OFFCURVE",
"465 322 OFFCURVE",
"449 350 CURVE SMOOTH",
"409 419 OFFCURVE",
"336 464 OFFCURVE",
"263 464 CURVE SMOOTH",
"202 464 OFFCURVE",
"146 436 OFFCURVE",
"102 384 CURVE SMOOTH",
"60 333 OFFCURVE",
"35 277 OFFCURVE",
"35 222 CURVE SMOOTH",
"35 165 OFFCURVE",
"55 106 OFFCURVE",
"92 66 CURVE SMOOTH",
"148 8 OFFCURVE",
"204 -19 OFFCURVE",
"278 -19 CURVE SMOOTH",
"382 -19 OFFCURVE",
"464 47 OFFCURVE",
"490 154 CURVE"
);
},
{
closed = 1;
nodes = (
"142 290 LINE",
"144 348 OFFCURVE",
"147 367 OFFCURVE",
"156 388 CURVE SMOOTH",
"172 426 OFFCURVE",
"210 448 OFFCURVE",
"260 448 CURVE SMOOTH",
"318 448 OFFCURVE",
"351 423 OFFCURVE",
"364 369 CURVE",
"367 350 OFFCURVE",
"370 336 OFFCURVE",
"370 303 CURVE SMOOTH",
"370 291 OFFCURVE",
"368 290 OFFCURVE",
"352 290 CURVE SMOOTH"
);
}
);
};
layerId = "CF405077-515B-4F02-93DE-151DC82928DC";
name = "Regular Sep 22 15, 14:15";
paths = (
{
closed = 1;
nodes = (
"377 -23 OFFCURVE",
"471 44 OFFCURVE",
"508 135 CURVE",
"468 135 LINE",
"448 64 OFFCURVE",
"345 -2 OFFCURVE",
"281 -2 CURVE SMOOTH",
"191 -2 OFFCURVE",
"141 128 OFFCURVE",
"141 222 CURVE SMOOTH",
"141 235 OFFCURVE",
"142 245 OFFCURVE",
"143 252 CURVE",
"419 252 LINE",
"522 252 LINE",
"519 270 LINE",
"498 378 OFFCURVE",
"391 470 OFFCURVE",
"281 470 CURVE SMOOTH",
"155 470 OFFCURVE",
"38 357 OFFCURVE",
"38 222 CURVE SMOOTH",
"38 89 OFFCURVE",
"152 -23 OFFCURVE",
"281 -23 CURVE SMOOTH"
);
},
{
closed = 1;
nodes = (
"158 356 OFFCURVE",
"205.573 449 OFFCURVE",
"281 449 CURVE SMOOTH",
"356.427 449 OFFCURVE",
"404 356 OFFCURVE",
"417 270 CURVE",
"145 270 LINE"
);
}
);
visible = 1;
width = 514;
}
);
leftKerningGroup = o;
note = e;
rightKerningGroup = e;
unicode = 0065;
},
{
glyphname = eacute;
lastChange = "2015-09-23 22:08:55 +0000";
layers = (
{
background = {
paths = (
{
closed = 1;
nodes = (
"408 136 LINE",
"394 94 OFFCURVE",
"389 83 OFFCURVE",
"370 63 CURVE",
"336 24 OFFCURVE",
"290 4 OFFCURVE",
"237 4 CURVE SMOOTH",
"194 4 OFFCURVE",
"162 18 OFFCURVE",
"142 44 CURVE SMOOTH",
"126 66 OFFCURVE",
"121 93 OFFCURVE",
"121 160 CURVE SMOOTH",
"121 170 OFFCURVE",
"121 182 OFFCURVE",
"123 234 CURVE",
"404 234 LINE SMOOTH",
"413 234 OFFCURVE",
"416 235 OFFCURVE",
"416 240 CURVE SMOOTH",
"416 251 OFFCURVE",
"403 286 OFFCURVE",
"389 310 CURVE SMOOTH",
"354 370 OFFCURVE",
"291 409 OFFCURVE",
"228 409 CURVE SMOOTH",
"175 409 OFFCURVE",
"126 384 OFFCURVE",
"88 339 CURVE SMOOTH",
"52 295 OFFCURVE",
"30 240 OFFCURVE",
"30 192 CURVE SMOOTH",
"30 143 OFFCURVE",
"48 95 OFFCURVE",
"80 61 CURVE SMOOTH",
"128 10 OFFCURVE",
"177 -13 OFFCURVE",
"241 -13 CURVE SMOOTH",
"331 -13 OFFCURVE",
"402 44 OFFCURVE",
"424 133 CURVE"
);
},
{
closed = 1;
nodes = (
"123 251 LINE",
"125 308 OFFCURVE",
"127 325 OFFCURVE",
"135 343 CURVE SMOOTH",
"149 376 OFFCURVE",
"182 395 OFFCURVE",
"225 395 CURVE SMOOTH",
"275 395 OFFCURVE",
"304 373 OFFCURVE",
"315 326 CURVE",
"318 310 OFFCURVE",
"320 291 OFFCURVE",
"320 262 CURVE SMOOTH",
"320 252 OFFCURVE",
"319 251 OFFCURVE",
"305 251 CURVE SMOOTH"
);
},
{
closed = 1;
nodes = (
"215 453 LINE",
"334 567 LINE SMOOTH",
"357 589 OFFCURVE",
"365 600 OFFCURVE",
"365 611 CURVE SMOOTH",
"365 629 OFFCURVE",
"348 642 OFFCURVE",
"326 642 CURVE SMOOTH",
"298 642 OFFCURVE",
"289 633 OFFCURVE",
"257 571 CURVE SMOOTH",
"195 453 LINE"
);
}
);
};
components = (
{
name = e;
},
{
name = acutecomb;
transform = "{1, 0, 0, 1, 46, 0}";
}
);
layerId = "EA94BB3F-1054-4F03-AAB6-69C3B81B3CC3";
width = 514;
}
);
leftKerningGroup = o;
note = eacute;
rightKerningGroup = e;
unicode = 00E9;
},
{
glyphname = ecircumflex;
lastChange = "2015-09-23 22:08:55 +0000";
layers = (
{
background = {
paths = (
{
closed = 1;
nodes = (
"408 136 LINE",
"394 94 OFFCURVE",
"389 83 OFFCURVE",
"370 63 CURVE",
"336 24 OFFCURVE",
"290 4 OFFCURVE",
"237 4 CURVE SMOOTH",
"194 4 OFFCURVE",
"162 18 OFFCURVE",
"142 44 CURVE SMOOTH",
"126 66 OFFCURVE",
"121 93 OFFCURVE",
"121 160 CURVE SMOOTH",
"121 170 OFFCURVE",
"121 182 OFFCURVE",
"123 234 CURVE",
"404 234 LINE SMOOTH",
"413 234 OFFCURVE",
"416 235 OFFCURVE",
"416 240 CURVE SMOOTH",
"416 251 OFFCURVE",
"403 286 OFFCURVE",
"389 310 CURVE SMOOTH",
"354 370 OFFCURVE",
"291 409 OFFCURVE",
"228 409 CURVE SMOOTH",
"175 409 OFFCURVE",
"126 384 OFFCURVE",
"88 339 CURVE SMOOTH",
"52 295 OFFCURVE",
"30 240 OFFCURVE",
"30 192 CURVE SMOOTH",
"30 143 OFFCURVE",
"48 95 OFFCURVE",
"80 61 CURVE SMOOTH",
"128 10 OFFCURVE",
"177 -13 OFFCURVE",
"241 -13 CURVE SMOOTH",
"331 -13 OFFCURVE",
"402 44 OFFCURVE",
"424 133 CURVE"
);
},
{
closed = 1;
nodes = (
"123 251 LINE",
"125 308 OFFCURVE",
"127 325 OFFCURVE",
"135 343 CURVE SMOOTH",
"149 376 OFFCURVE",
"182 395 OFFCURVE",
"225 395 CURVE SMOOTH",
"275 395 OFFCURVE",
"304 373 OFFCURVE",
"315 326 CURVE",
"318 310 OFFCURVE",
"320 291 OFFCURVE",
"320 262 CURVE SMOOTH",
"320 252 OFFCURVE",
"319 251 OFFCURVE",
"305 251 CURVE SMOOTH"
);
},
{
closed = 1;
nodes = (
"252 641 LINE",
"188 641 LINE",
"86 453 LINE",
"104 453 LINE",
"218 575 LINE",
"337 453 LINE",
"355 453 LINE"
);
}
);
};
components = (
{
name = e;
},
{
name = circumflexcomb;
transform = "{1, 0, 0, 1, -9, 0}";
}
);
layerId = "EA94BB3F-1054-4F03-AAB6-69C3B81B3CC3";
width = 514;
}
);
leftKerningGroup = o;
note = ecircumflex;
rightKerningGroup = e;
unicode = 00EA;
},
{
glyphname = egrave;
lastChange = "2015-09-23 22:08:55 +0000";
layers = (
{
background = {
paths = (
{
closed = 1;
nodes = (
"408 136 LINE",
"394 94 OFFCURVE",
"389 83 OFFCURVE",
"370 63 CURVE",
"336 24 OFFCURVE",
"290 4 OFFCURVE",
"237 4 CURVE SMOOTH",
"194 4 OFFCURVE",
"162 18 OFFCURVE",
"142 44 CURVE SMOOTH",
"126 66 OFFCURVE",
"121 93 OFFCURVE",
"121 160 CURVE SMOOTH",
"121 170 OFFCURVE",
"121 182 OFFCURVE",
"123 234 CURVE",
"404 234 LINE SMOOTH",
"413 234 OFFCURVE",
"416 235 OFFCURVE",
"416 240 CURVE SMOOTH",
"416 251 OFFCURVE",
"403 286 OFFCURVE",
"389 310 CURVE SMOOTH",
"354 370 OFFCURVE",
"291 409 OFFCURVE",
"228 409 CURVE SMOOTH",
"175 409 OFFCURVE",
"126 384 OFFCURVE",
"88 339 CURVE SMOOTH",
"52 295 OFFCURVE",
"30 240 OFFCURVE",
"30 192 CURVE SMOOTH",
"30 143 OFFCURVE",
"48 95 OFFCURVE",
"80 61 CURVE SMOOTH",
"128 10 OFFCURVE",
"177 -13 OFFCURVE",
"241 -13 CURVE SMOOTH",
"331 -13 OFFCURVE",
"402 44 OFFCURVE",
"424 133 CURVE"
);
},
{
closed = 1;
nodes = (
"123 251 LINE",
"125 308 OFFCURVE",
"127 325 OFFCURVE",
"135 343 CURVE SMOOTH",
"149 376 OFFCURVE",
"182 395 OFFCURVE",
"225 395 CURVE SMOOTH",
"275 395 OFFCURVE",
"304 373 OFFCURVE",
"315 326 CURVE",
"318 310 OFFCURVE",
"320 291 OFFCURVE",
"320 262 CURVE SMOOTH",
"320 252 OFFCURVE",
"319 251 OFFCURVE",
"305 251 CURVE SMOOTH"
);
},
{
closed = 1;
nodes = (
"245 453 LINE",
"265 453 LINE",
"203 571 LINE SMOOTH",
"171 633 OFFCURVE",
"162 642 OFFCURVE",
"134 642 CURVE SMOOTH",
"112 642 OFFCURVE",
"95 629 OFFCURVE",
"95 611 CURVE SMOOTH",
"95 601 OFFCURVE",
"103 589 OFFCURVE",
"126 567 CURVE SMOOTH"
);
}
);
};
components = (
{
name = e;
},
{
name = gravecomb;
transform = "{1, 0, 0, 1, 36, 0}";
}
);
layerId = "EA94BB3F-1054-4F03-AAB6-69C3B81B3CC3";
width = 514;
}
);
leftKerningGroup = o;
note = egrave;
rightKerningGroup = e;
unicode = 00E8;
},
{
glyphname = f;
lastChange = "2015-10-08 20:58:20 +0000";
layers = (
{
background = {
paths = (
{
closed = 1;
nodes = (
"192 427 LINE",
"318 427 LINE",
"318 447 LINE",
"192 447 LINE",
"192 631 LINE SMOOTH",
"192 699 OFFCURVE",
"196 724 OFFCURVE",
"207 747 CURVE SMOOTH",
"219 770 OFFCURVE",
"241 783 OFFCURVE",
"267 783 CURVE SMOOTH",
"297 783 OFFCURVE",
"319 772 OFFCURVE",
"319 755 CURVE SMOOTH",
"319 747 OFFCURVE",
"316 743 OFFCURVE",
"305 742 CURVE",
"279 736 OFFCURVE",
"263 720 OFFCURVE",
"263 695 CURVE SMOOTH",
"263 668 OFFCURVE",
"284 647 OFFCURVE",
"310 647 CURVE SMOOTH",
"340 647 OFFCURVE",
"361 670 OFFCURVE",
"361 702 CURVE SMOOTH",
"361 760 OFFCURVE",
"323 800 OFFCURVE",
"267 800 CURVE SMOOTH",
"173 800 OFFCURVE",
"98 680 OFFCURVE",
"98 526 CURVE SMOOTH",
"98 447 LINE",
"9 447 LINE",
"9 427 LINE",
"98 427 LINE",
"98 20 LINE",
"9 20 LINE",
"9 0 LINE",
"294 0 LINE",
"294 20 LINE",
"192 20 LINE"
);
}
);
};
layerId = "EA94BB3F-1054-4F03-AAB6-69C3B81B3CC3";
paths = (
{
closed = 1;
nodes = (
"201 0 LINE",
"201 437 LINE",
"293 437 LINE",
"293 457 LINE",
"201 457 LINE",
"201 566 LINE",
"201 576 LINE SMOOTH",
"201 639 OFFCURVE",
"201 763 OFFCURVE",
"233 763 CURVE SMOOTH",
"272 763 OFFCURVE",
"295 756 OFFCURVE",
"295 747 CURVE SMOOTH",
"295 742 OFFCURVE",
"290 738 OFFCURVE",
"284 733 CURVE SMOOTH",
"275 725 OFFCURVE",
"263 714 OFFCURVE",
"263 693 CURVE SMOOTH",
"263 660 OFFCURVE",
"292 647 OFFCURVE",
"310 647 CURVE SMOOTH",
"347 647 OFFCURVE",
"353 703 OFFCURVE",
"353 747 CURVE",
"333 782 OFFCURVE",
"234 782 OFFCURVE",
"227 782 CURVE SMOOTH",
"125 782 OFFCURVE",
"98 725 OFFCURVE",
"98 576 CURVE SMOOTH",
"98 457 LINE",
"12 457 LINE",
"12 437 LINE",
"98 437 LINE",
"98 0 LINE"
);
}
);
width = 289;
}
);
leftKerningGroup = f;
note = f;
rightKerningGroup = f;
unicode = 0066;
},
{
glyphname = g;
lastChange = "2015-10-08 20:58:16 +0000";
layers = (
{
anchors = (
{
name = bottom;
position = "{286, 0}";
},
{
name = top;
position = "{272, 457}";
}
);
background = {
paths = (
{
closed = 1;
nodes = (
"119 46 LINE SMOOTH",
"74 46 OFFCURVE",
"59 55 OFFCURVE",
"59 83 CURVE SMOOTH",
"59 121 OFFCURVE",
"89 141 OFFCURVE",
"147 140 CURVE",
"184 126 OFFCURVE",
"196 123 OFFCURVE",
"218 123 CURVE SMOOTH",
"299 123 OFFCURVE",
"375 190 OFFCURVE",
"375 263 CURVE SMOOTH",
"375 294 OFFCURVE",
"363 324 OFFCURVE",
"339 356 CURVE",
"351 374 OFFCURVE",
"360 380 OFFCURVE",
"387 389 CURVE",
"379 378 OFFCURVE",
"377 373 OFFCURVE",
"377 365 CURVE SMOOTH",
"377 344 OFFCURVE",
"393 328 OFFCURVE",
"414 328 CURVE SMOOTH",
"434 328 OFFCURVE",
"449 343 OFFCURVE",
"449 364 CURVE SMOOTH",
"449 388 OFFCURVE",
"429 406 OFFCURVE",
"403 406 CURVE SMOOTH",
"374 406 OFFCURVE",
"347 392 OFFCURVE",
"328 368 CURVE",
"291 398 OFFCURVE",
"264 409 OFFCURVE",
"223 409 CURVE SMOOTH",
"136 409 OFFCURVE",
"60 341 OFFCURVE",
"60 263 CURVE SMOOTH",
"60 218 OFFCURVE",
"83 181 OFFCURVE",
"129 152 CURVE",
"68 150 OFFCURVE",
"38 119 OFFCURVE",
"38 59 CURVE SMOOTH",
"38 2 OFFCURVE",
"64 -30 OFFCURVE",
"112 -34 CURVE",
"53 -61 OFFCURVE",
"20 -101 OFFCURVE",
"20 -147 CURVE SMOOTH",
"20 -218 OFFCURVE",
"96 -269 OFFCURVE",
"200 -269 CURVE SMOOTH",
"328 -269 OFFCURVE",
"422 -185 OFFCURVE",
"422 -71 CURVE SMOOTH",
"422 -35 OFFCURVE",
"409 3 OFFCURVE",
"389 23 CURVE SMOOTH",
"373 39 OFFCURVE",
"350 46 OFFCURVE",
"314 46 CURVE SMOOTH"
);
},
{
closed = 1;
nodes = (
"247 394 OFFCURVE",
"274 383 OFFCURVE",
"283 369 CURVE SMOOTH",
"292 355 OFFCURVE",
"298 317 OFFCURVE",
"298 272 CURVE SMOOTH",
"298 170 OFFCURVE",
"279 138 OFFCURVE",
"217 138 CURVE SMOOTH",
"159 138 OFFCURVE",
"140 169 OFFCURVE",
"140 264 CURVE SMOOTH",
"140 355 OFFCURVE",
"164 394 OFFCURVE",
"222 394 CURVE SMOOTH"
);
},
{
closed = 1;
nodes = (
"318 -34 LINE SMOOTH",
"369 -34 OFFCURVE",
"398 -58 OFFCURVE",
"398 -98 CURVE SMOOTH",
"398 -135 OFFCURVE",
"377 -174 OFFCURVE",
"342 -205 CURVE SMOOTH",
"306 -236 OFFCURVE",
"262 -251 OFFCURVE",
"208 -251 CURVE SMOOTH",
"124 -251 OFFCURVE",
"66 -206 OFFCURVE",
"66 -139 CURVE SMOOTH",
"66 -85 OFFCURVE",
"95 -48 OFFCURVE",
"150 -34 CURVE"
);
}
);
};
layerId = "EA94BB3F-1054-4F03-AAB6-69C3B81B3CC3";
paths = (
{
closed = 1;
nodes = (
"410 -278 OFFCURVE",
"529 -206 OFFCURVE",
"529 8 CURVE SMOOTH",
"529 457 LINE",
"418 457 LINE",
"418 364 LINE",
"385 429 OFFCURVE",
"338 470 OFFCURVE",
"256 470 CURVE SMOOTH",
"128 470 OFFCURVE",
"44 371 OFFCURVE",
"44 225 CURVE SMOOTH",
"44 81 OFFCURVE",
"127 -21 OFFCURVE",
"256 -21 CURVE SMOOTH",
"338 -21 OFFCURVE",
"387 20 OFFCURVE",
"420 85 CURVE",
"420 10 LINE SMOOTH",
"420 -185 OFFCURVE",
"336 -257 OFFCURVE",
"255 -257 CURVE SMOOTH",
"177 -257 OFFCURVE",
"106 -192 OFFCURVE",
"99 -107 CURVE",
"54 -107 LINE",
"79 -222 OFFCURVE",
"151 -278 OFFCURVE",
"272 -278 CURVE SMOOTH"
);
},
{
closed = 1;
nodes = (
"183 0 OFFCURVE",
"145 120 OFFCURVE",
"145 228 CURVE SMOOTH",
"145 346 OFFCURVE",
"185 449 OFFCURVE",
"272 449 CURVE SMOOTH",
"361 449 OFFCURVE",
"420 324 OFFCURVE",
"420 222 CURVE SMOOTH",
"420 120 OFFCURVE",
"361 0 OFFCURVE",
"272 0 CURVE SMOOTH"
);
}
);
width = 571;
}
);
leftKerningGroup = g;
note = g;
rightKerningGroup = g;
unicode = 0067;
},
{
glyphname = h;
lastChange = "2015-10-08 20:58:16 +0000";
layers = (
{
anchors = (
{
name = bottom;
position = "{279, 0}";
},
{
name = center;
position = "{103, 579}";
},
{
name = top;
position = "{103, 757}";
}
);
background = {
paths = (
{
closed = 1;
nodes = (
"191 811 LINE",
"177 784 OFFCURVE",
"161 777 OFFCURVE",
"119 777 CURVE SMOOTH",
"8 777 LINE",
"8 758 LINE",
"97 758 LINE",
"97 20 LINE",
"8 20 LINE",
"8 0 LINE",
"278 0 LINE",
"278 20 LINE",
"191 20 LINE",
"191 316 LINE",
"222 396 OFFCURVE",
"291 449 OFFCURVE",
"363 449 CURVE SMOOTH",
"410 449 OFFCURVE",
"444 416 OFFCURVE",
"444 368 CURVE SMOOTH",
"444 20 LINE",
"352 20 LINE",
"352 0 LINE",
"627 0 LINE",
"627 20 LINE",
"538 20 LINE",
"538 297 LINE SMOOTH",
"538 373 OFFCURVE",
"532 397 OFFCURVE",
"511 420 CURVE SMOOTH",
"479 452 OFFCURVE",
"434 468 OFFCURVE",
"379 468 CURVE SMOOTH",
"295 468 OFFCURVE",
"236 433 OFFCURVE",
"191 358 CURVE"
);
}
);
};
layerId = "EA94BB3F-1054-4F03-AAB6-69C3B81B3CC3";
paths = (
{
closed = 1;
nodes = (
"154 0 LINE",
"154 231 LINE SMOOTH",
"154 397 OFFCURVE",
"242 449 OFFCURVE",
"303 449 CURVE SMOOTH",
"338 449 OFFCURVE",
"366 432 OFFCURVE",
"382 405 CURVE SMOOTH",
"403 370 OFFCURVE",
"406 314 OFFCURVE",
"406 263 CURVE SMOOTH",
"406 0 LINE",
"507 0 LINE",
"507 304 LINE SMOOTH",
"507 404 OFFCURVE",
"421 470 OFFCURVE",
"316 470 CURVE SMOOTH",
"234 470 OFFCURVE",
"184 431 OFFCURVE",
"154 371 CURVE",
"154 757 LINE",
"53 757 LINE",
"53 0 LINE"
);
}
);
width = 557;
}
);
leftKerningGroup = h;
note = h;
rightKerningGroup = n;
unicode = 0068;
},
{
glyphname = i;
lastChange = "2015-10-08 20:58:16 +0000";
layers = (
{
background = {
paths = (
{
closed = 1;
nodes = (
"109 427 LINE",
"109 20 LINE",
"20 20 LINE",
"20 0 LINE",
"291 0 LINE",
"291 20 LINE",
"202 20 LINE",
"202 482 LINE",
"187 454 OFFCURVE",
"173 447 OFFCURVE",
"131 447 CURVE SMOOTH",
"21 447 LINE",
"21 427 LINE"
);
},
{
closed = 1;
nodes = (
"127 784 OFFCURVE",
"103 760 OFFCURVE",
"103 731 CURVE SMOOTH",
"103 701 OFFCURVE",
"127 677 OFFCURVE",
"156 677 CURVE SMOOTH",
"186 677 OFFCURVE",
"210 701 OFFCURVE",
"210 731 CURVE SMOOTH",
"210 760 OFFCURVE",
"186 784 OFFCURVE",
"157 784 CURVE SMOOTH"
);
}
);
};
layerId = "EA94BB3F-1054-4F03-AAB6-69C3B81B3CC3";
paths = (
{
closed = 1;
nodes = (
"171 0 LINE",
"171 457 LINE",
"70 457 LINE",
"70 0 LINE"
);
},
{
closed = 1;
nodes = (
"150 606 OFFCURVE",
"176 630 OFFCURVE",
"176 661 CURVE SMOOTH",
"176 691 OFFCURVE",
"151 718 OFFCURVE",
"120 718 CURVE SMOOTH",
"90 718 OFFCURVE",
"64 693 OFFCURVE",
"64 662 CURVE SMOOTH",
"64 632 OFFCURVE",
"89 606 OFFCURVE",
"120 606 CURVE SMOOTH"
);
}
);
width = 242;
}
);
leftKerningGroup = i;
note = i;
rightKerningGroup = i;
unicode = 0069;
},
{
glyphname = idotless;
lastChange = "2015-10-08 20:58:16 +0000";
layers = (
{
anchors = (
{
name = bottom;
position = "{121, 0}";
},
{
name = ogonek;
position = "{213, 10}";
},
{
name = top;
position = "{121, 457}";
}
);
background = {
paths = (
{
closed = 1;
nodes = (
"97 370 LINE",
"97 17 LINE",
"20 17 LINE",
"20 0 LINE",
"255 0 LINE",
"255 17 LINE",
"178 17 LINE",
"178 417 LINE",
"165 393 OFFCURVE",
"153 387 OFFCURVE",
"116 387 CURVE SMOOTH",
"21 387 LINE",
"21 370 LINE"
);
}
);
};
layerId = "EA94BB3F-1054-4F03-AAB6-69C3B81B3CC3";
paths = (
{
closed = 1;
nodes = (
"171 0 LINE",
"171 457 LINE",
"70 457 LINE",
"70 0 LINE"
);
}
);
width = 242;
}
);
leftKerningGroup = idotless;
note = dotlessi;
rightKerningGroup = idotless;
unicode = 0131;
},
{
glyphname = j;
lastChange = "2015-10-08 20:58:16 +0000";
layers = (
{
background = {
paths = (
{
closed = 1;
nodes = (
"9 427 LINE",
"104 427 LINE",
"104 -60 LINE SMOOTH",
"104 -106 OFFCURVE",
"105 -113 OFFCURVE",
"127 -152 CURVE SMOOTH",
"135 -167 LINE SMOOTH",
"149 -194 OFFCURVE",
"155 -210 OFFCURVE",
"155 -223 CURVE SMOOTH",
"155 -244 OFFCURVE",
"147 -260 OFFCURVE",
"127 -275 CURVE",
"128 -267 LINE",
"129 -260 LINE",
"129 -238 OFFCURVE",
"106 -215 OFFCURVE",
"85 -215 CURVE SMOOTH",
"61 -215 OFFCURVE",
"42 -234 OFFCURVE",
"42 -256 CURVE SMOOTH",
"42 -282 OFFCURVE",
"66 -306 OFFCURVE",
"91 -306 CURVE SMOOTH",
"118 -306 OFFCURVE",
"150 -286 OFFCURVE",
"171 -258 CURVE SMOOTH",
"192 -228 OFFCURVE",
"198 -186 OFFCURVE",
"198 -61 CURVE SMOOTH",
"198 474 LINE",
"182 453 OFFCURVE",
"166 447 OFFCURVE",
"125 447 CURVE SMOOTH",
"9 447 LINE"
);
},
{
closed = 1;
nodes = (
"122 787 OFFCURVE",
"97 762 OFFCURVE",
"97 732 CURVE SMOOTH",
"97 702 OFFCURVE",
"121 677 OFFCURVE",
"152 677 CURVE SMOOTH",
"182 677 OFFCURVE",
"207 701 OFFCURVE",
"207 732 CURVE SMOOTH",
"207 761 OFFCURVE",
"182 787 OFFCURVE",
"152 787 CURVE SMOOTH"
);
}
);
};
layerId = "EA94BB3F-1054-4F03-AAB6-69C3B81B3CC3";
paths = (
{
closed = 1;
nodes = (
"117 -278 OFFCURVE",
"149 -207 OFFCURVE",
"149 -136 CURVE SMOOTH",
"149 457 LINE",
"48 457 LINE",
"48 156 LINE SMOOTH",
"48 81 OFFCURVE",
"70 -84 OFFCURVE",
"81 -171 CURVE SMOOTH",
"85 -202 OFFCURVE",
"88 -223 OFFCURVE",
"88 -226 CURVE SMOOTH",
"88 -246 OFFCURVE",
"79 -263 OFFCURVE",
"43 -263 CURVE SMOOTH",
"6 -263 OFFCURVE",
"-20 -246 OFFCURVE",
"-20 -230 CURVE SMOOTH",
"-20 -222 OFFCURVE",
"-13 -214 OFFCURVE",
"-5 -206 CURVE SMOOTH",
"5 -196 OFFCURVE",
"16 -185 OFFCURVE",
"16 -169 CURVE SMOOTH",
"16 -144 OFFCURVE",
"-10 -129 OFFCURVE",
"-29 -129 CURVE SMOOTH",
"-66 -129 OFFCURVE",
"-71 -185 OFFCURVE",
"-71 -223 CURVE",
"-48 -253 OFFCURVE",
"-9 -278 OFFCURVE",
"38 -278 CURVE SMOOTH"
);
},
{
closed = 1;
nodes = (
"129 587 OFFCURVE",
"153 608 OFFCURVE",
"153 634 CURVE SMOOTH",
"153 659 OFFCURVE",
"131 684 OFFCURVE",
"104 684 CURVE SMOOTH",
"78 684 OFFCURVE",
"56 661 OFFCURVE",
"56 635 CURVE SMOOTH",
"56 609 OFFCURVE",
"78 587 OFFCURVE",
"104 587 CURVE SMOOTH"
);
}
);
width = 211;
}
);
leftKerningGroup = j;
note = j;
rightKerningGroup = j;
unicode = 006A;
},
{
glyphname = jdotless;
lastChange = "2015-10-08 20:58:16 +0000";
layers = (
{
layerId = "EA94BB3F-1054-4F03-AAB6-69C3B81B3CC3";
paths = (
{
closed = 1;
nodes = (
"117 -278 OFFCURVE",
"149 -207 OFFCURVE",
"149 -136 CURVE SMOOTH",
"149 457 LINE",
"48 457 LINE",
"48 156 LINE SMOOTH",
"48 81 OFFCURVE",
"70 -84 OFFCURVE",
"81 -171 CURVE SMOOTH",
"85 -202 OFFCURVE",
"88 -223 OFFCURVE",
"88 -226 CURVE SMOOTH",
"88 -246 OFFCURVE",
"79 -263 OFFCURVE",
"43 -263 CURVE SMOOTH",
"6 -263 OFFCURVE",
"-20 -246 OFFCURVE",
"-20 -230 CURVE SMOOTH",
"-20 -222 OFFCURVE",
"-13 -214 OFFCURVE",
"-5 -206 CURVE SMOOTH",
"5 -196 OFFCURVE",
"16 -185 OFFCURVE",
"16 -169 CURVE SMOOTH",
"16 -144 OFFCURVE",
"-10 -129 OFFCURVE",
"-29 -129 CURVE SMOOTH",
"-66 -129 OFFCURVE",
"-71 -185 OFFCURVE",
"-71 -223 CURVE",
"-48 -253 OFFCURVE",
"-9 -278 OFFCURVE",
"38 -278 CURVE SMOOTH"
);
}
);
width = 211;
}
);
leftKerningGroup = jdotless;
rightKerningGroup = jdotless;
unicode = 0237;
},
{
glyphname = k;
lastChange = "2015-10-08 20:58:16 +0000";
layers = (
{
anchors = (
{
name = bottom;
position = "{267, 0}";
},
{
name = top;
position = "{247, 457}";
}
);
background = {
paths = (
{
closed = 1;
nodes = (
"97 758 LINE",
"97 20 LINE",
"8 20 LINE",
"8 0 LINE",
"266 0 LINE",
"266 20 LINE",
"181 20 LINE",
"181 167 LINE",
"221 206 LINE",
"362 20 LINE",
"285 20 LINE",
"285 0 LINE",
"575 0 LINE",
"575 20 LINE",
"480 20 LINE",
"285 273 LINE",
"378 363 LINE SMOOTH",
"438 422 OFFCURVE",
"447 427 OFFCURVE",
"489 427 CURVE SMOOTH",
"534 427 LINE",
"534 447 LINE",
"296 447 LINE",
"296 427 LINE",
"350 427 LINE SMOOTH",
"373 427 OFFCURVE",
"386 424 OFFCURVE",
"386 416 CURVE SMOOTH",
"386 408 OFFCURVE",
"364 378 OFFCURVE",
"340 353 CURVE SMOOTH",
"181 196 LINE",
"181 814 LINE",
"166 785 OFFCURVE",
"152 777 OFFCURVE",
"110 777 CURVE SMOOTH",
"8 777 LINE",
"8 758 LINE"
);
}
);
};
layerId = "EA94BB3F-1054-4F03-AAB6-69C3B81B3CC3";
paths = (
{
closed = 1;
nodes = (
"186 0 LINE",
"186 220.76 LINE",
"364 0 LINE",
"471 0 LINE",
"261 270 LINE",
"421 457 LINE",
"386 457 LINE",
"186 222.974 LINE",
"186 757 LINE",
"85 757 LINE",
"85 0 LINE"
);
}
);
width = 493;
}
);
leftKerningGroup = h;
note = k;
rightKerningGroup = k;
unicode = 006B;
},
{
glyphname = l;
lastChange = "2015-10-08 20:58:16 +0000";
layers = (
{
anchors = (
{
name = bottom;
position = "{121, 0}";
},
{
name = center;
position = "{121, 229}";
},
{
name = top;
position = "{121, 457}";
},
{
name = topright;
position = "{206, 757}";
}
);
background = {
paths = (
{
closed = 1;
nodes = (
"84 656 LINE",
"84 17 LINE",
"7 17 LINE",
"7 0 LINE",
"242 0 LINE",
"242 17 LINE",
"166 17 LINE",
"166 703 LINE",
"154 679 OFFCURVE",
"141 673 OFFCURVE",
"103 673 CURVE SMOOTH",
"7 673 LINE",
"7 656 LINE"
);
}
);
};
layerId = "EA94BB3F-1054-4F03-AAB6-69C3B81B3CC3";
paths = (
{
closed = 1;
nodes = (
"173 0 LINE",
"173 757 LINE",
"72 757 LINE",
"72 0 LINE"
);
}
);
width = 242;
}
);
leftKerningGroup = h;
note = l;
rightKerningGroup = l;
unicode = 006C;
},
{
glyphname = lslash;
lastChange = "2015-10-08 20:58:16 +0000";
layers = (
{
anchors = (
{
name = bottom;
position = "{121, 0}";
},
{
name = center;
position = "{121, 229}";
},
{
name = top;
position = "{121, 457}";
},
{
name = topright;
position = "{206, 757}";
}
);
layerId = "EA94BB3F-1054-4F03-AAB6-69C3B81B3CC3";
paths = (
{
closed = 1;
nodes = (
"173 0 LINE",
"173 757 LINE",
"72 757 LINE",
"72 0 LINE"
);
},
{
closed = 1;
nodes = (
"284 443 LINE",
"275 458 LINE",
"-42 267 LINE",
"-33 252 LINE"
);
}
);
width = 242;
}
);
leftKerningGroup = lslash;
rightKerningGroup = lslash;
unicode = 0142;
},
{
glyphname = m;
lastChange = "2015-10-08 20:58:16 +0000";
layers = (
{
background = {
paths = (
{
closed = 1;
nodes = (
"202 478 LINE",
"191 455 OFFCURVE",
"172 447 OFFCURVE",
"131 447 CURVE SMOOTH",
"20 447 LINE",
"20 427 LINE",
"109 427 LINE",
"109 20 LINE",
"20 20 LINE",
"20 0 LINE",
"289 0 LINE",
"289 20 LINE",
"202 20 LINE",
"202 315 LINE",
"224 394 OFFCURVE",
"292 452 OFFCURVE",
"363 452 CURVE SMOOTH",
"407 452 OFFCURVE",
"433 423 OFFCURVE",
"433 375 CURVE SMOOTH",
"433 20 LINE",
"342 20 LINE",
"342 0 LINE",
"614 0 LINE",
"614 20 LINE",
"527 20 LINE",
"527 296 LINE SMOOTH",
"527 315 OFFCURVE",
"541 351 OFFCURVE",
"559 378 CURVE SMOOTH",
"590 423 OFFCURVE",
"634 448 OFFCURVE",
"679 448 CURVE SMOOTH",
"730 448 OFFCURVE",
"757 417 OFFCURVE",
"757 358 CURVE SMOOTH",
"757 20 LINE",
"668 20 LINE",
"668 0 LINE",
"941 0 LINE",
"941 20 LINE",
"852 20 LINE",
"852 295 LINE SMOOTH",
"852 370 OFFCURVE",
"847 393 OFFCURVE",
"821 422 CURVE SMOOTH",
"795 452 OFFCURVE",
"751 469 OFFCURVE",
"700 469 CURVE SMOOTH",
"619 469 OFFCURVE",
"553 423 OFFCURVE",
"527 347 CURVE",
"522 386 OFFCURVE",
"517 400 OFFCURVE",
"500 420 CURVE",
"475 454 OFFCURVE",
"434 470 OFFCURVE",
"379 470 CURVE SMOOTH",
"297 470 OFFCURVE",
"224 422 OFFCURVE",
"202 353 CURVE"
);
}
);
};
layerId = "EA94BB3F-1054-4F03-AAB6-69C3B81B3CC3";
paths = (
{
closed = 1;
nodes = (
"152 0 LINE",
"152 231 LINE SMOOTH",
"152 323 OFFCURVE",
"191 449 OFFCURVE",
"278 449 CURVE SMOOTH",
"354 449 OFFCURVE",
"376 354 OFFCURVE",
"376 263 CURVE SMOOTH",
"376 0 LINE",
"477 0 LINE",
"477 231 LINE SMOOTH",
"477 329 OFFCURVE",
"503 442 OFFCURVE",
"589 442 CURVE SMOOTH",
"665 442 OFFCURVE",
"679 354 OFFCURVE",
"679 263 CURVE SMOOTH",
"679 0 LINE",
"780 0 LINE",
"780 304 LINE SMOOTH",
"780 404 OFFCURVE",
"717 470 OFFCURVE",
"617 470 CURVE SMOOTH",
"543 470 OFFCURVE",
"497 433 OFFCURVE",
"458 372 CURVE",
"432 431 OFFCURVE",
"380 470 OFFCURVE",
"308 470 CURVE SMOOTH",
"240 470 OFFCURVE",
"190 435 OFFCURVE",
"153 378 CURVE",
"153 457 LINE",
"51 457 LINE",
"51 0 LINE"
);
}
);
width = 820;
}
);
leftKerningGroup = n;
note = m;
rightKerningGroup = n;
unicode = 006D;
},
{
glyphname = n;
lastChange = "2015-10-08 20:58:16 +0000";
layers = (
{
anchors = (
{
name = bottom;
position = "{279, 0}";
},
{
name = top;
position = "{310, 457}";
}
);
background = {
paths = (
{
closed = 1;
nodes = (
"174 414 LINE",
"162 393 OFFCURVE",
"148 387 OFFCURVE",
"112 387 CURVE SMOOTH",
"17 387 LINE",
"17 370 LINE",
"94 370 LINE",
"94 17 LINE",
"17 17 LINE",
"17 0 LINE",
"252 0 LINE",
"252 17 LINE",
"174 17 LINE",
"174 275 LINE",
"200 342 OFFCURVE",
"262 388 OFFCURVE",
"326 388 CURVE SMOOTH",
"375 388 OFFCURVE",
"393 366 OFFCURVE",
"393 308 CURVE SMOOTH",
"393 17 LINE",
"315 17 LINE",
"315 0 LINE",
"551 0 LINE",
"551 17 LINE",
"474 17 LINE",
"474 275 LINE SMOOTH",
"474 318 OFFCURVE",
"469 337 OFFCURVE",
"453 358 CURVE SMOOTH",
"429 389 OFFCURVE",
"388 405 OFFCURVE",
"336 405 CURVE SMOOTH",
"266 405 OFFCURVE",
"205 369 OFFCURVE",
"174 308 CURVE"
);
}
);
};
layerId = "EA94BB3F-1054-4F03-AAB6-69C3B81B3CC3";
paths = (
{
closed = 1;
nodes = (
"154 0 LINE",
"154 231 LINE SMOOTH",
"154 397 OFFCURVE",
"245 449 OFFCURVE",
"304 449 CURVE SMOOTH",
"384 449 OFFCURVE",
"386 354 OFFCURVE",
"386 263 CURVE SMOOTH",
"386 0 LINE",
"487 0 LINE",
"487 304 LINE SMOOTH",
"487 404 OFFCURVE",
"421 470 OFFCURVE",
"316 470 CURVE SMOOTH",
"236 470 OFFCURVE",
"183 431 OFFCURVE",
"153 370 CURVE",
"153 457 LINE",
"53 457 LINE",
"53 0 LINE"
);
}
);
width = 557;
}
);
leftKerningGroup = n;
note = n;
rightKerningGroup = n;
unicode = 006E;
},
{
glyphname = eng;
lastChange = "2015-10-08 20:58:16 +0000";
layers = (
{
anchors = (
{
name = top;
position = "{316, 457}";
}
);
background = {
paths = (
{
closed = 1;
nodes = (
"154 0 LINE",
"154 231 LINE SMOOTH",
"154 397 OFFCURVE",
"245 449 OFFCURVE",
"304 449 CURVE SMOOTH",
"384 449 OFFCURVE",
"386 354 OFFCURVE",
"386 263 CURVE SMOOTH",
"386 196 LINE",
"386 -91 LINE",
"390 -122 OFFCURVE",
"393 -143 OFFCURVE",
"393 -146 CURVE SMOOTH",
"393 -166 OFFCURVE",
"384 -183 OFFCURVE",
"348 -183 CURVE SMOOTH",
"311 -183 OFFCURVE",
"285 -166 OFFCURVE",
"285 -150 CURVE SMOOTH",
"285 -142 OFFCURVE",
"292 -134 OFFCURVE",
"300 -126 CURVE SMOOTH",
"310 -116 OFFCURVE",
"321 -105 OFFCURVE",
"321 -89 CURVE SMOOTH",
"321 -64 OFFCURVE",
"295 -49 OFFCURVE",
"276 -49 CURVE SMOOTH",
"239 -49 OFFCURVE",
"234 -105 OFFCURVE",
"234 -143 CURVE",
"257 -173 OFFCURVE",
"296 -198 OFFCURVE",
"343 -198 CURVE SMOOTH",
"422 -198 OFFCURVE",
"454 -127 OFFCURVE",
"454 -56 CURVE SMOOTH",
"454 -39 OFFCURVE",
"483 -11 OFFCURVE",
"487 22 CURVE",
"487 304 LINE",
"487 404 OFFCURVE",
"421 470 OFFCURVE",
"316 470 CURVE SMOOTH",
"236 470 OFFCURVE",
"183 431 OFFCURVE",
"153 370 CURVE",
"153 457 LINE",
"53 457 LINE",
"53 0 LINE"
);
}
);
};
layerId = "EA94BB3F-1054-4F03-AAB6-69C3B81B3CC3";
paths = (
{
closed = 1;
nodes = (
"441 -198 OFFCURVE",
"487 -83 OFFCURVE",
"487 102 CURVE SMOOTH",
"487 304 LINE SMOOTH",
"487 404 OFFCURVE",
"421 470 OFFCURVE",
"316 470 CURVE SMOOTH",
"236 470 OFFCURVE",
"183 431 OFFCURVE",
"153 370 CURVE",
"153 457 LINE",
"53 457 LINE",
"53 0 LINE",
"154 0 LINE",
"154 231 LINE SMOOTH",
"154 397 OFFCURVE",
"245 449 OFFCURVE",
"304 449 CURVE SMOOTH",
"384 449 OFFCURVE",
"386 354 OFFCURVE",
"386 263 CURVE SMOOTH",
"386 80 LINE SMOOTH",
"386 54 OFFCURVE",
"393 -54 OFFCURVE",
"393 -138 CURVE SMOOTH",
"393 -166 OFFCURVE",
"388 -183 OFFCURVE",
"349 -183 CURVE SMOOTH",
"310 -183 OFFCURVE",
"285 -166 OFFCURVE",
"285 -150 CURVE SMOOTH",
"285 -142 OFFCURVE",
"292 -134 OFFCURVE",
"300 -126 CURVE SMOOTH",
"310 -116 OFFCURVE",
"321 -105 OFFCURVE",
"321 -89 CURVE SMOOTH",
"321 -64 OFFCURVE",
"295 -49 OFFCURVE",
"276 -49 CURVE SMOOTH",
"239 -49 OFFCURVE",
"234 -105 OFFCURVE",
"234 -143 CURVE",
"257 -173 OFFCURVE",
"297 -198 OFFCURVE",
"343 -198 CURVE SMOOTH"
);
}
);
width = 768;
}
);
leftKerningGroup = n;
rightKerningGroup = j;
unicode = 014B;
},
{
glyphname = o;
lastChange = "2015-10-08 20:58:16 +0000";
layers = (
{
anchors = (
{
name = bottom;
position = "{285, 0}";
},
{
name = center;
position = "{285, 229}";
},
{
name = ogonek;
position = "{512, 10}";
},
{
name = top;
position = "{285, 457}";
},
{
name = topright;
position = "{549, 457}";
}
);
background = {
paths = (
{
closed = 1;
nodes = (
"141 408 OFFCURVE",
"30 303 OFFCURVE",
"30 197 CURVE SMOOTH",
"30 89 OFFCURVE",
"136 -12 OFFCURVE",
"250 -12 CURVE SMOOTH",
"363 -12 OFFCURVE",
"464 88 OFFCURVE",
"464 200 CURVE SMOOTH",
"464 260 OFFCURVE",
"438 313 OFFCURVE",
"386 356 CURVE SMOOTH",
"345 390 OFFCURVE",
"299 408 OFFCURVE",
"255 408 CURVE SMOOTH"
);
},
{
closed = 1;
nodes = (
"372 127 LINE SMOOTH",
"372 84 OFFCURVE",
"366 57 OFFCURVE",
"352 38 CURVE SMOOTH",
"335 16 OFFCURVE",
"297 2 OFFCURVE",
"253 2 CURVE SMOOTH",
"213 2 OFFCURVE",
"172 14 OFFCURVE",
"155 29 CURVE",
"133 50 OFFCURVE",
"123 81 OFFCURVE",
"123 129 CURVE SMOOTH",
"123 268 LINE SMOOTH",
"123 354 OFFCURVE",
"164 394 OFFCURVE",
"252 394 CURVE SMOOTH",
"292 394 OFFCURVE",
"326 382 OFFCURVE",
"347 361 CURVE SMOOTH",
"368 341 OFFCURVE",
"372 324 OFFCURVE",
"372 266 CURVE SMOOTH"
);
}
);
};
layerId = "EA94BB3F-1054-4F03-AAB6-69C3B81B3CC3";
paths = (
{
closed = 1;
nodes = (
"427 -23 OFFCURVE",
"524 75 OFFCURVE",
"524 222 CURVE SMOOTH",
"524 371 OFFCURVE",
"427 470 OFFCURVE",
"281 470 CURVE SMOOTH",
"135 470 OFFCURVE",
"38 371 OFFCURVE",
"38 222 CURVE SMOOTH",
"38 75 OFFCURVE",
"135 -23 OFFCURVE",
"281 -23 CURVE SMOOTH"
);
},
{
closed = 1;
nodes = (
"191 -2 OFFCURVE",
"141 128 OFFCURVE",
"141 222 CURVE SMOOTH",
"141 316 OFFCURVE",
"191 449 OFFCURVE",
"281 449 CURVE SMOOTH",
"371 449 OFFCURVE",
"421 316 OFFCURVE",
"421 222 CURVE SMOOTH",
"421 128 OFFCURVE",
"371 -2 OFFCURVE",
"281 -2 CURVE SMOOTH"
);
}
);
width = 569;
}
);
leftKerningGroup = o;
note = o;
rightKerningGroup = o;
unicode = 006F;
},
{
glyphname = oslash;
lastChange = "2015-10-08 20:58:16 +0000";
layers = (
{
anchors = (
{
name = bottom;
position = "{285, 0}";
},
{
name = center;
position = "{285, 229}";
},
{
name = ogonek;
position = "{512, 10}";
},
{
name = top;
position = "{285, 457}";
},
{
name = topright;
position = "{549, 457}";
}
);
background = {
paths = (
{
closed = 1;
nodes = (
"401 410 LINE",
"387 419 LINE",
"355 375 LINE",
"311 398 OFFCURVE",
"286 405 OFFCURVE",
"248 405 CURVE SMOOTH",
"134 405 OFFCURVE",
"30 304 OFFCURVE",
"30 194 CURVE SMOOTH",
"30 130 OFFCURVE",
"63 69 OFFCURVE",
"120 30 CURVE",
"86 -20 LINE",
"100 -31 LINE",
"134 20 LINE",
"171 -2 OFFCURVE",
"207 -12 OFFCURVE",
"246 -12 CURVE SMOOTH",
"359 -12 OFFCURVE",
"459 86 OFFCURVE",
"459 196 CURVE SMOOTH",
"459 261 OFFCURVE",
"431 313 OFFCURVE",
"370 365 CURVE"
);
},
{
closed = 1;
nodes = (
"352 338 LINE",
"364 314 OFFCURVE",
"368 289 OFFCURVE",
"368 228 CURVE SMOOTH",
"368 161 LINE SMOOTH",
"368 100 OFFCURVE",
"362 67 OFFCURVE",
"349 47 CURVE SMOOTH",
"328 17 OFFCURVE",
"293 1 OFFCURVE",
"248 1 CURVE SMOOTH",
"203 1 OFFCURVE",
"170 13 OFFCURVE",
"147 39 CURVE"
);
},
{
closed = 1;
nodes = (
"136 53 LINE",
"125 76 OFFCURVE",
"120 108 OFFCURVE",
"120 164 CURVE SMOOTH",
"120 229 LINE SMOOTH",
"120 293 OFFCURVE",
"124 318 OFFCURVE",
"139 342 CURVE SMOOTH",
"160 376 OFFCURVE",
"197 394 OFFCURVE",
"247 394 CURVE SMOOTH",
"289 394 OFFCURVE",
"316 382 OFFCURVE",
"341 353 CURVE"
);
}
);
};
layerId = "EA94BB3F-1054-4F03-AAB6-69C3B81B3CC3";
paths = (
{
closed = 1;
nodes = (
"427 -23 OFFCURVE",
"524 75 OFFCURVE",
"524 222 CURVE SMOOTH",
"524 371 OFFCURVE",
"427 470 OFFCURVE",
"281 470 CURVE SMOOTH",
"135 470 OFFCURVE",
"38 371 OFFCURVE",
"38 222 CURVE SMOOTH",
"38 75 OFFCURVE",
"135 -23 OFFCURVE",
"281 -23 CURVE SMOOTH"
);
},
{
closed = 1;
nodes = (
"191 -2 OFFCURVE",
"141 128 OFFCURVE",
"141 222 CURVE SMOOTH",
"141 316 OFFCURVE",
"191 449 OFFCURVE",
"281 449 CURVE SMOOTH",
"371 449 OFFCURVE",
"421 316 OFFCURVE",
"421 222 CURVE SMOOTH",
"421 128 OFFCURVE",
"371 -2 OFFCURVE",
"281 -2 CURVE SMOOTH"
);
},
{
closed = 1;
nodes = (
"447 474 LINE",
"432 484 LINE",
"123 -31 LINE",
"138 -40 LINE"
);
}
);
width = 569;
}
);
leftKerningGroup = o;
note = oslash;
rightKerningGroup = o;
unicode = 00F8;
},
{
glyphname = oe;
lastChange = "2015-09-23 22:08:55 +0000";
layers = (
{
background = {
paths = (
{
closed = 1;
nodes = (
"717 136 LINE",
"693 50 OFFCURVE",
"637 3 OFFCURVE",
"555 3 CURVE SMOOTH",
"475 3 OFFCURVE",
"442 44 OFFCURVE",
"442 146 CURVE SMOOTH",
"442 153 LINE",
"444 231 LINE",
"695 231 LINE SMOOTH",
"722 231 OFFCURVE",
"723 231 OFFCURVE",
"723 239 CURVE SMOOTH",
"723 260 OFFCURVE",
"700 313 OFFCURVE",
"680 338 CURVE SMOOTH",
"643 383 OFFCURVE",
"593 409 OFFCURVE",
"539 409 CURVE SMOOTH",
"484 409 OFFCURVE",
"438 384 OFFCURVE",
"402 332 CURVE",
"358 384 OFFCURVE",
"305 408 OFFCURVE",
"236 408 CURVE SMOOTH",
"124 408 OFFCURVE",
"30 312 OFFCURVE",
"30 196 CURVE SMOOTH",
"30 144 OFFCURVE",
"48 98 OFFCURVE",
"85 57 CURVE SMOOTH",
"127 10 OFFCURVE",
"175 -12 OFFCURVE",
"238 -12 CURVE SMOOTH",
"305 -12 OFFCURVE",
"357 12 OFFCURVE",
"393 59 CURVE",
"440 7 OFFCURVE",
"484 -12 OFFCURVE",
"554 -12 CURVE SMOOTH",
"600 -12 OFFCURVE",
"636 0 OFFCURVE",
"667 25 CURVE SMOOTH",
"697 49 OFFCURVE",
"721 88 OFFCURVE",
"729 123 CURVE SMOOTH",
"731 132 LINE"
);
},
{
closed = 1;
nodes = (
"352 146 LINE SMOOTH",
"352 99 OFFCURVE",
"346 65 OFFCURVE",
"333 45 CURVE SMOOTH",
"317 19 OFFCURVE",
"278 2 OFFCURVE",
"234 2 CURVE SMOOTH",
"193 2 OFFCURVE",
"160 16 OFFCURVE",
"143 42 CURVE SMOOTH",
"128 64 OFFCURVE",
"123 90 OFFCURVE",
"123 146 CURVE SMOOTH",
"123 233 LINE SMOOTH",
"123 307 OFFCURVE",
"126 328 OFFCURVE",
"140 351 CURVE SMOOTH",
"157 379 OFFCURVE",
"189 393 OFFCURVE",
"235 393 CURVE SMOOTH",
"278 393 OFFCURVE",
"312 379 OFFCURVE",
"329 355 CURVE SMOOTH",
"345 331 OFFCURVE",
"352 295 OFFCURVE",
"352 230 CURVE SMOOTH"
);
},
{
closed = 1;
nodes = (
"444 247 LINE",
"444 272 LINE SMOOTH",
"444 305 OFFCURVE",
"452 341 OFFCURVE",
"462 360 CURVE",
"475 381 OFFCURVE",
"504 394 OFFCURVE",
"537 394 CURVE SMOOTH",
"603 394 OFFCURVE",
"627 360 OFFCURVE",
"627 266 CURVE SMOOTH",
"627 254 OFFCURVE",
"627 251 OFFCURVE",
"626 249 CURVE SMOOTH",
"625 247 OFFCURVE",
"625 247 OFFCURVE",
"596 247 CURVE SMOOTH"
);
}
);
};
components = (
{
alignment = -1;
name = o;
},
{
name = e;
transform = "{1, 0, 0, 1, 384, 0}";
}
);
layerId = "EA94BB3F-1054-4F03-AAB6-69C3B81B3CC3";
width = 917;
}
);
leftKerningGroup = o;
note = oe;
rightKerningGroup = e;
unicode = 0153;
},
{
glyphname = p;
lastChange = "2015-10-08 20:58:16 +0000";
layers = (
{
background = {
paths = (
{
closed = 1;
nodes = (
"165 77 LINE",
"196 16 OFFCURVE",
"244 -14 OFFCURVE",
"310 -14 CURVE SMOOTH",
"420 -14 OFFCURVE",
"513 84 OFFCURVE",
"513 201 CURVE SMOOTH",
"513 309 OFFCURVE",
"414 408 OFFCURVE",
"305 408 CURVE SMOOTH",
"246 408 OFFCURVE",
"192 377 OFFCURVE",
"165 327 CURVE",
"165 413 LINE",
"155 394 OFFCURVE",
"139 387 OFFCURVE",
"103 387 CURVE SMOOTH",
"7 387 LINE",
"7 370 LINE",
"84 370 LINE",
"84 -236 LINE",
"7 -236 LINE",
"7 -253 LINE",
"241 -253 LINE",
"241 -236 LINE",
"165 -236 LINE"
);
},
{
closed = 1;
nodes = (
"165 262 LINE SMOOTH",
"165 332 OFFCURVE",
"232 393 OFFCURVE",
"308 393 CURVE SMOOTH",
"345 393 OFFCURVE",
"379 379 OFFCURVE",
"396 357 CURVE SMOOTH",
"413 334 OFFCURVE",
"421 295 OFFCURVE",
"421 230 CURVE SMOOTH",
"421 162 LINE SMOOTH",
"421 99 OFFCURVE",
"416 69 OFFCURVE",
"400 44 CURVE SMOOTH",
"383 16 OFFCURVE",
"352 1 OFFCURVE",
"313 1 CURVE SMOOTH",
"232 1 OFFCURVE",
"165 67 OFFCURVE",
"165 147 CURVE SMOOTH"
);
}
);
};
layerId = "EA94BB3F-1054-4F03-AAB6-69C3B81B3CC3";
paths = (
{
closed = 1;
nodes = (
"154 -263 LINE",
"154 81 LINE",
"188 15 OFFCURVE",
"238 -23 OFFCURVE",
"317 -23 CURVE SMOOTH",
"445 -23 OFFCURVE",
"528 78 OFFCURVE",
"528 222 CURVE SMOOTH",
"528 367 OFFCURVE",
"443 470 OFFCURVE",
"314 470 CURVE SMOOTH",
"231 470 OFFCURVE",
"186 427 OFFCURVE",
"151 363 CURVE",
"151 457 LINE",
"53 457 LINE",
"53 -263 LINE"
);
},
{
closed = 1;
nodes = (
"212 -2 OFFCURVE",
"152 114 OFFCURVE",
"152 222 CURVE SMOOTH",
"152 331 OFFCURVE",
"214 449 OFFCURVE",
"302 449 CURVE SMOOTH",
"399 449 OFFCURVE",
"427 305 OFFCURVE",
"427 213 CURVE SMOOTH",
"427 115 OFFCURVE",
"394 -2 OFFCURVE",
"303 -2 CURVE SMOOTH"
);
}
);
width = 572;
}
);
leftKerningGroup = p;
note = p;
rightKerningGroup = o;
unicode = 0070;
},
{
glyphname = thorn;
lastChange = "2015-10-08 20:58:16 +0000";
layers = (
{
background = {
paths = (
{
closed = 1;
nodes = (
"191 89 LINE",
"228 18 OFFCURVE",
"282 -16 OFFCURVE",
"358 -16 CURVE SMOOTH",
"485 -16 OFFCURVE",
"593 98 OFFCURVE",
"593 232 CURVE SMOOTH",
"593 358 OFFCURVE",
"478 471 OFFCURVE",
"352 471 CURVE SMOOTH",
"284 471 OFFCURVE",
"222 435 OFFCURVE",
"191 379 CURVE",
"191 811 LINE",
"179 789 OFFCURVE",
"161 781 OFFCURVE",
"119 781 CURVE SMOOTH",
"8 781 LINE",
"8 761 LINE",
"97 761 LINE",
"97 -273 LINE",
"8 -273 LINE",
"8 -292 LINE",
"278 -292 LINE",
"278 -273 LINE",
"191 -273 LINE"
);
},
{
closed = 1;
nodes = (
"486 187 LINE SMOOTH",
"486 114 OFFCURVE",
"480 80 OFFCURVE",
"462 51 CURVE SMOOTH",
"442 18 OFFCURVE",
"407 1 OFFCURVE",
"362 1 CURVE SMOOTH",
"268 1 OFFCURVE",
"191 77 OFFCURVE",
"191 170 CURVE SMOOTH",
"191 303 LINE SMOOTH",
"191 383 OFFCURVE",
"267 454 OFFCURVE",
"356 454 CURVE SMOOTH",
"398 454 OFFCURVE",
"438 438 OFFCURVE",
"457 412 CURVE SMOOTH",
"477 387 OFFCURVE",
"486 341 OFFCURVE",
"486 266 CURVE SMOOTH"
);
}
);
};
layerId = "EA94BB3F-1054-4F03-AAB6-69C3B81B3CC3";
paths = (
{
closed = 1;
nodes = (
"152 -263 LINE",
"152 81 LINE",
"187 17 OFFCURVE",
"231 -23 OFFCURVE",
"314 -23 CURVE SMOOTH",
"443 -23 OFFCURVE",
"528 74 OFFCURVE",
"528 222 CURVE SMOOTH",
"528 369 OFFCURVE",
"445 470 OFFCURVE",
"317 470 CURVE SMOOTH",
"236 470 OFFCURVE",
"189 429 OFFCURVE",
"155 363 CURVE",
"155 757 LINE",
"51 757 LINE",
"51 -263 LINE"
);
},
{
closed = 1;
nodes = (
"208 -2 OFFCURVE",
"152 122 OFFCURVE",
"152 221 CURVE SMOOTH",
"152 321 OFFCURVE",
"207 449 OFFCURVE",
"303 449 CURVE SMOOTH",
"391 449 OFFCURVE",
"422 343 OFFCURVE",
"422 231 CURVE SMOOTH",
"422 127 OFFCURVE",
"396 -2 OFFCURVE",
"301 -2 CURVE SMOOTH"
);
}
);
width = 574;
}
);
leftKerningGroup = h;
note = thorn;
rightKerningGroup = o;
unicode = 00FE;
},
{
glyphname = q;
lastChange = "2015-10-08 20:58:16 +0000";
layers = (
{
background = {
paths = (
{
closed = 1;
nodes = (
"378 327 LINE",
"352 376 OFFCURVE",
"297 408 OFFCURVE",
"238 408 CURVE SMOOTH",
"129 408 OFFCURVE",
"30 309 OFFCURVE",
"30 201 CURVE SMOOTH",
"30 85 OFFCURVE",
"123 -14 OFFCURVE",
"233 -14 CURVE SMOOTH",
"299 -14 OFFCURVE",
"346 16 OFFCURVE",
"378 77 CURVE",
"378 -236 LINE",
"302 -236 LINE",
"302 -253 LINE",
"536 -253 LINE",
"536 -236 LINE",
"459 -236 LINE",
"459 370 LINE",
"536 370 LINE",
"536 387 LINE",
"440 387 LINE SMOOTH",
"404 387 OFFCURVE",
"388 394 OFFCURVE",
"378 413 CURVE"
);
},
{
closed = 1;
nodes = (
"122 230 LINE SMOOTH",
"122 295 OFFCURVE",
"130 334 OFFCURVE",
"147 357 CURVE SMOOTH",
"164 379 OFFCURVE",
"199 393 OFFCURVE",
"236 393 CURVE SMOOTH",
"276 393 OFFCURVE",
"307 380 OFFCURVE",
"339 349 CURVE SMOOTH",
"367 321 OFFCURVE",
"378 297 OFFCURVE",
"378 258 CURVE SMOOTH",
"378 147 LINE SMOOTH",
"378 67 OFFCURVE",
"311 1 OFFCURVE",
"230 1 CURVE SMOOTH",
"191 1 OFFCURVE",
"160 16 OFFCURVE",
"143 44 CURVE SMOOTH",
"127 69 OFFCURVE",
"122 99 OFFCURVE",
"122 162 CURVE SMOOTH"
);
}
);
};
layerId = "EA94BB3F-1054-4F03-AAB6-69C3B81B3CC3";
paths = (
{
closed = 1;
nodes = (
"519 -263 LINE",
"519 457 LINE",
"420 457 LINE",
"420 363 LINE",
"385 437 OFFCURVE",
"331 470 OFFCURVE",
"258 470 CURVE SMOOTH",
"129 470 OFFCURVE",
"44 367 OFFCURVE",
"44 222 CURVE SMOOTH",
"44 80 OFFCURVE",
"126 -23 OFFCURVE",
"255 -23 CURVE SMOOTH",
"333 -23 OFFCURVE",
"384 15 OFFCURVE",
"418 81 CURVE",
"418 -263 LINE"
);
},
{
closed = 1;
nodes = (
"176 -2 OFFCURVE",
"145 115 OFFCURVE",
"145 213 CURVE SMOOTH",
"145 317 OFFCURVE",
"180 449 OFFCURVE",
"270 449 CURVE SMOOTH",
"354 449 OFFCURVE",
"420 335 OFFCURVE",
"420 222 CURVE SMOOTH",
"420 113 OFFCURVE",
"359 -2 OFFCURVE",
"268 -2 CURVE SMOOTH"
);
}
);
width = 572;
}
);
leftKerningGroup = o;
note = q;
rightKerningGroup = q;
unicode = 0071;
},
{
glyphname = r;
lastChange = "2015-10-08 20:58:16 +0000";
layers = (
{
anchors = (
{
name = bottom;
position = "{102, 0}";
},
{
name = top;
position = "{234, 457}";
}
);
background = {
paths = (
{
closed = 1;
nodes = (
"202 476 LINE",
"185 454 OFFCURVE",
"169 447 OFFCURVE",
"134 447 CURVE SMOOTH",
"20 447 LINE",
"20 427 LINE",
"109 427 LINE",
"109 20 LINE",
"20 20 LINE",
"20 0 LINE",
"303 0 LINE",
"303 20 LINE",
"202 20 LINE",
"202 218 LINE SMOOTH",
"202 300 OFFCURVE",
"215 345 OFFCURVE",
"251 396 CURVE SMOOTH",
"267 419 OFFCURVE",
"308 449 OFFCURVE",
"323 449 CURVE SMOOTH",
"325 449 OFFCURVE",
"350 446 OFFCURVE",
"350 445 CURVE",
"334 434 OFFCURVE",
"322 417 OFFCURVE",
"322 400 CURVE SMOOTH",
"322 373 OFFCURVE",
"345 349 OFFCURVE",
"372 349 CURVE SMOOTH",
"398 349 OFFCURVE",
"422 373 OFFCURVE",
"422 402 CURVE SMOOTH",
"422 439 OFFCURVE",
"387 468 OFFCURVE",
"343 468 CURVE SMOOTH",
"277 468 OFFCURVE",
"224 417 OFFCURVE",
"202 335 CURVE"
);
}
);
};
layerId = "EA94BB3F-1054-4F03-AAB6-69C3B81B3CC3";
paths = (
{
closed = 1;
nodes = (
"154 0 LINE",
"154 231 LINE SMOOTH",
"154 397 OFFCURVE",
"218 449 OFFCURVE",
"274 449 CURVE SMOOTH",
"293 449 OFFCURVE",
"316 443 OFFCURVE",
"316 436 CURVE SMOOTH",
"316 433 OFFCURVE",
"314 428 OFFCURVE",
"302 417 CURVE SMOOTH",
"292 408 OFFCURVE",
"274 392 OFFCURVE",
"274 372 CURVE SMOOTH",
"274 342 OFFCURVE",
"314 326 OFFCURVE",
"331 326 CURVE SMOOTH",
"366 326 OFFCURVE",
"374 392 OFFCURVE",
"374 436 CURVE SMOOTH",
"355 468 OFFCURVE",
"300 470 OFFCURVE",
"282 470 CURVE SMOOTH",
"201 470 OFFCURVE",
"180 429 OFFCURVE",
"153 369 CURVE",
"153 457 LINE",
"53 457 LINE",
"53 0 LINE"
);
}
);
width = 369;
}
);
leftKerningGroup = n;
note = r;
rightKerningGroup = r;
unicode = 0072;
},
{
glyphname = s;
lastChange = "2015-10-08 20:58:16 +0000";
layers = (
{
anchors = (
{
name = bottom;
position = "{208, -1}";
},
{
name = top;
position = "{198, 457}";
}
);
background = {
paths = (
{
closed = 1;
nodes = (
"51 162 LINE",
"51 -5 LINE",
"66 -5 LINE",
"66 3 LINE SMOOTH",
"66 24 OFFCURVE",
"70 33 OFFCURVE",
"82 33 CURVE SMOOTH",
"88 33 OFFCURVE",
"98 30 OFFCURVE",
"112 22 CURVE",
"166 -7 OFFCURVE",
"188 -14 OFFCURVE",
"230 -14 CURVE SMOOTH",
"337 -14 OFFCURVE",
"410 55 OFFCURVE",
"410 155 CURVE SMOOTH",
"410 237 OFFCURVE",
"360 289 OFFCURVE",
"283 289 CURVE SMOOTH",
"210 289 LINE SMOOTH",
"134 289 OFFCURVE",
"90 318 OFFCURVE",
"90 368 CURVE SMOOTH",
"90 422 OFFCURVE",
"139 456 OFFCURVE",
"212 456 CURVE SMOOTH",
"298 456 OFFCURVE",
"349 415 OFFCURVE",
"359 336 CURVE",
"376 336 LINE",
"372 470 LINE",
"355 470 LINE",
"355 463 LINE SMOOTH",
"355 440 OFFCURVE",
"353 435 OFFCURVE",
"348 435 CURVE SMOOTH",
"344 435 OFFCURVE",
"339 438 OFFCURVE",
"331 441 CURVE",
"292 462 OFFCURVE",
"253 472 OFFCURVE",
"215 472 CURVE SMOOTH",
"118 472 OFFCURVE",
"55 415 OFFCURVE",
"55 323 CURVE SMOOTH",
"55 251 OFFCURVE",
"105 199 OFFCURVE",
"173 199 CURVE SMOOTH",
"253 199 LINE SMOOTH",
"324 199 OFFCURVE",
"363 167 OFFCURVE",
"363 110 CURVE SMOOTH",
"363 45 OFFCURVE",
"313 3 OFFCURVE",
"237 3 CURVE SMOOTH",
"148 3 OFFCURVE",
"82 65 OFFCURVE",
"66 162 CURVE"
);
}
);
};
layerId = "EA94BB3F-1054-4F03-AAB6-69C3B81B3CC3";
paths = (
{
closed = 1;
nodes = (
"337 -23 OFFCURVE",
"387 54 OFFCURVE",
"387 132 CURVE SMOOTH",
"387 248 OFFCURVE",
"286 276 OFFCURVE",
"207 292 CURVE SMOOTH",
"163 301 OFFCURVE",
"90 310 OFFCURVE",
"90 372 CURVE SMOOTH",
"90 419 OFFCURVE",
"150 449 OFFCURVE",
"198 449 CURVE SMOOTH",
"231 449 OFFCURVE",
"287 430 OFFCURVE",
"306 404 CURVE",
"364 403 LINE",
"330 445 OFFCURVE",
"265 470 OFFCURVE",
"198 470 CURVE SMOOTH",
"83 470 OFFCURVE",
"38 395 OFFCURVE",
"38 333 CURVE SMOOTH",
"38 222 OFFCURVE",
"97 221 OFFCURVE",
"195 196 CURVE SMOOTH",
"248 183 OFFCURVE",
"327 163 OFFCURVE",
"327 92 CURVE SMOOTH",
"327 31 OFFCURVE",
"265 -1 OFFCURVE",
"208 -1 CURVE SMOOTH",
"137 -1 OFFCURVE",
"99 28 OFFCURVE",
"82 70 CURVE",
"24 71 LINE",
"48 17 OFFCURVE",
"95 -23 OFFCURVE",
"207 -23 CURVE SMOOTH"
);
},
{
closed = 1;
nodes = (
"82 77 OFFCURVE",
"87 81 OFFCURVE",
"97 90 CURVE SMOOTH",
"109 101 OFFCURVE",
"114 104 OFFCURVE",
"114 123 CURVE SMOOTH",
"114 155 OFFCURVE",
"82 169 OFFCURVE",
"67 169 CURVE SMOOTH",
"34 169 OFFCURVE",
"24 111 OFFCURVE",
"24 71 CURVE",
"82 70 LINE SMOOTH"
);
},
{
closed = 1;
nodes = (
"354 305 OFFCURVE",
"364 363 OFFCURVE",
"364 403 CURVE",
"306 404 LINE SMOOTH",
"306 397 OFFCURVE",
"301 393 OFFCURVE",
"291 384 CURVE SMOOTH",
"279 373 OFFCURVE",
"274 370 OFFCURVE",
"274 351 CURVE SMOOTH",
"274 319 OFFCURVE",
"306 305 OFFCURVE",
"321 305 CURVE SMOOTH"
);
}
);
width = 421;
},
{
associatedMasterId = "EA94BB3F-1054-4F03-AAB6-69C3B81B3CC3";
background = {
paths = (
{
closed = 1;
nodes = (
"43 162 LINE",
"43 -5 LINE",
"58 -5 LINE",
"58 3 LINE SMOOTH",
"58 24 OFFCURVE",
"62 33 OFFCURVE",
"74 33 CURVE SMOOTH",
"80 33 OFFCURVE",
"90 30 OFFCURVE",
"104 22 CURVE",
"158 -7 OFFCURVE",
"180 -14 OFFCURVE",
"222 -14 CURVE SMOOTH",
"329 -14 OFFCURVE",
"402 55 OFFCURVE",
"402 155 CURVE SMOOTH",
"402 237 OFFCURVE",
"352 289 OFFCURVE",
"275 289 CURVE SMOOTH",
"202 289 LINE SMOOTH",
"126 289 OFFCURVE",
"82 318 OFFCURVE",
"82 368 CURVE SMOOTH",
"82 422 OFFCURVE",
"131 456 OFFCURVE",
"204 456 CURVE SMOOTH",
"290 456 OFFCURVE",
"341 415 OFFCURVE",
"351 336 CURVE",
"368 336 LINE",
"364 470 LINE",
"347 470 LINE",
"347 463 LINE SMOOTH",
"347 440 OFFCURVE",
"345 435 OFFCURVE",
"340 435 CURVE SMOOTH",
"336 435 OFFCURVE",
"331 438 OFFCURVE",
"323 441 CURVE",
"284 462 OFFCURVE",
"245 472 OFFCURVE",
"207 472 CURVE SMOOTH",
"110 472 OFFCURVE",
"47 415 OFFCURVE",
"47 323 CURVE SMOOTH",
"47 251 OFFCURVE",
"97 199 OFFCURVE",
"165 199 CURVE SMOOTH",
"245 199 LINE SMOOTH",
"316 199 OFFCURVE",
"355 167 OFFCURVE",
"355 110 CURVE SMOOTH",
"355 45 OFFCURVE",
"305 3 OFFCURVE",
"229 3 CURVE SMOOTH",
"140 3 OFFCURVE",
"74 65 OFFCURVE",
"58 162 CURVE"
);
}
);
};
guideLines = (
{
position = "{-79, 244}";
}
);
layerId = "860982BC-940E-4336-A3CB-FC87807DC137";
name = guideline;
paths = (
{
closed = 1;
nodes = (
"317 -23 OFFCURVE",
"387 47 OFFCURVE",
"387 133 CURVE SMOOTH",
"387 219 OFFCURVE",
"317 289 OFFCURVE",
"232 289 CURVE SMOOTH",
"146 289 OFFCURVE",
"76 219 OFFCURVE",
"76 133 CURVE SMOOTH",
"76 47 OFFCURVE",
"146 -23 OFFCURVE",
"232 -23 CURVE SMOOTH"
);
},
{
closed = 1;
nodes = (
"248 199 OFFCURVE",
"309 260 OFFCURVE",
"309 334 CURVE SMOOTH",
"309 409 OFFCURVE",
"248 470 OFFCURVE",
"175 470 CURVE SMOOTH",
"100 470 OFFCURVE",
"39 409 OFFCURVE",
"39 334 CURVE SMOOTH",
"39 260 OFFCURVE",
"100 199 OFFCURVE",
"175 199 CURVE SMOOTH"
);
}
);
width = 407;
},
{
anchors = (
{
name = bottom;
position = "{208, -1}";
},
{
name = top;
position = "{198, 457}";
}
);
associatedMasterId = "EA94BB3F-1054-4F03-AAB6-69C3B81B3CC3";
background = {
paths = (
{
closed = 1;
nodes = (
"51 162 LINE",
"51 -5 LINE",
"66 -5 LINE",
"66 3 LINE SMOOTH",
"66 24 OFFCURVE",
"70 33 OFFCURVE",
"82 33 CURVE SMOOTH",
"88 33 OFFCURVE",
"98 30 OFFCURVE",
"112 22 CURVE",
"166 -7 OFFCURVE",
"188 -14 OFFCURVE",
"230 -14 CURVE SMOOTH",
"337 -14 OFFCURVE",
"410 55 OFFCURVE",
"410 155 CURVE SMOOTH",
"410 237 OFFCURVE",
"360 289 OFFCURVE",
"283 289 CURVE SMOOTH",
"210 289 LINE SMOOTH",
"134 289 OFFCURVE",
"90 318 OFFCURVE",
"90 368 CURVE SMOOTH",
"90 422 OFFCURVE",
"139 456 OFFCURVE",
"212 456 CURVE SMOOTH",
"298 456 OFFCURVE",
"349 415 OFFCURVE",
"359 336 CURVE",
"376 336 LINE",
"372 470 LINE",
"355 470 LINE",
"355 463 LINE SMOOTH",
"355 440 OFFCURVE",
"353 435 OFFCURVE",
"348 435 CURVE SMOOTH",
"344 435 OFFCURVE",
"339 438 OFFCURVE",
"331 441 CURVE",
"292 462 OFFCURVE",
"253 472 OFFCURVE",
"215 472 CURVE SMOOTH",
"118 472 OFFCURVE",
"55 415 OFFCURVE",
"55 323 CURVE SMOOTH",
"55 251 OFFCURVE",
"105 199 OFFCURVE",
"173 199 CURVE SMOOTH",
"253 199 LINE SMOOTH",
"324 199 OFFCURVE",
"363 167 OFFCURVE",
"363 110 CURVE SMOOTH",
"363 45 OFFCURVE",
"313 3 OFFCURVE",
"237 3 CURVE SMOOTH",
"148 3 OFFCURVE",
"82 65 OFFCURVE",
"66 162 CURVE"
);
}
);
};
layerId = "3F897427-6297-4DD5-9A64-78007F37B453";
name = "Regular Sep 28 15, 18:11";
paths = (
{
closed = 1;
nodes = (
"337 -23 OFFCURVE",
"387 54 OFFCURVE",
"387 132 CURVE SMOOTH",
"387 248 OFFCURVE",
"286 276 OFFCURVE",
"207 292 CURVE SMOOTH",
"163 301 OFFCURVE",
"90 310 OFFCURVE",
"90 372 CURVE SMOOTH",
"90 419 OFFCURVE",
"150 449 OFFCURVE",
"198 449 CURVE SMOOTH",
"231 449 OFFCURVE",
"277 431 OFFCURVE",
"296 384 CURVE",
"374 383 LINE",
"350 445 OFFCURVE",
"265 470 OFFCURVE",
"198 470 CURVE SMOOTH",
"83 470 OFFCURVE",
"38 395 OFFCURVE",
"38 333 CURVE SMOOTH",
"38 222 OFFCURVE",
"97 221 OFFCURVE",
"195 196 CURVE SMOOTH",
"248 183 OFFCURVE",
"327 163 OFFCURVE",
"327 92 CURVE SMOOTH",
"327 31 OFFCURVE",
"265 -1 OFFCURVE",
"208 -1 CURVE SMOOTH",
"137 -1 OFFCURVE",
"109 58 OFFCURVE",
"92 100 CURVE",
"14 101 LINE",
"28 27 OFFCURVE",
"95 -23 OFFCURVE",
"207 -23 CURVE SMOOTH"
);
}
);
width = 421;
}
);
leftKerningGroup = s;
note = s;
rightKerningGroup = s;
unicode = 0073;
},
